<svg xmlns="http://www.w3.org/2000/svg" xmlns:xlink="http://www.w3.org/1999/xlink" width="1080" zoomAndPan="magnify" viewBox="0 0 810 809.999993" height="1080" preserveAspectRatio="xMidYMid meet" version="1.0"><defs><clipPath id="7f3f5b8ee4"><path d="M 1 141 L 810 141 L 810 672.449219 L 1 672.449219 Z M 1 141 " clip-rule="nonzero"/></clipPath></defs><rect x="-81" width="972" fill="#ffffff" y="-80.999999" height="971.999992" fill-opacity="1"/><rect x="-81" width="972" fill="#ffffff" y="-80.999999" height="971.999992" fill-opacity="1"/><g clip-path="url(#7f3f5b8ee4)"><path fill="#ffffff" d="M 344.09375 143.203125 C 364.457031 137.878906 390.816406 145.355469 402.292969 147.40625 C 418.632812 152.203125 458.3125 149.484375 464.210938 150.429688 C 461.839844 150.40625 431.460938 150.03125 428.828125 151.058594 C 433.511719 152.734375 436.105469 152.042969 440.695312 152.167969 C 483.371094 151.777344 452.457031 150.609375 543.589844 169.71875 C 547.496094 170.5625 551.535156 170.859375 555.34375 172.121094 C 555.34375 172.125 583.394531 192.007812 583.394531 192.007812 C 595.375 195.976562 628.945312 205.242188 629.523438 205.320312 C 630.542969 207.046875 629.375 205.6875 642.101562 218.417969 C 643.84375 220.199219 644.492188 223.21875 647.117188 223.988281 C 672.859375 234.9375 655.390625 224.566406 686.945312 245.835938 C 687.230469 246.023438 700.039062 254.472656 700.378906 254.546875 C 700.476562 254.863281 717.6875 276.089844 722.066406 281.203125 C 722.167969 281.519531 731.441406 304.507812 733.238281 306.839844 C 750.582031 319.230469 748.566406 310.945312 767.316406 336.65625 C 773.503906 363.039062 770.074219 357.699219 780.074219 373.957031 C 781.320312 375.640625 781.730469 377.742188 782.277344 379.730469 C 791.195312 407.554688 788.824219 399.800781 789.207031 406 C 808.480469 434.160156 807.964844 493.566406 809.5 497.507812 C 810.023438 503.152344 803.824219 544.449219 803.742188 544.765625 C 795.734375 572.042969 794.59375 569.542969 799.230469 590.253906 C 799.730469 591.757812 796.796875 603.921875 796.136719 608.058594 C 790.308594 622.167969 780.917969 632.449219 760.480469 660.234375 C 760.480469 660.234375 741.582031 668.839844 741.582031 668.839844 C 741.582031 668.839844 716.851562 672.105469 716.851562 672.105469 C 715.316406 671.15625 707.09375 667.773438 703.824219 665.597656 C 697.105469 664.285156 690.351562 663.164062 683.605469 661.953125 C 670.203125 660.746094 656.265625 649.179688 648.898438 648.332031 C 636.621094 646.484375 624.320312 645.230469 612.03125 643.589844 C 611.066406 643.148438 591.84375 633.199219 591.796875 633.167969 C 587.636719 626.894531 583.402344 620.671875 579.308594 614.363281 C 574.824219 616.15625 565.144531 613.453125 561.945312 613.46875 C 559.589844 611.773438 557.292969 609.996094 554.90625 608.34375 C 518.972656 624.316406 499.53125 620.0625 490.519531 621.699219 C 469.425781 632.175781 481.011719 630.226562 446.496094 629.949219 C 444.933594 629.445312 443.292969 629.585938 441.683594 629.449219 C 440.175781 628.890625 433.511719 628.667969 431.898438 628.667969 C 430.050781 629.621094 420.324219 636.71875 420.113281 636.925781 C 419.398438 637.191406 407.128906 639.773438 406.46875 639.886719 C 403.085938 639.398438 387.441406 640.246094 373.554688 633.671875 C 372.671875 633.179688 371.871094 634.113281 371.09375 634.429688 C 367.960938 636.617188 364.089844 637.578125 361.132812 640.019531 C 361.082031 640.03125 346.078125 645.296875 345.738281 645.464844 C 340.019531 645.566406 334.296875 645.429688 328.578125 645.523438 C 322.609375 648.75 294.359375 655.664062 269.199219 650.285156 C 230.035156 640.132812 244.90625 642.019531 223.164062 633.355469 C 222.082031 632.550781 208.152344 619.863281 207.804688 619.453125 C 200.503906 611.132812 208.996094 625.386719 191.746094 596.722656 C 189.21875 596.722656 186.6875 596.722656 184.160156 596.722656 C 184.160156 596.722656 175.695312 587.699219 175.695312 587.695312 C 174.46875 584.074219 173.742188 580.304688 172.503906 576.683594 C 172.375 570.804688 172.488281 564.921875 172.449219 559.039062 C 171.019531 559 159.90625 558.273438 158.746094 557.664062 C 82.058594 522.109375 76.054688 537.324219 38.554688 519.132812 C 34.003906 516.597656 31.636719 517.199219 28.925781 513.800781 C 18.597656 498.796875 21.304688 513.015625 15.515625 488.0625 C 15.359375 470.621094 15.75 470.515625 15.214844 469.777344 C 8.53125 459.175781 8.859375 457.183594 5.453125 452.421875 C 4.636719 449.410156 0.0117188 429.519531 2.976562 421.476562 C 3.144531 414.671875 3.769531 415.300781 20.230469 383.285156 C 20.921875 381.164062 19.574219 379.175781 19.125 377.15625 C 15.832031 359.492188 16.90625 360.617188 20.535156 345.546875 C 20.535156 345.546875 31.832031 327.519531 31.832031 327.519531 C 33.304688 326.605469 47.265625 313.382812 47.582031 313.125 C 49.285156 312.445312 51.027344 311.851562 52.742188 311.199219 C 52.855469 300.632812 51.789062 303.917969 55.972656 286.523438 C 63.617188 278.367188 58.742188 278.359375 96.703125 252.734375 C 98.257812 250.242188 102.804688 247.382812 105.191406 244.804688 C 105.503906 244.613281 124.078125 228.089844 128.414062 226.644531 C 133.886719 225.820312 153.785156 219.480469 156.96875 218.984375 C 158.761719 218.863281 160.617188 219.207031 162.363281 218.613281 C 165.140625 218.613281 167.792969 217.605469 170.570312 217.605469 C 173.621094 213.652344 177.429688 210.402344 182.429688 204.082031 C 208.242188 189.734375 189.617188 194.367188 218.304688 189.445312 C 220.871094 188.820312 223.617188 188.421875 226.199219 189.175781 C 226.203125 189.175781 234.421875 189.789062 234.421875 189.789062 C 237.175781 190.65625 240.046875 189.839844 242.839844 189.699219 C 244.488281 186.585938 251.867188 181.402344 255.074219 178.3125 C 283.976562 164.074219 278.34375 166.402344 313.816406 166.679688 C 315.058594 167.207031 316.304688 167.742188 317.617188 168.105469 C 318.648438 165.710938 332.226562 146.46875 333.699219 146.101562 C 337.148438 145.097656 340.722656 144.496094 344.09375 143.203125 M 354.628906 147.527344 C 352.277344 148.0625 349.917969 148.59375 347.597656 149.265625 C 346.15625 149.175781 344.753906 149.578125 343.488281 150.21875 C 340.242188 150.863281 327.671875 169.125 327.390625 170.785156 C 327.054688 170.273438 325.820312 170.164062 325.691406 170.855469 C 325.980469 171.304688 326.816406 171.71875 327.277344 171.320312 C 329.503906 172.304688 331.867188 172.949219 334.09375 173.945312 C 335.535156 174.496094 337.167969 175.433594 338.699219 174.613281 C 338.699219 174.613281 358.921875 167.246094 363.214844 165.421875 C 363.53125 165.277344 385.082031 161.175781 410.628906 166.492188 C 415.554688 166.824219 430.816406 166.222656 437.257812 166.867188 C 436.34375 167.238281 435.417969 167.535156 434.5 167.863281 C 432.917969 167.847656 431.371094 168.199219 429.847656 168.597656 C 401.1875 176.546875 400.847656 173.148438 388.113281 172.867188 C 385.445312 171.476562 382.355469 172.644531 379.519531 172.726562 C 362.929688 172.53125 360.167969 173.410156 339.152344 184.308594 C 339.140625 184.300781 312.765625 174.667969 312.277344 174.558594 C 310.203125 173.574219 283.503906 173.804688 282.261719 174.601562 C 278.675781 175.511719 275.527344 177.511719 272.207031 179.058594 C 265.242188 182.269531 266.679688 179.085938 260.125 186.046875 C 260.125 186.046875 249.929688 195.820312 249.929688 195.820312 C 249.929688 195.820312 221.003906 197.296875 214.339844 197.925781 C 194.121094 210.433594 199.941406 205.894531 187.863281 216.640625 C 185.320312 219.578125 181.5 221.308594 179.703125 224.875 C 171.074219 241.753906 173.792969 237.019531 168.914062 238.839844 C 167.652344 238.742188 166.3125 238.617188 165.183594 239.292969 C 164.863281 239.300781 150.992188 241.175781 150.503906 241.363281 C 127.140625 257.183594 112.074219 266.070312 102.34375 288.011719 C 103.289062 288.546875 104.242188 289.0625 105.191406 289.597656 C 82.585938 324.617188 58.589844 321.511719 55.3125 346.496094 C 54.519531 347.84375 54.476562 349.457031 55.328125 350.785156 C 55.769531 352.867188 56.347656 354.933594 57.070312 356.9375 C 57.070312 356.9375 78.386719 359.699219 78.386719 359.699219 C 79.21875 354.089844 79.65625 355.289062 79.847656 352.402344 C 80.402344 350.804688 80.589844 349.023438 81.667969 347.65625 C 83.296875 345.746094 91.585938 331.949219 93.085938 330.25 C 93.183594 330.132812 107.210938 318.914062 107.640625 318.664062 C 109.5 317.847656 111.566406 317.671875 113.5 317.0625 C 114.535156 317.078125 115.578125 317.066406 116.617188 317.054688 C 117.757812 312.949219 116.910156 303.347656 119.757812 297.4375 C 122.21875 295.140625 124.851562 290.253906 130.757812 282.800781 C 138.214844 276.972656 147.703125 267.449219 152.675781 264.386719 C 152.996094 264.234375 178.574219 252.121094 181.441406 251.15625 C 161.179688 267.800781 132.523438 279.625 127.726562 305.269531 L 127.753906 304.910156 C 127.402344 307.5625 127.625 310.261719 127.09375 312.898438 L 127.519531 312.917969 C 129.410156 313.902344 128.664062 313.171875 147.023438 316.015625 L 146.671875 316.007812 C 149.019531 316.246094 151.375 316.441406 153.738281 316.445312 C 158.597656 310.382812 161.96875 307.507812 162.421875 289.402344 C 163.570312 294.496094 163.363281 295.992188 164.425781 298.929688 C 164.824219 307.28125 166.953125 296.148438 164.105469 320.359375 C 186.828125 336.324219 155.640625 323.257812 210.59375 323.703125 C 210.59375 323.703125 218.183594 325.039062 234.90625 326.945312 C 242.949219 310.539062 240.6875 310.882812 243.285156 304.808594 C 243.34375 305.105469 243.296875 320.640625 243.292969 320.941406 C 243.257812 327.226562 252.527344 344.535156 253.515625 348.429688 C 253.867188 351.152344 253.882812 353.96875 254.863281 356.566406 C 256.417969 381.320312 271.355469 398.054688 272.785156 400.242188 C 246.371094 385.414062 253.65625 344.980469 234.011719 337.421875 C 221.972656 333.347656 235.601562 333.84375 189.308594 333.921875 C 185.757812 333.828125 183.171875 337.054688 175.121094 341.808594 C 172.902344 342.988281 163.738281 367.355469 163.6875 368.042969 C 160.785156 391.167969 160.378906 386.339844 162.097656 390.261719 C 163.488281 392.800781 163.929688 395.851562 165.804688 398.125 C 165.0625 398.835938 166.371094 400.15625 167.09375 399.429688 C 172.828125 405.363281 199.6875 412.136719 212.820312 428.308594 C 193.441406 423.460938 166.953125 410.957031 166.585938 410.601562 C 153.46875 398.230469 159.296875 406.796875 153.4375 396.359375 C 153.144531 394.550781 150.105469 386.570312 149.117188 384.679688 C 149.082031 384.117188 149.042969 383.558594 149.011719 383 C 140.089844 382.847656 127.976562 382.941406 127.976562 382.941406 C 130.042969 381.8125 144.53125 376.558594 148.636719 375.570312 C 148.636719 375.570312 156.886719 349.867188 156.886719 349.863281 C 157.589844 348.925781 157.882812 347.785156 157.9375 346.632812 C 158.082031 346.316406 162.507812 338.375 163.621094 336.875 C 158.390625 330.769531 158.109375 329.121094 156.371094 328.648438 C 139.753906 323.710938 138.835938 320.230469 124.109375 323.925781 C 122.246094 323.890625 115.75 324.671875 113.417969 325.773438 C 105.667969 332.90625 95.023438 341.820312 94.464844 343.59375 C 91.800781 352.039062 85.648438 366.316406 83.789062 373.558594 C 82.714844 375.335938 82.980469 395.886719 83.730469 397.394531 C 84.640625 402.609375 86.425781 407.625 87.757812 412.742188 C 88.238281 415.21875 90.652344 416.40625 92.554688 417.6875 C 95.613281 419.585938 98.296875 422.023438 101.292969 424.011719 C 110.503906 425.125 114.335938 423.457031 123.488281 420.75 C 138.542969 466.484375 134.027344 450.625 147 471.4375 C 166.964844 483.875 206.121094 490.933594 215.8125 469.382812 C 216.042969 467.554688 216.421875 465.191406 214.890625 463.824219 C 206.703125 455.535156 207.996094 453.289062 180.605469 447.175781 C 178.59375 446.515625 178.71875 446.867188 166.671875 446.75 C 164.84375 446.683594 164.285156 447.21875 158.265625 448.640625 C 155.640625 449.261719 152.945312 449.453125 150.300781 449.925781 C 153.015625 448.480469 154.929688 445.855469 157.738281 444.597656 C 177.671875 439.195312 182.339844 442.425781 193.75 442.386719 C 206.1875 442.675781 232.058594 466.070312 236.132812 466.429688 C 238.425781 467.378906 246.183594 467.824219 246.5 467.820312 C 247.203125 468.089844 248.003906 468.171875 248.695312 467.789062 C 258.28125 466.9375 256.464844 466.507812 259.257812 460.949219 C 260.019531 459.730469 259.351562 458.300781 259.027344 457.058594 C 259.308594 452.71875 254.242188 449.71875 252.050781 446.617188 C 221.617188 412.050781 230.953125 423.421875 226.839844 415.523438 C 197.507812 357.4375 213.523438 385.015625 207.304688 369.890625 C 206.984375 369.253906 206.652344 368.78125 195.925781 363.960938 C 200.5 364.128906 204.613281 366.503906 209.121094 366.960938 C 212.476562 362.84375 214.851562 353.726562 218.242188 350.222656 C 216.648438 364.9375 213.910156 372.574219 223.359375 393.1875 C 223.625 394.960938 224.257812 396.65625 225.1875 398.191406 C 226.988281 408.359375 231.40625 410.996094 241.1875 425.574219 C 242.101562 426.859375 261.847656 442.734375 262.128906 442.859375 C 288.492188 445.667969 271.941406 444.753906 285.847656 441.902344 C 286.960938 441.558594 288.285156 441.625 289.148438 440.726562 C 294.300781 435.785156 293.605469 436.042969 293.578125 430.902344 C 292.464844 420.28125 295.800781 428.242188 288.75 402.917969 C 288.40625 400.574219 291.113281 390.628906 291.859375 383.933594 C 293.777344 381.097656 307.316406 360.023438 308.714844 357.5 C 314.789062 337.382812 319.648438 318.445312 301.46875 308.085938 C 287.921875 301.730469 293.316406 301.972656 271.882812 302.257812 C 265.773438 291.683594 253.546875 277.230469 253.234375 276.914062 C 251.855469 276.558594 236.621094 273.914062 233.46875 275.992188 C 219.160156 285.839844 222.4375 279.804688 218.285156 293.183594 C 217.523438 295.492188 216.71875 297.796875 216.148438 300.171875 C 215.492188 296.335938 217.515625 285.03125 217.308594 281.898438 C 217.667969 280.871094 217.753906 279.648438 218.660156 278.910156 C 222.238281 275.816406 229.644531 270.828125 231.828125 268.089844 C 235.574219 267.128906 243.867188 269.980469 249.597656 270.070312 C 251.675781 270.738281 253.90625 270.585938 256.019531 271.109375 C 258.828125 272.761719 261.082031 275.171875 263.546875 277.28125 C 278.425781 288.289062 262.753906 286.238281 313.0625 301.394531 C 316.109375 302.378906 316.011719 304.417969 320.816406 307.988281 C 327.816406 299.539062 338.554688 284.214844 357.914062 284.042969 C 356.941406 282.144531 358.304688 280.046875 358.332031 278.0625 C 359.210938 275.582031 359.707031 272.988281 360.089844 270.390625 C 360.855469 268.636719 361.425781 266.8125 362.238281 265.082031 C 377.101562 238.398438 366.089844 252.445312 377.601562 239.675781 C 382.398438 235.019531 386.90625 230.0625 391.9375 225.648438 C 373.199219 253.070312 373.652344 258.933594 367.230469 283.5625 C 369.265625 283.304688 371.324219 283.421875 373.371094 283.359375 C 371.183594 284 369.023438 284.707031 366.804688 285.207031 C 366.714844 285.6875 366.632812 286.167969 366.550781 286.652344 C 365.921875 286.554688 365.296875 286.449219 364.671875 286.394531 C 364.6875 285.472656 362.527344 285.398438 362.40625 286.246094 C 361.570312 286.214844 360.738281 286.363281 359.972656 286.667969 C 357.207031 286.894531 348.117188 289.296875 345.75 290.316406 C 333.183594 300.570312 333.109375 305.789062 324.730469 318.425781 C 324.253906 319.136719 324.398438 318.46875 324.414062 335.578125 C 324.496094 337.8125 319.667969 350.800781 319.089844 352.296875 C 314.773438 362.867188 322.730469 349.195312 305.085938 374.21875 C 303.832031 376.070312 301.992188 377.539062 301.261719 379.714844 C 299.984375 382.945312 297.796875 385.851562 297.210938 389.324219 C 297.199219 389.640625 296.71875 404.480469 297.808594 406.535156 C 299.804688 419.445312 301.34375 420.007812 303.351562 422.820312 C 304.753906 424.367188 305.65625 426.40625 307.417969 427.601562 C 317.421875 428.332031 317.632812 427.28125 318.75 426.019531 C 320.183594 424.347656 321.914062 422.945312 323.203125 421.152344 C 325.824219 417.816406 329.640625 410.625 331.148438 409.148438 C 331.464844 408.851562 342.355469 400.667969 344.324219 399.710938 C 363.703125 390.019531 359.40625 384.535156 370.789062 360.554688 C 380.195312 342.941406 380.273438 333.570312 405.042969 307.949219 C 403.542969 311.699219 400.738281 314.695312 399.015625 318.320312 C 397.035156 320.464844 385.242188 340.988281 383.230469 343.308594 C 377.878906 355.613281 371.050781 387.703125 356.1875 402.71875 C 350.660156 405.242188 345.15625 407.816406 339.804688 410.691406 C 339.804688 410.691406 334.898438 418.671875 334.898438 418.671875 L 334.898438 418.269531 C 334.640625 421.214844 334.691406 424.199219 334.863281 427.144531 L 334.863281 426.757812 C 335.695312 427.734375 336.660156 428.601562 337.542969 429.539062 C 354.21875 428.429688 331.8125 432.683594 373.136719 420.097656 C 378.339844 418.59375 396.214844 407.761719 401.3125 405.714844 C 401.378906 405.652344 411.777344 394.175781 412.207031 393.539062 C 412.648438 392.90625 422.414062 374.851562 423.957031 373.492188 C 421.976562 379.953125 412.582031 405.757812 412.582031 405.757812 L 412.445312 405.355469 C 412.515625 408.449219 408.90625 407.050781 430.867188 410.097656 C 431.234375 409.890625 431.589844 409.648438 431.9375 409.386719 C 437.21875 402.628906 447.414062 398.277344 450.753906 390.410156 C 463.390625 370.394531 472.316406 343.121094 476.257812 320.039062 C 476.554688 319.167969 485.660156 308.40625 487.734375 306.339844 C 495.027344 302.460938 532.972656 282.074219 538.324219 275.808594 C 548.558594 259.175781 544.789062 248.164062 546.648438 242.988281 C 546.566406 242.832031 546.40625 242.523438 546.328125 242.367188 C 545.386719 236.351562 545.5625 231.054688 544.792969 228.609375 C 544.847656 228.242188 544.949219 227.507812 545.003906 227.136719 C 546.222656 229.90625 551.488281 257.953125 551.566406 258.277344 C 552.242188 258.082031 583.378906 255.003906 589.78125 256.542969 C 589.78125 256.542969 616.347656 258.808594 616.347656 258.808594 C 616.34375 259.707031 618.035156 259.519531 618.664062 259.265625 C 619.40625 259.691406 637.800781 264.28125 638.117188 264.332031 L 638.066406 264.679688 C 638.273438 264.664062 638.675781 264.640625 638.878906 264.625 C 639.050781 242.714844 632.6875 236.3125 631.914062 228.921875 C 631.988281 229.015625 640.574219 242.386719 644.550781 247.929688 C 644.832031 252.386719 647.539062 263.351562 648.109375 264.71875 C 657.535156 274.171875 665.804688 280.660156 666.914062 282.605469 C 666.632812 283.050781 667.070312 283.652344 667.398438 283.980469 C 667.867188 283.992188 668.15625 283.214844 667.980469 282.832031 L 668.308594 282.917969 C 669.582031 279.996094 671.84375 277.421875 672.523438 274.300781 C 673.488281 274.191406 673.128906 272.320312 672.988281 271.566406 C 673.707031 269.515625 673.945312 267.25 674.308594 265.089844 L 674.808594 265.085938 C 674.773438 261.535156 674.875 257.984375 674.765625 254.4375 L 674.863281 254.125 C 674.996094 254.738281 680.667969 269.398438 681.324219 270.957031 C 681.640625 271.121094 693.921875 275 695.257812 274.761719 C 695.152344 275.589844 696.667969 275.613281 697.148438 275.195312 C 697.148438 275.195312 699.371094 275.824219 708.820312 280.765625 C 709.789062 281.230469 710.734375 281.941406 711.875 281.828125 C 692.476562 255.128906 689.941406 253.761719 649.285156 229.820312 C 637.964844 227.867188 643.996094 224.230469 608.488281 222.941406 C 609.160156 222.652344 609.863281 222.425781 610.554688 222.164062 C 612.570312 222.054688 626.007812 220.675781 631.074219 219.277344 C 631.832031 219.511719 633.71875 219.875 633.941406 218.929688 C 637.410156 219.886719 638.710938 221.308594 643.144531 222.507812 C 643.144531 222.507812 636.285156 216.855469 632.289062 213.148438 C 628.433594 210.472656 627.332031 206.585938 617.617188 206.546875 L 617.601562 206.175781 C 614.9375 206.082031 612.359375 205.285156 609.707031 205.101562 C 608.828125 204.644531 607.8125 204.757812 606.871094 204.824219 C 606.828125 203.960938 605.171875 204.144531 604.578125 204.40625 C 604.433594 204.28125 604.136719 204.03125 603.988281 203.90625 C 603.195312 203.910156 602.414062 203.925781 601.644531 203.914062 L 601.640625 203.515625 C 595.40625 203.113281 589.339844 200.839844 583.054688 201.265625 C 579.960938 202.023438 562.199219 205.082031 558.183594 205.261719 L 558.167969 205.679688 C 557.25 205.707031 556.285156 205.585938 555.445312 206 C 552.074219 206.207031 542.292969 207.9375 542.222656 207.9375 L 542.21875 208.378906 C 541.902344 208.386719 517.160156 218.414062 494.714844 234.410156 C 494.398438 234.6875 487.140625 250.898438 485.992188 254.074219 C 485.300781 256.316406 482.578125 256.890625 481.589844 258.878906 C 479.710938 259.839844 470.894531 266.835938 469.511719 268.75 C 466.03125 270.65625 446.757812 283.121094 446.757812 283.121094 C 446.441406 283.269531 421.871094 296.128906 420.8125 297.050781 C 419.855469 297.304688 418.914062 297.605469 417.964844 297.851562 C 421.378906 294.863281 448.644531 274.777344 452.527344 272.039062 C 465.917969 261.683594 452.929688 273.722656 480.726562 246.136719 C 481.476562 245.386719 482.203125 244.570312 482.527344 243.535156 C 488.351562 227.980469 488.707031 236.65625 490.625 215.300781 C 491.5625 219.125 492.070312 223.046875 492.765625 226.921875 C 496.960938 224.785156 510.207031 213.78125 521.039062 205.421875 C 523.011719 205.117188 530.730469 202.816406 531.132812 202.660156 C 532.40625 202.554688 533.675781 202.277344 534.828125 201.703125 C 535.980469 201.527344 537.140625 201.316406 538.238281 200.886719 C 539.5 200.769531 540.757812 200.492188 541.921875 199.945312 C 542.933594 199.800781 543.933594 199.542969 544.878906 199.132812 C 546.144531 199.015625 547.40625 198.726562 548.5625 198.167969 C 554.207031 197.125 559.699219 195.367188 565.199219 193.746094 C 566.492188 194.578125 565.765625 192.019531 564.917969 193.109375 C 564.316406 191.757812 563.109375 190.820312 562.058594 189.832031 C 531.824219 165.246094 573.132812 188.542969 475.90625 163.378906 C 470.824219 162.414062 465.90625 160.710938 460.78125 159.953125 C 459.253906 159.265625 451.714844 157.445312 449.136719 157.207031 C 448.125 156.800781 427.089844 157.859375 425.550781 158.074219 C 397.195312 161.664062 399.203125 154.46875 384.398438 151.113281 C 381.792969 149.71875 359.890625 147.492188 359.574219 147.457031 C 357.988281 146.765625 356.242188 147.21875 354.628906 147.527344 M 322.859375 169.800781 C 322.960938 171.222656 324.242188 169.121094 322.859375 169.800781 M 324.074219 170.238281 C 324.140625 171.699219 325.390625 169.566406 324.074219 170.238281 M 643.410156 222.605469 C 643.679688 222.886719 643.679688 222.886719 643.410156 222.605469 M 142.167969 232.582031 C 134.097656 236.445312 126.257812 240.808594 118.03125 244.335938 C 117.328125 244.617188 75.183594 281.46875 74.867188 281.785156 C 73.941406 282.191406 73.207031 282.886719 72.605469 283.679688 C 65.757812 288.265625 66.605469 288.257812 64.644531 292.507812 C 61.992188 299.328125 60.265625 297.425781 61.367188 308.121094 C 94.386719 297.800781 88.925781 300.992188 95.410156 287.363281 C 101.363281 272.625 118.015625 252.917969 118.332031 252.644531 C 137.757812 239.476562 142.308594 238.496094 157.027344 231.554688 C 145.152344 230.957031 144.191406 231.742188 142.167969 232.582031 M 584.699219 261.863281 C 579.878906 262.316406 575.101562 263.125 570.265625 263.421875 C 568.574219 263.992188 566.648438 263.332031 565.070312 264.171875 C 557.335938 264.160156 557.925781 264.640625 546.871094 278.144531 C 525.03125 293.996094 541.21875 285.527344 513.226562 297.699219 C 504.53125 301.042969 511.554688 297.792969 494.492188 310.890625 C 486.820312 318.246094 492.101562 310.121094 482.070312 329.507812 C 481.042969 331.363281 480.628906 333.476562 479.589844 335.324219 L 479.671875 334.929688 C 475.378906 345.789062 475.15625 367.75 453.054688 409.632812 C 455.011719 409.816406 476.460938 406.175781 485.917969 400.75 C 486.558594 400.417969 503.875 391.789062 504.421875 391.328125 C 506.90625 389.34375 513.945312 384.542969 514.851562 384.121094 C 514.429688 385.234375 502.070312 398.558594 501.203125 399.652344 C 499.082031 401.179688 489.625 404.539062 487.152344 406.617188 C 486.609375 406.222656 485.960938 406.921875 485.683594 407.335938 C 485.296875 407.976562 486.394531 408.121094 486.703125 407.730469 L 486.574219 408.035156 C 497.175781 410.472656 495.046875 412.226562 501.570312 411.71875 C 501.695312 412.566406 503.375 412.535156 503.964844 412.074219 C 507.84375 413.601562 563.976562 420.039062 576.859375 415.496094 C 581.367188 414.933594 595.585938 410.988281 596.988281 410.753906 C 601.09375 408.277344 604.652344 404.980469 608.820312 402.609375 C 610.488281 401.09375 614.066406 395.332031 615.78125 394.265625 C 615.636719 395.1875 615.40625 396.09375 615.335938 397.03125 C 614.816406 398.351562 614.632812 399.777344 614.394531 401.167969 C 613.925781 402.09375 613.566406 403.09375 613.53125 404.144531 C 612.960938 405.261719 612.628906 406.480469 612.675781 407.742188 C 612.042969 408.121094 594.265625 424.6875 584.179688 429.789062 C 635.632812 450.429688 646.476562 468.019531 658.140625 480.066406 C 657.621094 479.910156 657.105469 479.765625 656.605469 479.625 C 656.332031 478.902344 628.980469 456.148438 627.558594 456.183594 C 590.027344 435.050781 544.742188 424.101562 538.484375 421.355469 C 533.660156 420.769531 510.503906 415.671875 504.601562 414.859375 C 504.027344 414.742188 460.105469 412.753906 459.714844 412.945312 C 459.109375 412.410156 458.691406 412.515625 458.460938 413.238281 C 455.960938 412.960938 448.101562 414.234375 447.734375 414.375 C 446.488281 414.398438 437.804688 415.363281 436.941406 415.785156 C 435.488281 415.773438 413.4375 418.199219 412.992188 418.496094 C 402.882812 418.777344 356.398438 429.683594 342.515625 432.929688 C 258.335938 460.308594 248.734375 474.527344 211.792969 503.050781 C 203.367188 508.910156 205.179688 507.164062 187.324219 535.785156 C 185.140625 538.9375 181.765625 554.242188 181.492188 555.652344 C 180.726562 561.347656 182.582031 566.921875 182.835938 572.574219 C 182.851562 572.597656 188.304688 581.257812 188.328125 581.277344 C 198.238281 588.0625 197.988281 584.605469 209.921875 585.792969 C 207.765625 587.421875 203.074219 595.328125 200.292969 597.144531 C 201.5 598.777344 202.160156 600.769531 203.480469 602.3125 C 210.15625 615.84375 227.988281 628.195312 241.355469 635.109375 C 298.472656 649.457031 287.738281 648.050781 312.222656 641.757812 C 290.601562 624.210938 288.796875 623.796875 286.726562 621.050781 C 300.335938 628.308594 300.089844 633.132812 332.402344 636.335938 C 334.898438 636.980469 355.445312 632.558594 355.761719 632.386719 C 381.609375 623.792969 373.699219 627.007812 379.5625 628.15625 C 383.808594 629.921875 388.453125 630.546875 393.03125 630.394531 C 394.359375 631.3125 396.09375 630.753906 397.609375 630.972656 C 398.777344 631.480469 400.128906 631.476562 401.300781 630.976562 C 402.523438 630.855469 403.875 631.136719 404.976562 630.449219 C 415.78125 630.851562 415.691406 628.882812 435.519531 615.929688 C 440.375 617.339844 447.878906 620.5625 449.351562 620.65625 C 450.335938 621.34375 470.058594 622.566406 470.757812 622.554688 C 475.394531 620.871094 478.011719 620.773438 496.546875 613.5625 C 498.363281 612.738281 504.65625 612.945312 506.371094 612.347656 C 523.972656 611.476562 521.128906 611.429688 538.148438 606.375 C 556.953125 600.449219 545.339844 608.664062 566.84375 583.984375 C 566.875 584.226562 566.9375 584.710938 566.972656 584.957031 C 566.875 585.167969 565.703125 593.621094 565.300781 602.851562 C 567.929688 602.828125 570.460938 603.652344 573.066406 603.910156 C 578.464844 605.398438 582.390625 603.238281 589.570312 602.820312 C 610.25 595.441406 614.191406 590.761719 619.261719 585.082031 C 630.132812 572.53125 622.371094 587.554688 640.964844 558.007812 C 666.875 516.859375 656.546875 529.15625 666.03125 508.648438 C 665.699219 508.613281 635.179688 504.519531 631.851562 503.988281 C 630.019531 503.554688 559 498.234375 552.648438 502.753906 C 543.992188 502.746094 515.109375 508.148438 509.328125 508.660156 C 507.789062 508.519531 506.308594 507.945312 504.75 508.035156 C 503.644531 507.316406 502.273438 507.605469 501.042969 507.5 C 484.03125 503.777344 496.773438 509.230469 473.050781 497.40625 C 471.828125 496.554688 426.917969 501.179688 425.839844 501.84375 C 424.851562 501.839844 423.828125 501.796875 422.902344 502.167969 C 421.089844 502.433594 419.050781 501.757812 417.417969 502.75 C 412.664062 502.398438 384.53125 504.863281 370.449219 509.292969 C 325.539062 509.71875 290.191406 518.664062 254.03125 535.980469 C 239.738281 544.035156 256.613281 529.863281 229.828125 559.226562 C 228.222656 565.601562 226.683594 572.003906 224.894531 578.335938 C 224.566406 572.136719 224.859375 565.925781 224.671875 559.722656 C 223.453125 561.550781 214.285156 573.996094 212.246094 574.75 C 214.941406 571.246094 224.046875 556.957031 224.507812 556.027344 C 216.585938 555.332031 223.597656 558.105469 207.378906 549.394531 C 206.6875 547.082031 206.152344 544.566406 206.164062 542.109375 C 210.707031 543.238281 215.28125 544.289062 219.8125 545.417969 C 222.761719 545.191406 225.761719 544.753906 228.589844 543.949219 C 229.320312 544.179688 231.238281 544.445312 231.285156 543.4375 C 232.691406 543.191406 233.660156 541.90625 234.839844 541.167969 C 262.980469 521.140625 236.878906 535.4375 287.222656 515.09375 C 289.378906 514.628906 331.011719 503.683594 337.054688 501.671875 C 333.277344 494.175781 332.296875 494.117188 329.050781 477.058594 C 330.03125 474.027344 334.992188 464.390625 335.898438 463.054688 C 336.390625 468.84375 335.933594 474.671875 336.160156 480.46875 C 337.605469 483.402344 337.863281 486.753906 339.382812 489.660156 C 339.511719 489.773438 350.890625 497.375 352.328125 497.984375 C 355.210938 498.996094 369.875 500.167969 371.207031 499.753906 C 379.796875 497.792969 388.402344 495.867188 396.898438 493.53125 C 400.390625 492.875 431.21875 496.476562 436.015625 492.957031 C 438.828125 493.027344 468.285156 490.015625 470.3125 489.757812 C 471.464844 487.242188 475.339844 472.089844 475.421875 471.769531 C 480.1875 470.136719 484.679688 467.742188 489.496094 466.238281 C 487.132812 470.457031 483.925781 474.117188 481.203125 478.09375 C 480.878906 482.023438 480.320312 485.964844 479.269531 489.777344 C 495.882812 504.023438 502.535156 500.898438 532.472656 497.398438 C 594.695312 490.90625 630.375 496.515625 633.347656 496.5 C 633.707031 496.738281 655.574219 499.335938 659.242188 499.097656 L 659.230469 499.664062 C 660.703125 499.664062 662.179688 499.644531 663.65625 499.726562 C 664.339844 500.015625 665.097656 500.007812 665.84375 500.082031 C 665.722656 499.765625 662.664062 491.015625 662.429688 489.683594 C 665.808594 492.515625 667.570312 493.554688 671.277344 496.625 C 682.582031 485.425781 711.03125 477.253906 716.664062 472.785156 C 716.664062 472.785156 728.140625 447.054688 728.488281 446.402344 C 730.214844 446.367188 731.949219 446.355469 733.6875 446.386719 C 733.683594 446.398438 725.398438 474.785156 725.152344 475.433594 C 720.121094 478.292969 714.632812 480.203125 709.527344 482.929688 C 678.679688 498.027344 685.851562 494.101562 682.40625 499.257812 C 659.925781 534.972656 666.886719 522.441406 658.640625 553.085938 C 657.605469 557.945312 657.789062 554.238281 660.390625 562.804688 C 661.554688 564.886719 658.253906 564.425781 680.035156 564.394531 C 680.230469 564.609375 711.050781 592 711.835938 592.488281 C 735.632812 596.605469 724.804688 597.667969 733.082031 593.84375 C 738.214844 591.34375 763.523438 562.222656 763.058594 525.503906 C 765.699219 519.792969 759.972656 506.3125 758.839844 502.234375 C 751.039062 506.585938 743.527344 511.472656 735.410156 515.226562 C 760.535156 494.53125 750.894531 506.289062 761.777344 490.796875 C 762.9375 488.441406 762.617188 485.777344 762.640625 483.246094 C 762.882812 482.425781 763.089844 481.582031 763.125 480.726562 C 763.796875 478.816406 763.484375 476.765625 763.484375 474.785156 L 762.894531 474.816406 C 760.433594 459.792969 761.449219 475.5 759 450.425781 C 758.773438 447.210938 759.714844 444.050781 759.476562 440.835938 C 760.3125 439.261719 759.90625 437.4375 759.925781 435.742188 C 760.710938 432.542969 760.835938 433.425781 757.277344 429.820312 C 756.199219 427.980469 752.851562 425.082031 751.351562 425.15625 C 751.910156 424.019531 749.34375 423.972656 749.914062 425.109375 L 749.59375 425.082031 C 748.429688 426.839844 747.152344 428.535156 745.625 429.988281 C 737.078125 430.03125 728.535156 429.996094 719.992188 430.003906 L 720.078125 430.488281 L 719.691406 430.488281 C 717.417969 436.394531 709.535156 451.097656 708.585938 453.136719 C 708.265625 453.382812 687.074219 466.476562 686.179688 466.875 C 686.628906 466.046875 700.496094 451.007812 700.816406 450.707031 C 702.03125 448.679688 704.398438 447.480469 705.058594 445.121094 C 706.945312 440.132812 711.738281 430.5625 711.539062 428.601562 C 712.429688 428.601562 712.253906 426.914062 711.992188 426.308594 C 712.746094 425.289062 712 426.1875 713.339844 418.480469 C 711.867188 415.882812 703.277344 406.011719 701.238281 404.554688 L 701.609375 404.625 C 701.023438 404.445312 695.570312 402.941406 694.023438 402.871094 C 691.546875 402 688.914062 401.75 686.378906 401.128906 C 686.421875 398.535156 687.902344 396.203125 687.671875 392.792969 C 687.886719 392.664062 688.316406 392.40625 688.53125 392.277344 C 708.097656 403.550781 708.113281 396.910156 722.453125 417.945312 C 724.464844 418.304688 726.457031 418.78125 728.457031 419.230469 C 730.121094 418.890625 742.570312 414.65625 744.097656 411.96875 C 745.3125 410.113281 748.167969 409.496094 748.539062 407.121094 C 749.054688 405.699219 749.34375 394.511719 749.375 394.195312 C 749.96875 392.730469 749.691406 391.101562 749.738281 389.570312 C 750.523438 389.503906 750.523438 387.199219 749.757812 387.097656 C 749.742188 386.902344 749.710938 386.503906 749.699219 386.304688 C 739.789062 359.511719 739.597656 361.769531 736.871094 359.960938 C 731.472656 356.515625 726.703125 352.167969 721.296875 348.742188 C 713.425781 356.476562 690.648438 385.097656 689.957031 386.199219 C 687.746094 387.074219 685.394531 387.742188 683.1875 388.671875 C 682.054688 388.761719 680.96875 389.089844 679.972656 389.59375 C 678.046875 389.957031 676.320312 390.90625 674.484375 391.527344 C 673.886719 394.226562 672.640625 396.695312 671.414062 399.152344 C 671.082031 400.804688 671.1875 402.539062 671.332031 404.207031 C 672.066406 406.011719 672.675781 407.867188 673.078125 409.78125 C 673.019531 409.753906 661.257812 404.589844 661.101562 404.542969 C 660.90625 401.113281 661.085938 397.675781 661.03125 394.246094 C 661.347656 393.976562 668.585938 387.410156 669.5625 385.765625 C 670.285156 385.667969 671.066406 385.691406 671.746094 385.351562 C 686.242188 383.59375 685.496094 381.59375 695.085938 372.273438 C 697.898438 369.527344 699.15625 365.714844 701.253906 362.476562 C 708.683594 350.570312 707.925781 347.765625 711.570312 338.703125 C 710.980469 337.382812 710.636719 335.972656 710.605469 334.527344 L 710.410156 334.210938 C 707.664062 320.839844 710.324219 326.125 692.800781 311.808594 C 668.800781 302.859375 684.253906 299.070312 660.378906 306.054688 C 635.523438 323.472656 658 308.851562 634.824219 335.503906 C 616.265625 362.714844 630.148438 339.46875 617.585938 369.71875 C 616.871094 371.398438 619.585938 377.871094 619.722656 378.191406 C 619.796875 379.605469 620.101562 381.007812 620.644531 382.324219 C 620.652344 382.546875 620.671875 382.984375 620.679688 383.207031 C 619.265625 381.980469 612.367188 372.875 611.949219 371.796875 C 611.710938 367.726562 610.183594 363.773438 610.546875 359.671875 C 611.402344 358.476562 623.65625 335.128906 635.40625 323.683594 C 635.703125 323.027344 638.335938 314.539062 638.550781 313 C 639.507812 311.125 639.707031 308.984375 640.503906 307.050781 C 640.800781 305.652344 653.761719 299.90625 658.886719 296.480469 C 658.246094 295.414062 644.75 276.566406 642.746094 275.851562 C 642.429688 275.714844 625.25 268.007812 624.238281 267.308594 C 623.84375 267.027344 623.414062 266.902344 622.945312 266.941406 L 622.929688 266.402344 C 621.472656 266.398438 620.019531 266.421875 618.570312 266.316406 C 618.324219 266.222656 603.75 263.960938 600.328125 263.746094 L 600.320312 263.34375 C 596.324219 263.164062 592.410156 262.179688 588.417969 261.855469 C 587.253906 261.34375 585.855469 261.367188 584.699219 261.863281 M 676.242188 283.371094 C 674.285156 285.4375 672.078125 287.289062 670.28125 289.5 C 671.148438 291.636719 672.144531 293.777344 673.515625 295.652344 C 677.445312 295.519531 681.347656 296.128906 685.222656 296.71875 C 693.234375 302.082031 710.058594 311.835938 710.058594 311.835938 C 711.433594 313.554688 718.742188 325.941406 719.910156 328.097656 C 720.808594 332.5625 721.269531 337.125 721.90625 341.644531 C 722.097656 341.707031 722.484375 341.828125 722.671875 341.882812 L 722.726562 342.128906 C 726.96875 343.777344 730.648438 346.554688 734.898438 348.199219 C 737.933594 350.636719 741.117188 352.890625 744.195312 355.289062 C 745.105469 352.574219 745.300781 349.625 746.628906 347.0625 C 722.386719 298.40625 734.417969 319.667969 726.609375 309.476562 C 725.300781 307.597656 723.421875 306.199219 722.257812 304.214844 C 721.65625 303.726562 721.019531 303.289062 720.332031 302.96875 C 721.636719 307.207031 724.578125 316.21875 725.199219 320.734375 C 723.535156 318.710938 710.257812 293.933594 710.097656 293.613281 C 696.664062 281.414062 692.445312 282.761719 681.464844 278.308594 C 679.558594 279.8125 678.003906 281.707031 676.242188 283.371094 M 711.6875 282.015625 C 711.957031 282.292969 711.957031 282.292969 711.6875 282.015625 M 72.878906 311.09375 C 71.394531 311.023438 61.015625 314.019531 60.019531 314.464844 C 43.910156 321.722656 48.886719 319.050781 37.742188 332.117188 C 35.828125 334.351562 35.253906 333.449219 30.121094 343.109375 C 25.867188 351.035156 26.316406 348.25 26.207031 352.859375 C 26.3125 356.636719 24.882812 367.007812 29.40625 373.558594 C 51.328125 372.789062 41.976562 365.25 49.429688 360.957031 C 46.089844 354.207031 47.558594 354.039062 46.035156 347.585938 C 45.851562 346.574219 45.414062 345.414062 46.171875 344.53125 C 54.484375 331.667969 51.296875 331.382812 62.238281 322.917969 C 62.882812 322.433594 72.667969 313.335938 74.203125 311.480469 C 75.824219 311.058594 73.003906 309.851562 72.878906 311.09375 M 739.425781 318.960938 C 752.125 345.734375 760.726562 346.367188 751.085938 364.339844 C 758.761719 384.671875 755.929688 386.757812 758.960938 395.492188 C 759.03125 396.761719 758.945312 398.050781 759.324219 399.289062 L 759.421875 398.832031 C 759.289062 399.742188 759.546875 398.222656 757.394531 408.757812 C 757.761719 410.597656 761.804688 419.441406 764.078125 426.066406 L 764.308594 425.992188 C 764.617188 427.132812 765.007812 428.253906 765.511719 429.328125 C 765.738281 428.023438 765.957031 426.714844 766.09375 425.398438 C 766.734375 424.683594 770.058594 411.582031 770.578125 404.285156 L 770.089844 404.289062 C 770.300781 398.621094 767.359375 378.191406 766.464844 367.390625 L 766.253906 366.996094 C 765.136719 349.59375 761.980469 344.035156 753.8125 328.835938 C 750.425781 326.019531 742.304688 320.550781 740.8125 319.960938 C 740.898438 319.25 739.824219 319.292969 739.425781 318.960938 M 57.511719 366.519531 C 48.425781 370.03125 52.121094 368.941406 49.917969 378.886719 C 49.839844 379.207031 48.8125 403.664062 44.570312 410.320312 C 39.820312 417.976562 35.539062 429.460938 36.816406 438.773438 C 38.703125 450.507812 36.335938 444.003906 43.023438 453.027344 C 44.253906 454.8125 56.996094 464.679688 59.824219 465.511719 C 70.910156 469.402344 73.707031 471.257812 78.738281 472.738281 C 119.882812 484.707031 100.785156 483.140625 127.179688 483.140625 C 119.441406 476.964844 121.40625 475.089844 112.433594 471.867188 C 86.761719 464.140625 88.082031 466.027344 68.03125 451.519531 C 65.84375 449.457031 64.746094 446.578125 62.886719 444.261719 C 58.476562 437.4375 62.449219 446.820312 52.859375 425.097656 C 52.5 420.359375 53.949219 415.75 54.246094 411.054688 C 56.078125 409.222656 57.816406 407.292969 59.789062 405.609375 C 58.480469 418.375 54.121094 426.988281 72.070312 448.367188 C 78.570312 457.019531 126.820312 468.824219 132.003906 474.449219 C 150.003906 493.382812 173.992188 499.921875 199.871094 501.148438 C 205.355469 501.460938 201.96875 500.894531 209.640625 494.703125 C 209.640625 494.703125 220.492188 486.914062 220.492188 486.914062 C 224.671875 481.589844 225.746094 471.261719 225.996094 469.984375 C 224.4375 469.054688 222.90625 468.082031 221.335938 467.175781 C 220.082031 471.285156 219.128906 479.570312 216.667969 481.3125 C 206.28125 489.183594 209.492188 488.066406 205.074219 488.785156 C 203.140625 488.984375 188.222656 490.402344 184.878906 489.863281 C 159.070312 488.863281 165.019531 489.199219 155.242188 483.152344 C 140.960938 474.550781 144.925781 475.6875 139.160156 469.519531 C 137.882812 467.71875 136.039062 466.40625 134.800781 464.585938 C 133.550781 461.875 132.503906 459.070312 131.167969 456.398438 C 130.769531 456.441406 130.371094 456.480469 129.976562 456.527344 C 129.929688 456.394531 120.039062 431.839844 120.039062 431.839844 C 104.976562 430.121094 81.863281 432.929688 74.574219 388.308594 C 75.089844 381.113281 75.441406 373.902344 76.179688 366.722656 C 71.429688 368.425781 63.519531 364.351562 57.511719 366.519531 M 38.457031 379.726562 C 34.855469 381.777344 30.699219 382.671875 27.265625 385.035156 C 27.265625 385.035156 19.480469 398.980469 19.480469 398.980469 C 12.734375 412.691406 15.503906 410.066406 11.445312 419.683594 C 10.707031 421.429688 10.75 438.621094 11.34375 440.816406 C 13.058594 452.210938 11.089844 449.609375 18.164062 461.800781 C 17.871094 462.238281 18.371094 463.082031 18.921875 462.976562 C 19.289062 462.757812 19.707031 462.210938 19.46875 461.792969 C 21.296875 458.949219 21.5 455.777344 27.578125 450.078125 C 27.667969 423.402344 26.945312 435.332031 31.109375 421.714844 C 32.222656 417.320312 39.023438 405.328125 39.441406 404.746094 C 42.078125 400.910156 39.910156 404.527344 41.824219 379.371094 C 40.6875 379.34375 39.542969 379.375 38.457031 379.726562 M 776.820312 391.578125 C 776.652344 392.753906 776.675781 394.015625 777.445312 395 C 776.9375 398.21875 777.324219 401.503906 777.214844 404.75 L 777.671875 404.765625 C 777.921875 409.710938 775.808594 421.472656 772.371094 428.703125 C 769.460938 435.746094 766.890625 438.820312 767.128906 440.589844 C 772.597656 489.613281 771.949219 459.152344 768.070312 497.535156 C 767.796875 501.054688 766.160156 501.035156 770.925781 513.839844 C 771.375 528.742188 770.132812 536.273438 770.132812 536.273438 C 776.558594 526.320312 779.851562 500.519531 778.609375 497.375 C 778.367188 494.535156 779.117188 491.546875 778.132812 488.816406 C 778.015625 486.648438 778.339844 484.410156 777.710938 482.308594 C 777.667969 480.773438 777.984375 479.117188 777.183594 477.71875 C 777.425781 467 780.628906 428.179688 780.171875 420.691406 C 780.519531 420.144531 780.542969 419.324219 780.269531 418.757812 C 780.378906 418.628906 780.601562 418.367188 780.707031 418.238281 C 780.492188 417.632812 778.960938 399.253906 778.6875 398.90625 C 778.414062 397.710938 778.324219 396.410156 777.679688 395.351562 C 777.664062 394.042969 777.257812 392.785156 776.820312 391.578125 M 788.839844 423.683594 C 782.507812 448.128906 789.425781 497.992188 786.457031 507.507812 C 782.894531 526.566406 788.097656 526.414062 744.886719 594.976562 C 742.007812 599.484375 743.226562 599.445312 735.59375 603.082031 C 735.484375 605.957031 735.765625 608.847656 735.40625 611.707031 C 732.402344 625.636719 733.476562 628.472656 731.859375 630.269531 C 719.921875 643.136719 730.644531 638.203125 705.957031 643.40625 C 704.222656 643.800781 702.449219 643.734375 700.695312 643.753906 C 697.292969 641.980469 684.800781 644.503906 678.210938 639.875 C 676.726562 638.789062 663.933594 629.589844 659.488281 627.132812 C 656.429688 626.464844 653.277344 626.046875 650.144531 625.984375 C 648.574219 625.203125 646.789062 625.53125 645.113281 625.480469 C 612.40625 612.742188 640.675781 627.554688 609.238281 604.683594 C 603.933594 607.820312 598.234375 610.246094 592.796875 613.152344 C 597.933594 622.628906 589.445312 614.757812 607.359375 629.136719 C 609.949219 630.789062 612.820312 631.9375 615.535156 633.375 C 622.945312 636.710938 621.214844 638.382812 630.300781 638.449219 C 632.445312 639.222656 643.082031 639.007812 645.300781 639.515625 C 647.046875 639.78125 667.375 645.816406 679.984375 654.050781 C 681.074219 654.839844 698.488281 657.976562 699.910156 657.964844 C 701.550781 658.628906 703.464844 658.65625 705.101562 657.941406 C 737.535156 649.195312 723.304688 656.507812 745.648438 640.527344 C 748.546875 638.53125 751.183594 636.132812 754.300781 634.457031 C 752.121094 638.234375 748.898438 641.253906 746.277344 644.707031 C 742.027344 649.691406 743.71875 652.226562 718.097656 663.121094 C 724.316406 663.226562 730.554688 663.277344 736.769531 663.109375 C 758.191406 652.210938 762.640625 642.605469 767.789062 637.84375 C 768.066406 637.589844 783.167969 616.695312 783.828125 615.484375 C 784.742188 614.546875 785.964844 613.394531 785.527344 611.953125 C 786.71875 604.671875 787.171875 597.257812 788.765625 590.03125 C 777.65625 604.59375 767.089844 616.40625 767.089844 616.40625 C 769.359375 612.015625 782.28125 589.402344 786.398438 579.820312 L 786.96875 579.898438 C 786.96875 579.691406 786.992188 547.175781 787.03125 546.972656 C 789.964844 550.898438 791.089844 555.902344 794.242188 559.671875 C 795.1875 555.730469 801.109375 527.816406 801.195312 524.023438 C 801.101562 489.339844 801.429688 491 800.773438 489.261719 C 800.652344 481.996094 798.71875 468.835938 798.480469 468.414062 C 797.726562 445.292969 792.636719 434.410156 788.839844 423.683594 M 34.628906 460.628906 C 33.152344 464.203125 32.625 468.066406 31.492188 471.75 C 30.789062 473.320312 34.980469 484.382812 36.195312 486.457031 C 65.1875 505.011719 51.605469 485.632812 125.90625 506.753906 C 137.527344 511.0625 158.585938 528.316406 158.585938 528.316406 C 159.507812 529.386719 161.019531 528.953125 162.253906 529 C 163.214844 529.21875 164.207031 529.296875 165.195312 529.367188 C 170.53125 531.457031 176.53125 529.585938 181.699219 527.109375 C 181.292969 526.441406 169.828125 507.921875 167.4375 506.863281 C 167.253906 506.777344 134.542969 490.632812 134.347656 490.6875 C 106.039062 494.714844 111.042969 493.367188 104.753906 492.503906 C 103.484375 491.832031 102.050781 491.554688 100.625 491.550781 C 98.015625 490.570312 95.230469 490.25 92.558594 489.527344 C 69.050781 484.410156 69.613281 481.582031 56.28125 477.015625 C 45.492188 473.542969 45.03125 470.640625 43.109375 468.90625 C 40.265625 466.164062 37.597656 463.234375 34.628906 460.628906 M 22.785156 478.675781 C 22.699219 479.863281 22.347656 491.445312 23.054688 492.972656 C 28.960938 506.617188 25.550781 503.339844 31.453125 508.058594 C 40.542969 515.261719 41.125 515.351562 42.078125 515.582031 C 53.300781 518.277344 57.066406 522.1875 71.261719 523.257812 C 126.167969 530.699219 117.621094 534.75 165.5 552.113281 C 168.34375 552.261719 171.15625 551.507812 173.984375 551.285156 C 174.683594 547.667969 175.984375 544.175781 176.410156 540.503906 C 166.640625 540.382812 171.574219 545.914062 147.046875 527.6875 C 124.808594 510.832031 130.375 514.929688 110.191406 509.148438 C 100.894531 506.75 79.367188 502.96875 76.234375 503.066406 C 75.605469 502.847656 74.9375 502.738281 74.277344 502.6875 L 73.878906 502.371094 C 70.601562 501.703125 52.023438 502.828125 49.808594 501.714844 C 49.492188 501.566406 35.582031 494.929688 34.9375 494.367188 C 26.992188 487.332031 25.859375 487.617188 25.257812 485.894531 C 24.367188 483.511719 23.859375 480.988281 22.785156 478.675781 M 769.730469 536.539062 C 769.019531 537.851562 771.191406 536.625 769.730469 536.539062 M 615.976562 599.707031 C 631.132812 615.734375 628.789062 612.851562 641.097656 616.660156 C 650.964844 618.859375 639.410156 617.882812 662.78125 614.613281 C 665.78125 619.042969 669.699219 622.757812 672.75 627.152344 C 674.914062 630.472656 679.011719 631.425781 682.402344 633 C 689.132812 635.550781 689.371094 638.066406 697.429688 637.980469 L 697.421875 637.480469 C 699.433594 637.597656 712.246094 636.386719 712.878906 636.121094 C 716.835938 634.414062 720.847656 632.84375 724.792969 631.109375 C 726.4375 625.238281 726.738281 619.074219 728.316406 613.191406 C 727.0625 609.3125 724.773438 605.835938 723.734375 601.867188 C 702.824219 595.925781 708.832031 602.28125 701.027344 593.992188 C 700.214844 593.195312 685.296875 576.730469 684.324219 576.128906 C 678.355469 575.128906 675.179688 573.0625 656.992188 570.65625 C 654.851562 570.378906 652.734375 569.953125 650.640625 569.449219 C 649.84375 566.734375 649.210938 563.976562 648.523438 561.234375 C 644.558594 568.828125 616.207031 599.390625 615.976562 599.707031 Z M 615.976562 599.707031 " fill-opacity="1" fill-rule="nonzero"/></g><path fill="#ffffff" d="M 498.082031 193.9375 C 495.035156 194.429688 492.0625 193.421875 489.050781 193.207031 C 461.734375 189.527344 475.589844 190.746094 452.691406 195.480469 C 450.417969 196.042969 451.371094 194.511719 440.613281 207.855469 C 440.332031 215.429688 441.046875 221.714844 440.074219 224.101562 C 435.992188 234.09375 437.824219 234.164062 433.96875 237.515625 C 431.570312 239.488281 429.4375 241.839844 426.671875 243.316406 C 427.515625 238.425781 434.632812 228.289062 431.519531 218.820312 C 425.765625 206.796875 429.925781 209.496094 415.34375 200.863281 C 402.679688 193.085938 405.488281 196.628906 386.78125 194.34375 C 382.753906 193.5625 379.804688 196.859375 356.027344 207.828125 C 353.921875 206.109375 351.820312 204.320312 349.5 202.902344 C 318.957031 197.578125 303.582031 209.316406 289.246094 218.707031 C 282.960938 223.257812 270.351562 226.46875 257.085938 232.535156 C 255.84375 232.855469 231.269531 236.542969 228.507812 236.0625 C 216.457031 232.613281 215.019531 232.917969 209.207031 231.125 C 271.027344 229.644531 265.640625 221.1875 289.792969 209.507812 C 298.195312 204.933594 311.851562 197.054688 314.816406 196.570312 C 338.765625 192.195312 321.917969 188.574219 353.605469 192.636719 C 356.8125 193.074219 360.117188 194.5625 363.285156 193.066406 C 368.019531 191.441406 372.882812 190.011719 377.3125 187.621094 C 386.257812 184.980469 417.132812 189.160156 426.398438 191.644531 C 439.53125 195.0625 436.960938 167.550781 498.082031 193.9375 Z M 498.082031 193.9375 " fill-opacity="1" fill-rule="nonzero"/><path fill="#ffffff" d="M 344.464844 222.425781 C 336.15625 262.015625 339.90625 261.175781 342.695312 273.488281 C 332.085938 264.636719 333.957031 264.625 332.496094 250.441406 C 332.417969 249.949219 331.28125 234.519531 344.464844 222.425781 Z M 344.464844 222.425781 " fill-opacity="1" fill-rule="nonzero"/><path fill="#ffffff" d="M 619.621094 296.5 C 610.492188 302.3125 598.648438 308.328125 585.980469 318.5625 C 591.367188 321.910156 597.300781 324.253906 602.789062 327.421875 C 572.597656 323.359375 584.023438 322.808594 561.351562 327.210938 C 551.230469 329.449219 558.449219 324.210938 531.363281 345.5625 C 531.167969 345.878906 518.261719 365.449219 517.804688 365.960938 C 519.308594 355.3125 518.148438 357.976562 521.832031 350.203125 C 527.636719 338.773438 525.558594 342.890625 533.03125 336.132812 C 546.976562 324.550781 546.832031 325.21875 547.648438 323.707031 C 596.109375 315.6875 575.96875 306.242188 619.621094 296.5 Z M 619.621094 296.5 " fill-opacity="1" fill-rule="nonzero"/><path fill="#ffffff" d="M 629.160156 410.648438 C 631.230469 415.308594 633.160156 431.71875 635.914062 433.429688 C 635.914062 433.429688 648.761719 442.3125 648.761719 442.3125 C 649.867188 443.449219 659.214844 444.148438 668.15625 445.972656 C 670.777344 446.65625 674.875 444.351562 676.117188 443.914062 C 686.164062 439.859375 680.140625 443.769531 685.878906 437.097656 C 688.007812 434.339844 690.4375 431.785156 692.105469 428.699219 C 692.339844 428.125 692.890625 427.847656 693.386719 427.53125 C 693.304688 427.699219 690.046875 435.765625 686.523438 443.050781 C 682.839844 446.621094 676.066406 451.46875 674.976562 453.441406 C 674.976562 453.441406 657.824219 451.703125 657.824219 451.703125 C 657.507812 451.46875 639.222656 443.46875 637.242188 443.191406 C 631.976562 430.628906 627.734375 438.816406 629.160156 410.648438 Z M 629.160156 410.648438 " fill-opacity="1" fill-rule="nonzero"/><path fill="#ffffff" d="M 563.855469 444.734375 C 567.695312 446.308594 585.867188 451.136719 590.8125 452.367188 C 591.132812 452.519531 633.933594 473.265625 637.878906 475.546875 C 637.5625 475.464844 578.496094 453.695312 573.222656 453.136719 C 573.222656 453.136719 548.222656 452.046875 536.449219 451.785156 C 535.632812 451.746094 510.074219 454.78125 508.847656 454.875 C 510.9375 452.273438 514.078125 450.691406 515.875 447.8125 C 522.566406 447.84375 532.746094 442.9375 563.855469 444.734375 Z M 563.855469 444.734375 " fill-opacity="1" fill-rule="nonzero"/><path fill="#ffffff" d="M 401.15625 525.574219 C 401.15625 525.574219 425.386719 543.753906 425.390625 543.753906 C 459.066406 557.636719 450.308594 553.015625 463.484375 554.859375 C 472.191406 556.28125 475.269531 556.386719 491.226562 551.171875 C 494.203125 551.070312 488.539062 542.652344 487.117188 535.019531 C 490.308594 536.996094 489.847656 537.414062 506.070312 550.429688 C 509.957031 551.984375 523.195312 553.003906 532.269531 555.21875 C 538.730469 556.414062 540.855469 554.59375 564.746094 553.597656 C 630.320312 535.195312 603.257812 540.699219 632.417969 530.589844 C 632.101562 530.90625 609.195312 549.488281 606.714844 550.8125 C 606.402344 551 592.574219 559.023438 591.800781 559.832031 C 590.050781 563.960938 585.273438 572.910156 585.273438 572.910156 C 584.902344 568.886719 583.484375 559.976562 583.4375 559.664062 C 583.125 559.6875 544.898438 566.929688 521.867188 561.660156 C 521.550781 561.589844 498.429688 556.367188 495.753906 556.183594 C 490.042969 558.773438 482.328125 563.179688 481.066406 563.058594 C 455.027344 563.125 456.171875 563.144531 454.820312 562.652344 C 451.851562 561.699219 432.363281 557.289062 420.292969 551.046875 C 390.199219 567.476562 370.597656 564.832031 353.785156 564.8125 C 348.261719 563.667969 343.007812 561.453125 337.6875 559.613281 C 333.457031 556.714844 329.214844 553.789062 325.214844 550.570312 C 353.472656 558.4375 355.628906 563.347656 392.902344 555.125 C 395.164062 554.507812 397.578125 554.238281 399.605469 552.972656 C 404.460938 549.746094 409.902344 547.492188 414.535156 543.90625 C 410.257812 537.667969 405.441406 531.808594 401.15625 525.574219 Z M 401.15625 525.574219 " fill-opacity="1" fill-rule="nonzero"/><path fill="#ffffff" d="M 334.855469 572.382812 C 318.214844 584.097656 316.105469 583.234375 316.628906 584.621094 C 318.960938 586.304688 329.335938 591.570312 330.976562 592.496094 C 340.246094 594.597656 344.765625 599.085938 367.980469 599.347656 C 417.117188 599.191406 428.570312 590.660156 462.167969 580.960938 C 464.132812 580.558594 465.816406 579.164062 467.914062 579.414062 C 454.648438 585.808594 421.714844 600 396.710938 606.375 C 372.382812 608.378906 337.261719 610.34375 315.652344 598.953125 C 307.390625 594.8125 301.886719 587.417969 299.308594 587.90625 C 286.949219 590.179688 272.636719 590.765625 247.03125 609.238281 C 239.867188 613.648438 244.53125 610.957031 231.46875 613.472656 C 227.683594 612.722656 224.105469 611.207031 220.566406 609.714844 C 243.953125 608.261719 230.90625 611.980469 242.632812 605.714844 C 254.582031 598.828125 249.699219 599.359375 266.699219 588.105469 C 267.015625 587.917969 278.59375 580.914062 280.011719 580.59375 C 312.699219 573.371094 298.988281 574.546875 320.417969 573.074219 C 321.140625 572.917969 330.371094 572.152344 334.855469 572.382812 Z M 334.855469 572.382812 " fill-opacity="1" fill-rule="nonzero"/></svg>