<svg xmlns="http://www.w3.org/2000/svg" xmlns:xlink="http://www.w3.org/1999/xlink" width="1080" zoomAndPan="magnify" viewBox="0 0 810 809.999993" height="1080" preserveAspectRatio="xMidYMid meet" version="1.0"><defs><clipPath id="3b2196af1a"><path d="M 75 3 L 736.527344 3 L 736.527344 808 L 75 808 Z M 75 3 " clip-rule="nonzero"/></clipPath></defs><rect x="-81" width="972" fill="#ffffff" y="-80.999999" height="971.999992" fill-opacity="1"/><rect x="-81" width="972" fill="#ffffff" y="-80.999999" height="971.999992" fill-opacity="1"/><g clip-path="url(#3b2196af1a)"><path fill="#5b1880" d="M 159.929688 253.070312 C 159.363281 254.171875 158.695312 255.207031 157.921875 256.175781 C 157.148438 257.144531 156.285156 258.023438 155.339844 258.820312 C 154.390625 259.617188 153.371094 260.3125 152.285156 260.910156 C 151.199219 261.503906 150.066406 261.984375 148.882812 262.351562 C 147.332031 262.800781 145.746094 263.019531 144.132812 263.015625 C 141.289062 263.042969 138.636719 262.34375 136.175781 260.917969 C 117.28125 250.640625 100.15625 240.695312 83.691406 230.53125 C 82.171875 229.460938 80.851562 228.179688 79.738281 226.6875 C 78.625 225.195312 77.769531 223.566406 77.175781 221.804688 C 77 221.371094 76.78125 220.96875 76.511719 220.589844 L 75.738281 219.152344 L 75.738281 217.605469 C 75.714844 215.816406 75.921875 214.054688 76.355469 212.316406 C 76.789062 210.582031 77.4375 208.929688 78.296875 207.359375 C 79.160156 205.792969 80.207031 204.359375 81.4375 203.0625 C 82.671875 201.765625 84.050781 200.644531 85.570312 199.707031 C 86.820312 198.980469 88.140625 198.425781 89.535156 198.046875 C 90.925781 197.667969 92.34375 197.472656 93.789062 197.460938 C 95.230469 197.453125 96.652344 197.628906 98.050781 197.988281 C 99.449219 198.351562 100.777344 198.886719 102.035156 199.59375 C 120.375 209.539062 138.496094 220.257812 153.964844 229.425781 C 154.917969 230.027344 155.800781 230.710938 156.625 231.480469 C 157.445312 232.25 158.183594 233.089844 158.84375 234 C 159.503906 234.910156 160.074219 235.875 160.550781 236.890625 C 161.027344 237.910156 161.402344 238.964844 161.679688 240.054688 C 161.953125 241.148438 162.121094 242.253906 162.1875 243.375 C 162.25 244.5 162.207031 245.617188 162.058594 246.730469 C 161.910156 247.847656 161.65625 248.9375 161.296875 250.003906 C 160.941406 251.070312 160.484375 252.09375 159.929688 253.070312 Z M 415.9375 97.722656 L 416.378906 97.722656 C 418.691406 97.785156 420.929688 97.40625 423.09375 96.582031 C 425.253906 95.757812 427.179688 94.554688 428.863281 92.972656 C 429.808594 92 430.644531 90.941406 431.375 89.804688 C 432.109375 88.664062 432.722656 87.464844 433.214844 86.203125 C 433.707031 84.941406 434.070312 83.640625 434.304688 82.308594 C 434.542969 80.976562 434.644531 79.628906 434.609375 78.277344 C 434.71875 71.867188 434.71875 65.460938 434.71875 59.050781 L 434.609375 46.566406 L 434.609375 42.367188 C 434.609375 35.957031 434.71875 29.550781 434.609375 23.140625 C 434.644531 22.523438 434.648438 21.902344 434.621094 21.28125 C 434.59375 20.660156 434.535156 20.042969 434.445312 19.429688 C 434.351562 18.8125 434.230469 18.207031 434.078125 17.605469 C 433.925781 17 433.742188 16.410156 433.527344 15.824219 C 433.316406 15.242188 433.074219 14.671875 432.800781 14.113281 C 432.53125 13.554688 432.230469 13.011719 431.902344 12.484375 C 431.578125 11.953125 431.222656 11.445312 430.84375 10.953125 C 430.464844 10.460938 430.0625 9.988281 429.636719 9.539062 C 429.207031 9.085938 428.757812 8.660156 428.289062 8.253906 C 427.816406 7.847656 427.328125 7.46875 426.816406 7.113281 C 426.308594 6.757812 425.78125 6.429688 425.238281 6.128906 C 424.695312 5.828125 424.136719 5.554688 423.566406 5.308594 C 422.996094 5.066406 422.414062 4.851562 421.820312 4.664062 C 421.230469 4.480469 420.628906 4.324219 420.019531 4.203125 C 419.410156 4.078125 418.796875 3.984375 418.179688 3.921875 C 417.5625 3.863281 416.941406 3.832031 416.320312 3.835938 C 415.699219 3.835938 415.078125 3.871094 414.460938 3.933594 C 413.84375 4 413.230469 4.097656 412.625 4.222656 C 412.015625 4.351562 411.417969 4.511719 410.824219 4.699219 C 410.234375 4.886719 409.652344 5.105469 409.082031 5.355469 C 408.511719 5.601562 407.957031 5.878906 407.417969 6.183594 C 406.875 6.488281 406.351562 6.820312 405.84375 7.175781 C 405.335938 7.535156 404.847656 7.917969 404.378906 8.328125 C 403.910156 8.734375 403.464844 9.164062 403.039062 9.617188 C 402.617188 10.070312 402.214844 10.546875 401.839844 11.039062 C 401.464844 11.535156 401.113281 12.046875 400.789062 12.578125 C 400.464844 13.105469 400.171875 13.652344 399.902344 14.210938 C 399.632812 14.773438 399.394531 15.34375 399.183594 15.929688 C 398.976562 16.515625 398.796875 17.109375 398.648438 17.710938 C 398.496094 18.3125 398.378906 18.921875 398.292969 19.539062 C 398.207031 20.152344 398.148438 20.769531 398.125 21.390625 C 398.101562 22.011719 398.109375 22.632812 398.148438 23.253906 C 398.039062 41.59375 397.925781 59.824219 398.039062 78.167969 C 397.980469 78.785156 397.953125 79.40625 397.960938 80.03125 C 397.964844 80.652344 398.003906 81.273438 398.078125 81.890625 C 398.148438 82.511719 398.25 83.125 398.386719 83.730469 C 398.523438 84.339844 398.6875 84.9375 398.886719 85.53125 C 399.085938 86.121094 399.3125 86.699219 399.570312 87.265625 C 399.828125 87.832031 400.117188 88.382812 400.433594 88.917969 C 400.75 89.457031 401.09375 89.976562 401.460938 90.476562 C 401.832031 90.976562 402.226562 91.457031 402.648438 91.914062 C 403.070312 92.375 403.511719 92.8125 403.976562 93.222656 C 404.445312 93.636719 404.929688 94.023438 405.4375 94.386719 C 405.945312 94.75 406.46875 95.085938 407.007812 95.390625 C 407.550781 95.699219 408.105469 95.976562 408.675781 96.226562 C 409.25 96.476562 409.832031 96.695312 410.425781 96.882812 C 411.015625 97.074219 411.621094 97.230469 412.230469 97.355469 C 412.839844 97.480469 413.453125 97.574219 414.074219 97.636719 C 414.691406 97.699219 415.316406 97.726562 415.9375 97.722656 Z M 143.800781 489.851562 L 141.8125 490.074219 C 140.011719 490.179688 138.316406 490.660156 136.730469 491.511719 L 127.667969 496.703125 C 112.753906 505.210938 97.835938 513.71875 83.140625 522.558594 C 82.238281 523.175781 81.40625 523.875 80.636719 524.652344 C 79.867188 525.429688 79.179688 526.273438 78.570312 527.183594 C 77.960938 528.089844 77.445312 529.046875 77.019531 530.054688 C 76.589844 531.0625 76.261719 532.101562 76.035156 533.167969 C 75.804688 534.238281 75.679688 535.320312 75.65625 536.414062 C 75.632812 537.507812 75.710938 538.589844 75.894531 539.667969 C 76.078125 540.746094 76.359375 541.800781 76.742188 542.824219 C 77.125 543.847656 77.601562 544.828125 78.167969 545.761719 C 78.914062 547.191406 79.835938 548.492188 80.933594 549.671875 C 82.027344 550.851562 83.261719 551.867188 84.632812 552.710938 C 86.003906 553.558594 87.464844 554.207031 89.011719 554.660156 C 90.558594 555.109375 92.136719 555.347656 93.746094 555.375 C 96.453125 555.410156 98.992188 554.78125 101.371094 553.496094 C 118.277344 544.214844 135.625 534.269531 154.515625 522.890625 C 155.339844 522.375 156.109375 521.792969 156.824219 521.140625 C 157.542969 520.492188 158.199219 519.78125 158.796875 519.015625 C 159.390625 518.253906 159.914062 517.441406 160.363281 516.582031 C 160.816406 515.726562 161.191406 514.835938 161.488281 513.914062 C 161.78125 512.992188 161.996094 512.050781 162.125 511.089844 C 162.257812 510.128906 162.304688 509.164062 162.265625 508.195312 C 162.226562 507.226562 162.105469 506.269531 161.898438 505.324219 C 161.691406 504.378906 161.40625 503.457031 161.035156 502.558594 C 160.765625 501.636719 160.421875 500.742188 160.007812 499.878906 C 159.59375 499.011719 159.109375 498.183594 158.558594 497.398438 C 158.007812 496.609375 157.398438 495.875 156.726562 495.1875 C 156.054688 494.5 155.335938 493.871094 154.5625 493.300781 C 153.789062 492.730469 152.972656 492.226562 152.117188 491.789062 C 151.261719 491.351562 150.378906 490.984375 149.464844 490.691406 C 148.546875 490.398438 147.617188 490.183594 146.664062 490.042969 C 145.714844 489.902344 144.761719 489.839844 143.800781 489.851562 Z M 736.027344 216.167969 C 735.886719 214.460938 735.535156 212.796875 734.976562 211.175781 C 734.414062 209.554688 733.660156 208.03125 732.714844 206.601562 C 731.765625 205.171875 730.65625 203.882812 729.386719 202.734375 C 728.113281 201.585938 726.71875 200.613281 725.199219 199.816406 C 723.714844 199.089844 722.167969 198.558594 720.550781 198.21875 C 718.9375 197.882812 717.304688 197.746094 715.65625 197.8125 C 714.003906 197.882812 712.390625 198.148438 710.808594 198.621094 C 709.226562 199.089844 707.722656 199.746094 706.304688 200.589844 C 690.175781 209.648438 674.042969 219.042969 658.019531 228.542969 C 657.492188 228.832031 656.980469 229.148438 656.484375 229.488281 C 655.988281 229.828125 655.507812 230.191406 655.046875 230.582031 C 654.585938 230.96875 654.144531 231.378906 653.722656 231.808594 C 653.304688 232.238281 652.90625 232.691406 652.527344 233.160156 C 652.152344 233.632812 651.800781 234.117188 651.472656 234.625 C 651.144531 235.128906 650.84375 235.648438 650.566406 236.183594 C 650.289062 236.71875 650.039062 237.265625 649.816406 237.824219 C 649.59375 238.386719 649.398438 238.953125 649.234375 239.535156 C 649.066406 240.113281 648.929688 240.699219 648.820312 241.289062 C 648.710938 241.882812 648.632812 242.480469 648.582031 243.078125 C 648.53125 243.679688 648.511719 244.28125 648.523438 244.882812 C 648.53125 245.484375 648.570312 246.085938 648.640625 246.683594 C 648.707031 247.28125 648.804688 247.875 648.933594 248.464844 C 649.0625 249.054688 649.21875 249.636719 649.402344 250.207031 C 649.585938 250.78125 649.796875 251.34375 650.039062 251.898438 C 650.28125 252.449219 650.546875 252.988281 650.839844 253.515625 C 651.605469 254.929688 652.542969 256.21875 653.65625 257.382812 C 654.769531 258.542969 656.015625 259.539062 657.394531 260.363281 C 658.773438 261.191406 660.242188 261.820312 661.789062 262.25 C 663.339844 262.683594 664.921875 262.902344 666.527344 262.90625 C 669.933594 262.871094 673.101562 261.988281 676.03125 260.253906 C 692.050781 251.304688 709.066406 241.582031 725.53125 231.527344 C 728.628906 229.328125 731.097656 226.566406 732.933594 223.238281 C 733.597656 222.136719 734.257812 221.140625 734.921875 220.144531 L 736.359375 218.378906 Z M 725.53125 521.011719 C 709.511719 511.730469 693.453125 502.484375 677.355469 493.277344 C 676.1875 492.539062 674.953125 491.921875 673.65625 491.433594 C 672.363281 490.945312 671.03125 490.589844 669.664062 490.371094 C 668.296875 490.152344 666.917969 490.074219 665.535156 490.136719 C 664.152344 490.199219 662.789062 490.398438 661.445312 490.738281 C 660.320312 491.050781 659.238281 491.472656 658.195312 492.003906 C 657.15625 492.535156 656.179688 493.167969 655.269531 493.898438 C 654.355469 494.632812 653.527344 495.449219 652.78125 496.347656 C 652.035156 497.246094 651.390625 498.210938 650.839844 499.246094 C 650.542969 499.800781 650.273438 500.371094 650.035156 500.953125 C 649.796875 501.539062 649.585938 502.132812 649.40625 502.734375 C 649.230469 503.339844 649.082031 503.953125 648.960938 504.570312 C 648.84375 505.191406 648.757812 505.816406 648.703125 506.445312 C 648.648438 507.070312 648.625 507.699219 648.632812 508.332031 C 648.640625 508.960938 648.683594 509.589844 648.753906 510.21875 C 648.824219 510.84375 648.929688 511.464844 649.0625 512.082031 C 649.199219 512.695312 649.363281 513.304688 649.558594 513.902344 C 649.753906 514.503906 649.980469 515.089844 650.234375 515.667969 C 650.488281 516.246094 650.769531 516.808594 651.082031 517.355469 C 651.394531 517.90625 651.730469 518.4375 652.097656 518.949219 C 652.460938 519.464844 652.851562 519.957031 653.265625 520.433594 C 653.679688 520.910156 654.117188 521.363281 654.578125 521.792969 C 655.039062 522.222656 655.519531 522.628906 656.023438 523.011719 C 656.523438 523.394531 657.042969 523.75 657.578125 524.082031 C 658.117188 524.410156 658.667969 524.714844 659.238281 524.988281 C 674.59375 533.9375 690.0625 542.886719 705.644531 551.835938 C 707.695312 552.917969 709.832031 553.804688 712.050781 554.488281 L 714.59375 555.375 L 715.808594 555.375 C 716.832031 555.410156 717.855469 555.359375 718.871094 555.222656 C 719.890625 555.085938 720.886719 554.867188 721.867188 554.5625 C 722.847656 554.253906 723.792969 553.871094 724.707031 553.402344 C 725.621094 552.9375 726.488281 552.398438 727.3125 551.785156 C 728.136719 551.171875 728.902344 550.492188 729.609375 549.75 C 730.316406 549.007812 730.957031 548.210938 731.53125 547.359375 C 732.101562 546.507812 732.597656 545.613281 733.019531 544.675781 C 733.441406 543.742188 733.78125 542.777344 734.039062 541.785156 C 734.339844 540.8125 734.550781 539.824219 734.679688 538.816406 C 734.808594 537.808594 734.851562 536.796875 734.804688 535.78125 C 734.761719 534.765625 734.628906 533.765625 734.410156 532.773438 C 734.191406 531.78125 733.890625 530.8125 733.503906 529.875 C 733.121094 528.933594 732.65625 528.035156 732.117188 527.171875 C 731.578125 526.3125 730.96875 525.503906 730.289062 524.75 C 729.609375 523.996094 728.867188 523.304688 728.070312 522.675781 C 727.273438 522.046875 726.425781 521.492188 725.53125 521.011719 Z M 488.308594 712.710938 L 423.007812 712.710938 C 422.050781 712.710938 421.101562 712.804688 420.164062 712.988281 C 419.222656 713.175781 418.3125 713.453125 417.425781 713.820312 C 416.539062 714.183594 415.699219 714.632812 414.902344 715.167969 C 414.105469 715.699219 413.371094 716.304688 412.691406 716.980469 C 412.015625 717.65625 411.410156 718.394531 410.878906 719.191406 C 410.347656 719.988281 409.898438 720.828125 409.53125 721.714844 C 409.164062 722.597656 408.890625 723.511719 408.703125 724.449219 C 408.515625 725.390625 408.421875 726.339844 408.425781 727.296875 L 408.425781 793.148438 C 408.421875 794.105469 408.515625 795.054688 408.703125 795.996094 C 408.890625 796.933594 409.164062 797.847656 409.53125 798.730469 C 409.898438 799.617188 410.347656 800.457031 410.878906 801.253906 C 411.410156 802.050781 412.015625 802.789062 412.691406 803.464844 C 413.371094 804.140625 414.105469 804.746094 414.902344 805.277344 C 415.699219 805.808594 416.539062 806.257812 417.425781 806.625 C 418.3125 806.992188 419.222656 807.269531 420.164062 807.453125 C 421.101562 807.640625 422.050781 807.734375 423.007812 807.734375 L 488.308594 807.734375 C 489.261719 807.726562 490.207031 807.628906 491.140625 807.441406 C 492.074219 807.25 492.980469 806.96875 493.859375 806.601562 C 494.742188 806.230469 495.574219 805.78125 496.367188 805.246094 C 497.15625 804.714844 497.886719 804.109375 498.558594 803.433594 C 499.230469 802.753906 499.832031 802.019531 500.359375 801.226562 C 500.886719 800.429688 501.328125 799.589844 501.691406 798.710938 C 502.054688 797.828125 502.328125 796.917969 502.511719 795.984375 C 502.695312 795.046875 502.785156 794.101562 502.78125 793.148438 L 502.78125 727.296875 C 502.785156 726.34375 502.695312 725.398438 502.511719 724.460938 C 502.328125 723.527344 502.054688 722.617188 501.691406 721.734375 C 501.328125 720.851562 500.886719 720.015625 500.359375 719.21875 C 499.832031 718.425781 499.230469 717.6875 498.558594 717.011719 C 497.886719 716.335938 497.15625 715.730469 496.367188 715.199219 C 495.574219 714.664062 494.742188 714.214844 493.859375 713.84375 C 492.980469 713.476562 492.074219 713.195312 491.140625 713.003906 C 490.207031 712.816406 489.261719 712.714844 488.308594 712.710938 Z M 597.03125 424.882812 C 593.214844 434.882812 588.390625 444.371094 582.5625 453.347656 C 576.734375 462.324219 570.027344 470.585938 562.449219 478.140625 C 554.734375 485.617188 547.632812 493.636719 541.152344 502.207031 C 534.667969 510.773438 528.878906 519.78125 523.78125 529.238281 C 518.683594 538.695312 514.335938 548.484375 510.742188 558.609375 C 507.148438 568.734375 504.347656 579.070312 502.339844 589.625 C 497.589844 611.722656 495.710938 634.375 492.617188 656.804688 C 492.066406 660.449219 492.066406 663.984375 491.734375 667.851562 L 416.160156 667.851562 C 415.9375 663.324219 415.714844 658.792969 415.496094 654.59375 C 415.496094 654.261719 415.273438 653.929688 415.273438 653.597656 C 415.273438 653.269531 415.386719 653.046875 415.386719 652.714844 C 413.839844 623.324219 412.734375 601.335938 412.734375 590.066406 C 412.84375 587.507812 412.558594 584.988281 411.878906 582.519531 C 411.199219 580.046875 410.160156 577.738281 408.753906 575.59375 C 406.917969 573.304688 404.757812 571.378906 402.28125 569.804688 C 399.800781 568.234375 397.132812 567.109375 394.28125 566.421875 C 377.988281 561.035156 362.335938 554.183594 347.324219 545.871094 C 330.859375 537.140625 327.988281 536.699219 314.175781 549.40625 C 307.65625 555.375 300.917969 561.007812 294.949219 566.089844 C 292.851562 567.859375 290.75 569.625 288.875 571.285156 L 262.6875 548.414062 C 265.449219 545.097656 268.210938 541.894531 270.863281 538.800781 C 277.824219 530.625 284.453125 522.890625 291.414062 515.375 C 292.171875 514.566406 292.855469 513.699219 293.46875 512.777344 C 294.082031 511.855469 294.613281 510.890625 295.066406 509.878906 C 295.519531 508.867188 295.886719 507.824219 296.164062 506.753906 C 296.445312 505.683594 296.636719 504.59375 296.734375 503.492188 C 296.835938 502.386719 296.84375 501.285156 296.757812 500.179688 C 296.675781 499.074219 296.5 497.984375 296.234375 496.910156 C 295.972656 495.832031 295.621094 494.789062 295.179688 493.769531 C 294.742188 492.753906 294.222656 491.777344 293.625 490.847656 C 286.441406 474.824219 279.59375 457.699219 272.742188 438.476562 C 272.515625 437.4375 272.203125 436.425781 271.808594 435.441406 C 271.410156 434.457031 270.933594 433.511719 270.378906 432.609375 C 269.824219 431.703125 269.199219 430.851562 268.5 430.050781 C 267.804688 429.253906 267.042969 428.515625 266.222656 427.84375 C 265.402344 427.171875 264.527344 426.574219 263.605469 426.046875 C 262.683594 425.523438 261.726562 425.078125 260.730469 424.710938 C 259.730469 424.347656 258.710938 424.066406 257.667969 423.875 C 256.625 423.679688 255.574219 423.574219 254.511719 423.558594 C 240.480469 422.675781 228.65625 421.789062 216.835938 420.242188 C 213.960938 419.914062 209.652344 416.820312 209.542969 415.492188 C 208.910156 407.917969 208.726562 400.328125 208.988281 392.730469 C 209.101562 390.300781 209.101562 387.871094 209.101562 385.4375 L 222.691406 384.113281 C 233.847656 382.898438 244.457031 381.902344 254.953125 381.128906 C 256.007812 381.101562 257.050781 380.984375 258.082031 380.78125 C 259.117188 380.578125 260.125 380.289062 261.109375 379.914062 C 262.097656 379.542969 263.042969 379.089844 263.953125 378.554688 C 264.859375 378.023438 265.71875 377.417969 266.523438 376.738281 C 267.332031 376.0625 268.074219 375.324219 268.757812 374.519531 C 269.441406 373.71875 270.050781 372.863281 270.589844 371.957031 C 271.128906 371.050781 271.585938 370.109375 271.96875 369.125 C 272.347656 368.144531 272.640625 367.136719 272.851562 366.105469 C 279.703125 346.878906 286.332031 330.082031 293.292969 314.835938 C 293.878906 313.898438 294.386719 312.921875 294.816406 311.898438 C 295.242188 310.878906 295.582031 309.832031 295.839844 308.753906 C 296.09375 307.679688 296.257812 306.589844 296.335938 305.484375 C 296.414062 304.382812 296.398438 303.277344 296.292969 302.179688 C 296.191406 301.078125 295.996094 299.992188 295.714844 298.921875 C 295.433594 297.851562 295.066406 296.8125 294.613281 295.804688 C 294.160156 294.792969 293.628906 293.828125 293.019531 292.90625 C 292.40625 291.984375 291.726562 291.117188 290.972656 290.308594 C 284.011719 282.351562 277.273438 274.066406 270.863281 266.109375 C 268.324219 263.125 265.890625 260.144531 263.460938 257.269531 L 287.769531 232.851562 C 290.640625 235.171875 293.625 237.605469 296.496094 240.035156 C 304.121094 246.222656 311.855469 252.628906 319.367188 259.257812 C 320.203125 260.070312 321.101562 260.800781 322.0625 261.453125 C 323.027344 262.105469 324.039062 262.667969 325.101562 263.140625 C 326.164062 263.613281 327.261719 263.988281 328.390625 264.265625 C 329.519531 264.542969 330.664062 264.722656 331.824219 264.796875 C 332.984375 264.871094 334.144531 264.84375 335.300781 264.714844 C 336.453125 264.585938 337.589844 264.355469 338.703125 264.023438 C 339.820312 263.691406 340.898438 263.265625 341.9375 262.746094 C 342.976562 262.222656 343.960938 261.613281 344.890625 260.917969 C 361.539062 252.183594 378.664062 244.523438 396.269531 237.933594 C 397.40625 237.683594 398.511719 237.34375 399.585938 236.90625 C 400.664062 236.46875 401.695312 235.949219 402.683594 235.335938 C 403.671875 234.726562 404.601562 234.039062 405.476562 233.273438 C 406.347656 232.507812 407.152344 231.671875 407.882812 230.769531 C 408.613281 229.871094 409.265625 228.914062 409.835938 227.902344 C 410.410156 226.890625 410.890625 225.839844 411.285156 224.746094 C 411.679688 223.652344 411.980469 222.535156 412.1875 221.394531 C 412.390625 220.25 412.5 219.097656 412.511719 217.9375 C 412.953125 208.65625 413.949219 199.261719 414.832031 190.09375 L 415.828125 179.152344 L 415.9375 179.042969 C 536.925781 182.246094 644.652344 308.757812 597.03125 424.882812 Z M 415.054688 496.59375 C 414.832031 495.386719 414.722656 494.171875 414.722656 492.945312 L 414.722656 308.757812 C 413.378906 308.425781 412.089844 307.949219 410.855469 307.324219 C 408.152344 307.914062 405.480469 308.617188 402.835938 309.4375 C 400.195312 310.257812 397.59375 311.1875 395.03125 312.226562 C 392.46875 313.269531 389.953125 314.417969 387.488281 315.675781 C 385.023438 316.929688 382.617188 318.289062 380.269531 319.753906 C 377.921875 321.214844 375.640625 322.773438 373.425781 324.429688 C 371.210938 326.089844 369.070312 327.835938 367.003906 329.675781 C 364.9375 331.515625 362.953125 333.441406 361.054688 335.449219 C 359.152344 337.460938 357.339844 339.546875 355.617188 341.710938 C 353.894531 343.875 352.265625 346.109375 350.734375 348.414062 C 349.203125 350.714844 347.773438 353.082031 346.441406 355.507812 C 345.113281 357.933594 343.890625 360.410156 342.773438 362.941406 C 341.652344 365.472656 340.644531 368.042969 339.746094 370.660156 C 338.851562 373.277344 338.066406 375.925781 337.394531 378.609375 C 336.722656 381.292969 336.164062 384 335.726562 386.734375 C 335.285156 389.464844 334.960938 392.207031 334.757812 394.96875 C 334.550781 397.726562 334.464844 400.488281 334.496094 403.253906 C 334.523438 406.019531 334.671875 408.78125 334.941406 411.535156 C 335.207031 414.285156 335.589844 417.023438 336.089844 419.746094 C 336.589844 422.464844 337.207031 425.160156 337.9375 427.828125 C 338.667969 430.496094 339.511719 433.128906 340.464844 435.722656 C 341.421875 438.320312 342.484375 440.871094 343.660156 443.375 C 344.832031 445.878906 346.113281 448.332031 347.496094 450.726562 C 348.878906 453.121094 350.359375 455.453125 351.941406 457.722656 C 353.523438 459.992188 355.199219 462.191406 356.972656 464.316406 C 358.742188 466.441406 360.597656 468.488281 362.542969 470.453125 C 364.488281 472.421875 366.515625 474.300781 368.621094 476.097656 C 370.726562 477.890625 372.90625 479.589844 375.15625 481.199219 C 377.40625 482.804688 379.722656 484.316406 382.101562 485.726562 C 384.480469 487.136719 386.917969 488.441406 389.410156 489.640625 C 391.902344 490.84375 394.441406 491.9375 397.023438 492.921875 C 399.609375 493.90625 402.234375 494.777344 404.890625 495.539062 C 407.550781 496.300781 410.238281 496.945312 412.953125 497.476562 C 413.394531 497.367188 413.726562 497.035156 414.167969 496.925781 C 414.472656 496.832031 414.765625 496.722656 415.054688 496.59375 Z M 415.054688 496.59375 " fill-opacity="1" fill-rule="nonzero"/></g></svg>