<svg xmlns="http://www.w3.org/2000/svg" xmlns:xlink="http://www.w3.org/1999/xlink" width="1080" zoomAndPan="magnify" viewBox="0 0 810 809.999993" height="1080" preserveAspectRatio="xMidYMid meet" version="1.0"><rect x="-81" width="972" fill="#ffffff" y="-80.999999" height="971.999992" fill-opacity="1"/><rect x="-81" width="972" fill="#ffffff" y="-80.999999" height="971.999992" fill-opacity="1"/><path fill="#b5c224" d="M 202.5 641.25 C 202.5 650.542969 194.917969 658.125 185.625 658.125 L 101.25 658.125 L 101.25 624.375 L 168.75 624.375 L 168.75 540 L 202.5 540 Z M 185.625 438.75 C 83.253906 438.75 0 522.003906 0 624.375 C 0 726.746094 83.253906 810 185.625 810 C 287.996094 810 371.25 726.746094 371.25 624.375 C 371.25 522.003906 287.996094 438.75 185.625 438.75 " fill-opacity="1" fill-rule="nonzero"/><path fill="#b5c224" d="M 202.5 270 L 135 270 C 116.410156 270 101.25 285.160156 101.25 303.75 L 101.25 337.5 C 101.25 356.089844 116.410156 371.25 135 371.25 L 202.5 371.25 C 221.089844 371.25 236.25 356.089844 236.25 337.5 L 236.25 303.75 C 236.25 285.160156 221.089844 270 202.5 270 " fill-opacity="1" fill-rule="nonzero"/><path fill="#b5c224" d="M 371.25 270 L 303.75 270 C 285.160156 270 270 285.160156 270 303.75 L 270 337.5 C 270 356.089844 285.160156 371.25 303.75 371.25 L 371.25 371.25 C 389.839844 371.25 405 356.089844 405 337.5 L 405 303.75 C 405 285.160156 389.839844 270 371.25 270 " fill-opacity="1" fill-rule="nonzero"/><path fill="#b5c224" d="M 540 270 L 472.5 270 C 453.910156 270 438.75 285.160156 438.75 303.75 L 438.75 337.5 C 438.75 356.089844 453.910156 371.25 472.5 371.25 L 540 371.25 C 558.589844 371.25 573.75 356.089844 573.75 337.5 L 573.75 303.75 C 573.75 285.160156 558.589844 270 540 270 " fill-opacity="1" fill-rule="nonzero"/><path fill="#b5c224" d="M 708.75 270 L 641.25 270 C 622.660156 270 607.5 285.160156 607.5 303.75 L 607.5 337.5 C 607.5 356.089844 622.660156 371.25 641.25 371.25 L 708.75 371.25 C 727.339844 371.25 742.5 356.089844 742.5 337.5 L 742.5 303.75 C 742.5 285.160156 727.339844 270 708.75 270 " fill-opacity="1" fill-rule="nonzero"/><path fill="#b5c224" d="M 540 405 L 472.5 405 C 453.910156 405 438.75 420.160156 438.75 438.75 L 438.75 472.5 C 438.75 491.089844 453.910156 506.25 472.5 506.25 L 540 506.25 C 558.589844 506.25 573.75 491.089844 573.75 472.5 L 573.75 438.75 C 573.75 420.160156 558.589844 405 540 405 " fill-opacity="1" fill-rule="nonzero"/><path fill="#b5c224" d="M 708.75 405 L 641.25 405 C 622.660156 405 607.5 420.160156 607.5 438.75 L 607.5 472.5 C 607.5 491.089844 622.660156 506.25 641.25 506.25 L 708.75 506.25 C 727.339844 506.25 742.5 491.089844 742.5 472.5 L 742.5 438.75 C 742.5 420.160156 727.339844 405 708.75 405 " fill-opacity="1" fill-rule="nonzero"/><path fill="#b5c224" d="M 540 540 L 472.5 540 C 453.910156 540 438.75 555.160156 438.75 573.75 L 438.75 607.5 C 438.75 626.089844 453.910156 641.25 472.5 641.25 L 540 641.25 C 558.589844 641.25 573.75 626.089844 573.75 607.5 L 573.75 573.75 C 573.75 555.160156 558.589844 540 540 540 " fill-opacity="1" fill-rule="nonzero"/><path fill="#b5c224" d="M 708.75 540 L 641.25 540 C 622.660156 540 607.5 555.160156 607.5 573.75 L 607.5 607.5 C 607.5 626.089844 622.660156 641.25 641.25 641.25 L 708.75 641.25 C 727.339844 641.25 742.5 626.089844 742.5 607.5 L 742.5 573.75 C 742.5 555.160156 727.339844 540 708.75 540 " fill-opacity="1" fill-rule="nonzero"/><path fill="#b5c224" d="M 202.5 33.75 L 202.566406 84.375 L 168.75 84.375 L 168.75 33.75 Z M 675 33.75 L 675.066406 84.375 L 641.25 84.375 L 641.25 33.75 Z M 776.25 67.5 L 708.75 67.5 L 708.75 33.75 C 708.75 15.160156 693.589844 0 675 0 L 641.25 0 C 622.660156 0 607.5 15.160156 607.5 33.75 L 607.5 67.5 L 236.25 67.5 L 236.25 33.75 C 236.25 15.160156 221.089844 0 202.5 0 L 168.75 0 C 150.160156 0 135 15.160156 135 33.75 L 135 67.5 L 67.5 67.5 C 48.910156 67.5 33.75 82.660156 33.75 101.25 L 33.75 438.75 L 67.5 438.75 L 67.5 202.5 L 776.25 202.5 L 776.25 708.75 L 388.125 708.75 L 388.125 742.5 L 776.25 742.5 C 794.839844 742.5 810 727.339844 810 708.75 L 810 101.25 C 810 82.660156 794.839844 67.5 776.25 67.5 " fill-opacity="1" fill-rule="nonzero"/></svg>