<svg xmlns="http://www.w3.org/2000/svg" xmlns:xlink="http://www.w3.org/1999/xlink" width="1080" zoomAndPan="magnify" viewBox="0 0 810 809.999993" height="1080" preserveAspectRatio="xMidYMid meet" version="1.0"><defs><clipPath id="abdf11ddf8"><path d="M 507 275 L 806 275 L 806 649.480469 L 507 649.480469 Z M 507 275 " clip-rule="nonzero"/></clipPath></defs><rect x="-81" width="972" fill="#ffffff" y="-80.999999" height="971.999992" fill-opacity="1"/><rect x="-81" width="972" fill="#ffffff" y="-80.999999" height="971.999992" fill-opacity="1"/><path fill="#ffffff" d="M 286.339844 460.414062 C 282.585938 443.507812 285.089844 427.855469 288.21875 407.816406 C 297.613281 350.210938 249.398438 296.984375 199.304688 282.582031 C 184.277344 278.828125 165.492188 275.695312 146.082031 275.695312 C 88.472656 275.695312 24.605469 301.996094 6.445312 384.648438 C 2.0625 404.6875 4.566406 427.855469 12.707031 445.386719 C 22.101562 464.796875 35.25 479.199219 44.015625 498.609375 C 52.78125 516.769531 58.417969 540.5625 56.539062 560.601562 C 55.285156 571.246094 40.257812 602.554688 45.894531 611.945312 C 47.773438 615.078125 74.699219 616.328125 99.746094 623.21875 C 125.417969 630.105469 149.835938 643.253906 156.097656 648.890625 C 171.753906 623.84375 171.753906 606.9375 206.191406 597.542969 C 206.191406 597.542969 209.324219 596.917969 214.332031 596.917969 C 219.34375 596.917969 226.855469 597.542969 235.621094 600.675781 C 237.5 601.300781 239.378906 601.300781 241.257812 601.300781 C 248.773438 601.300781 258.789062 597.542969 263.171875 593.789062 C 275.070312 583.144531 259.417969 559.347656 276.949219 553.714844 C 275.695312 548.078125 272.566406 534.929688 280.078125 534.929688 C 280.707031 534.929688 281.957031 534.929688 282.585938 535.554688 C 278.828125 524.285156 278.828125 515.515625 282.585938 508.003906 C 285.714844 508.628906 288.847656 509.253906 291.976562 509.253906 C 296.988281 509.253906 300.742188 508.003906 301.996094 501.742188 C 303.25 493.601562 295.109375 482.957031 291.976562 476.070312 C 289.472656 471.058594 287.59375 465.421875 286.339844 460.414062 Z M 261.296875 497.984375 C 256.910156 506.75 254.40625 516.144531 255.035156 526.160156 C 251.277344 532.421875 250.023438 539.3125 250.648438 545.574219 C 242.511719 556.84375 243.136719 571.246094 243.761719 576.882812 C 243.761719 577.507812 243.761719 577.507812 243.761719 578.132812 C 243.136719 578.132812 243.136719 578.132812 242.511719 578.132812 C 233.117188 575.003906 223.726562 573.75 214.957031 573.75 C 207.445312 573.75 202.433594 575.003906 200.558594 575.628906 C 168.621094 584.394531 156.097656 600.675781 147.332031 616.328125 C 134.808594 610.066406 120.40625 605.058594 107.257812 601.300781 C 95.359375 598.171875 84.089844 596.292969 74.070312 594.414062 C 74.699219 591.910156 75.324219 590.03125 75.949219 588.152344 C 79.082031 579.386719 81.585938 571.871094 82.210938 564.984375 C 84.089844 541.191406 79.082031 514.265625 67.183594 489.84375 C 62.175781 478.574219 55.914062 469.179688 49.652344 460.414062 C 44.640625 452.273438 39.632812 444.761719 35.25 436.621094 C 28.988281 424.097656 27.109375 406.5625 30.867188 391.535156 C 47.773438 312.640625 110.390625 300.742188 146.082031 300.742188 C 161.734375 300.742188 178.015625 303.246094 193.042969 307.628906 C 233.117188 319.527344 271.3125 361.480469 264.425781 405.3125 L 263.800781 409.695312 C 260.667969 429.105469 257.539062 447.265625 262.546875 467.929688 C 264.425781 474.816406 266.929688 481.703125 270.0625 488.59375 C 266.304688 491.097656 263.800781 494.226562 261.296875 497.984375 Z M 261.296875 497.984375 " fill-opacity="1" fill-rule="nonzero"/><g clip-path="url(#abdf11ddf8)"><path fill="#ffffff" d="M 803.554688 385.273438 C 786.023438 301.996094 722.152344 275.695312 664.546875 275.695312 C 645.132812 275.695312 626.347656 278.828125 610.695312 283.210938 C 560.601562 297.613281 512.386719 350.835938 521.78125 408.441406 C 524.910156 427.855469 528.042969 444.132812 523.660156 461.039062 C 522.40625 466.050781 520.527344 471.058594 518.023438 476.695312 C 514.890625 483.582031 507.378906 494.226562 508.003906 502.367188 C 508.628906 508.003906 513.011719 509.882812 518.023438 509.882812 C 521.152344 509.882812 524.285156 509.253906 527.414062 508.628906 C 531.796875 516.144531 531.796875 524.910156 527.414062 536.179688 C 528.667969 536.179688 529.292969 535.554688 529.921875 535.554688 C 537.433594 535.554688 534.304688 548.703125 533.050781 554.339844 C 550.582031 559.347656 534.929688 583.144531 546.828125 594.414062 C 551.210938 598.796875 561.226562 601.929688 568.742188 601.929688 C 570.621094 601.929688 572.5 601.929688 574.378906 601.300781 C 583.144531 598.171875 590.65625 597.542969 595.667969 597.542969 C 600.675781 597.542969 603.808594 598.171875 603.808594 598.171875 C 637.621094 606.9375 638.246094 624.46875 653.902344 649.515625 C 660.164062 643.882812 684.582031 630.730469 710.253906 623.84375 C 735.300781 616.957031 762.226562 615.703125 764.105469 612.574219 C 769.742188 603.179688 754.085938 572.5 753.460938 561.226562 C 751.582031 540.5625 757.21875 517.394531 765.984375 499.238281 C 774.75 479.824219 787.898438 465.421875 797.292969 446.011719 C 806.058594 427.855469 807.9375 404.6875 803.554688 385.273438 Z M 775.375 434.742188 C 771.621094 442.882812 766.609375 450.394531 760.976562 458.535156 C 755.339844 467.300781 749.078125 476.695312 743.441406 487.964844 C 732.171875 512.386719 726.535156 539.9375 728.414062 563.105469 C 729.039062 569.992188 731.546875 577.507812 734.675781 586.273438 C 735.300781 588.152344 735.929688 590.03125 736.554688 592.535156 C 727.160156 593.789062 715.265625 596.292969 703.367188 599.421875 C 690.21875 603.179688 675.816406 608.816406 663.292969 614.449219 C 654.527344 598.796875 642.628906 582.515625 610.070312 573.75 C 608.191406 573.125 603.179688 571.871094 595.667969 571.871094 C 586.902344 571.871094 577.507812 573.125 568.117188 576.253906 C 567.488281 576.253906 567.488281 576.253906 566.863281 576.253906 C 566.863281 575.628906 566.863281 575.003906 566.863281 575.003906 C 566.863281 568.742188 567.488281 554.964844 559.976562 543.695312 C 559.976562 537.433594 558.722656 530.546875 555.59375 524.285156 C 556.21875 514.265625 554.339844 504.871094 549.332031 496.105469 C 547.453125 492.347656 544.320312 489.21875 540.566406 486.714844 C 543.695312 479.824219 546.199219 473.5625 548.078125 466.050781 C 553.089844 445.386719 549.957031 427.226562 546.828125 407.816406 L 546.199219 405.3125 C 539.3125 361.480469 577.507812 319.527344 617.582031 307.628906 C 631.984375 303.246094 648.265625 300.742188 664.546875 300.742188 C 700.238281 300.742188 762.851562 312.011719 779.761719 389.65625 C 782.890625 404.058594 781.011719 422.21875 775.375 434.742188 Z M 775.375 434.742188 " fill-opacity="1" fill-rule="nonzero"/></g><path fill="#ffffff" d="M 394.042969 260.667969 C 380.894531 264.425781 373.378906 277.574219 377.136719 290.722656 C 380.265625 303.875 394.042969 311.386719 406.566406 307.628906 C 419.714844 303.875 427.230469 290.097656 423.472656 277.574219 C 420.339844 265.050781 406.566406 257.535156 394.042969 260.667969 Z M 394.042969 260.667969 " fill-opacity="1" fill-rule="nonzero"/><path fill="#ffffff" d="M 468.554688 276.949219 L 462.921875 275.695312 C 462.292969 273.191406 461.667969 270.058594 461.042969 266.929688 C 459.789062 262.546875 457.910156 258.789062 456.03125 255.03125 L 459.789062 251.273438 C 466.050781 245.011719 466.050781 235.621094 460.414062 229.984375 L 452.277344 221.84375 C 446.015625 216.210938 435.367188 215.582031 429.734375 221.84375 L 424.722656 226.855469 C 417.835938 223.722656 410.949219 222.472656 404.0625 221.84375 L 402.183594 215.582031 C 399.675781 206.816406 392.164062 201.808594 384.023438 204.3125 L 372.753906 207.445312 C 364.613281 209.949219 358.976562 218.714844 361.480469 226.855469 L 363.984375 234.996094 C 358.351562 238.75 353.339844 243.761719 349.585938 250.023438 L 343.324219 248.144531 C 334.554688 245.640625 326.417969 250.023438 324.539062 258.164062 L 321.40625 269.433594 C 319.527344 277.574219 324.539062 286.964844 332.679688 288.84375 L 338.941406 290.097656 C 338.941406 293.855469 339.566406 297.613281 340.816406 301.367188 C 341.445312 304.5 342.695312 308.257812 344.574219 311.386719 L 340.816406 315.144531 C 334.554688 321.40625 334.554688 330.796875 340.191406 336.433594 L 347.707031 344.574219 C 353.96875 350.210938 364.613281 350.210938 370.246094 344.574219 L 374.003906 340.816406 C 381.519531 343.949219 389.03125 345.828125 396.546875 346.453125 L 397.800781 350.835938 C 399.675781 358.347656 405.3125 362.734375 412.199219 362.734375 C 413.453125 362.734375 415.332031 362.734375 416.582031 362.105469 L 427.855469 358.976562 C 435.996094 356.472656 441.628906 347.703125 439.125 339.566406 L 437.875 334.554688 C 444.136719 330.171875 449.144531 324.535156 453.527344 317.648438 L 457.910156 317.648438 C 459.164062 318.273438 461.042969 318.273438 462.292969 318.273438 C 469.183594 318.273438 474.816406 314.519531 476.695312 307.628906 L 479.828125 296.359375 C 481.707031 288.21875 476.695312 278.828125 468.554688 276.949219 Z M 466.675781 294.480469 L 463.546875 305.75 C 463.546875 306.378906 463.546875 307.003906 461.667969 307.003906 C 461.042969 307.003906 461.042969 307.003906 460.414062 307.003906 L 446.640625 303.246094 L 444.136719 307.628906 C 440.378906 315.769531 434.117188 322.65625 426.601562 327.042969 L 422.847656 329.546875 L 426.601562 343.320312 C 427.230469 344.574219 425.976562 346.453125 424.097656 347.078125 L 412.828125 350.210938 C 411.574219 350.835938 410.949219 348.957031 410.324219 347.703125 L 406.566406 333.929688 L 400.304688 334.554688 C 391.539062 334.554688 383.398438 332.675781 375.882812 328.292969 L 371.5 325.789062 L 361.480469 336.433594 C 360.855469 337.058594 360.230469 337.058594 359.601562 337.058594 C 358.976562 337.058594 357.722656 336.433594 357.097656 335.808594 L 348.957031 327.667969 C 347.707031 326.414062 348.957031 324.535156 349.585938 323.910156 L 359.601562 313.890625 L 357.097656 309.507812 C 354.59375 306.378906 353.339844 301.996094 352.089844 298.238281 C 350.835938 293.855469 350.210938 289.472656 350.210938 285.089844 L 350.210938 280.078125 L 335.183594 276.320312 C 333.929688 275.695312 332.679688 273.816406 333.304688 271.9375 L 336.433594 260.667969 C 336.433594 260.042969 336.433594 259.414062 338.3125 259.414062 C 338.941406 259.414062 338.941406 259.414062 339.566406 259.414062 L 355.21875 263.171875 L 357.097656 259.414062 C 361.480469 251.902344 367.117188 246.265625 374.003906 241.882812 L 378.386719 238.125 L 374.003906 222.472656 C 373.378906 221.21875 374.632812 219.339844 376.507812 218.714844 L 387.78125 215.582031 C 389.660156 214.957031 390.285156 216.835938 390.910156 218.089844 L 395.292969 233.742188 L 400.929688 233.742188 C 409.070312 233.742188 416.585938 235.621094 423.472656 239.378906 L 427.855469 241.257812 L 439.125 229.359375 C 439.753906 228.734375 440.378906 228.734375 441.003906 228.734375 C 441.628906 228.734375 442.882812 229.359375 443.507812 229.984375 L 451.648438 238.125 C 452.902344 239.378906 451.648438 241.257812 451.023438 241.882812 L 440.378906 253.152344 L 442.882812 257.535156 C 445.386719 261.292969 447.265625 265.675781 448.519531 270.6875 C 449.769531 274.445312 450.398438 278.199219 450.398438 281.957031 L 450.398438 286.339844 L 464.800781 290.097656 C 466.050781 290.722656 467.304688 292.601562 466.675781 294.480469 Z M 466.675781 294.480469 " fill-opacity="1" fill-rule="nonzero"/><path fill="#ffffff" d="M 534.453125 222.808594 C 534.679688 223.601562 534.824219 224.40625 534.890625 225.226562 C 534.953125 226.042969 534.941406 226.863281 534.84375 227.679688 C 534.75 228.496094 534.574219 229.296875 534.320312 230.078125 C 534.066406 230.859375 533.742188 231.609375 533.339844 232.328125 C 532.941406 233.046875 532.472656 233.71875 531.941406 234.34375 C 531.40625 234.972656 530.816406 235.539062 530.171875 236.050781 C 529.527344 236.558594 528.839844 237 528.105469 237.375 C 527.375 237.75 526.613281 238.050781 525.820312 238.273438 C 525.03125 238.496094 524.226562 238.644531 523.40625 238.707031 C 522.585938 238.773438 521.769531 238.757812 520.949219 238.664062 C 520.132812 238.566406 519.335938 238.394531 518.550781 238.140625 C 517.769531 237.886719 517.019531 237.5625 516.300781 237.160156 C 515.582031 236.757812 514.910156 236.292969 514.285156 235.757812 C 513.660156 235.226562 513.089844 234.636719 512.582031 233.992188 C 512.070312 233.347656 511.628906 232.660156 511.253906 231.925781 C 510.878906 231.195312 510.582031 230.433594 510.355469 229.640625 C 510.132812 228.851562 509.988281 228.042969 509.921875 227.226562 C 509.855469 226.40625 509.871094 225.585938 509.96875 224.769531 C 510.0625 223.953125 510.238281 223.15625 510.488281 222.371094 C 510.742188 221.589844 511.070312 220.839844 511.46875 220.121094 C 511.871094 219.402344 512.339844 218.730469 512.871094 218.105469 C 513.40625 217.480469 513.992188 216.910156 514.636719 216.402344 C 515.285156 215.890625 515.972656 215.449219 516.703125 215.074219 C 517.4375 214.699219 518.199219 214.402344 518.988281 214.175781 C 519.78125 213.953125 520.585938 213.808594 521.40625 213.742188 C 522.226562 213.675781 523.042969 213.691406 523.859375 213.785156 C 524.675781 213.882812 525.476562 214.054688 526.257812 214.308594 C 527.042969 214.5625 527.792969 214.890625 528.507812 215.289062 C 529.226562 215.691406 529.898438 216.15625 530.523438 216.691406 C 531.152344 217.222656 531.71875 217.8125 532.230469 218.457031 C 532.738281 219.101562 533.179688 219.792969 533.554688 220.523438 C 533.929688 221.257812 534.230469 222.019531 534.453125 222.808594 Z M 534.453125 222.808594 " fill-opacity="1" fill-rule="nonzero"/><path fill="#ffffff" d="M 524.285156 269.433594 L 526.164062 276.320312 C 527.414062 280.078125 530.546875 282.582031 534.304688 281.332031 L 542.441406 278.828125 C 546.199219 277.574219 548.703125 273.816406 547.453125 270.058594 L 545.574219 263.171875 C 551.835938 259.414062 556.84375 253.78125 560.601562 246.890625 L 567.488281 248.769531 C 571.246094 250.023438 575.003906 248.144531 575.628906 244.386719 L 577.507812 235.621094 C 578.136719 231.238281 575.628906 226.855469 571.875 226.230469 L 564.359375 224.351562 C 564.359375 221.21875 563.734375 218.089844 563.105469 214.957031 C 561.855469 210.574219 560.601562 207.445312 558.097656 203.6875 L 563.734375 198.050781 C 566.238281 195.546875 566.863281 191.164062 564.359375 188.660156 L 558.097656 182.398438 C 555.59375 179.890625 550.582031 179.265625 548.078125 182.398438 L 541.816406 188.660156 C 535.554688 185.527344 528.667969 183.648438 521.78125 184.277344 L 519.273438 176.136719 C 518.023438 172.378906 514.890625 169.875 511.136719 171.125 L 502.996094 173.628906 C 499.238281 174.882812 496.734375 178.640625 497.984375 182.398438 L 500.488281 191.164062 C 494.230469 194.921875 489.84375 199.929688 486.089844 206.191406 L 477.949219 204.3125 C 474.191406 203.058594 470.433594 204.9375 469.808594 208.695312 L 467.929688 217.460938 C 466.675781 221.21875 469.183594 225.601562 472.9375 226.230469 L 481.078125 228.105469 C 481.078125 231.863281 481.707031 235.621094 482.957031 238.753906 C 484.210938 242.507812 485.460938 245.640625 487.339844 248.769531 L 482.332031 254.40625 C 479.828125 256.910156 479.199219 261.292969 481.707031 263.796875 L 487.96875 270.058594 C 490.472656 272.566406 495.480469 273.191406 497.984375 270.058594 L 502.996094 264.425781 C 509.257812 268.183594 516.769531 270.058594 524.285156 269.433594 Z M 494.855469 235.621094 C 489.21875 220.59375 497.359375 203.6875 513.011719 198.050781 C 528.042969 192.414062 544.949219 200.554688 550.582031 216.210938 C 556.21875 231.863281 547.453125 248.769531 532.425781 253.78125 C 517.398438 259.414062 500.488281 251.273438 494.855469 235.621094 Z M 494.855469 235.621094 " fill-opacity="1" fill-rule="nonzero"/><path fill="#ffffff" d="M 294.480469 216.210938 C 294.480469 217.03125 294.402344 217.847656 294.242188 218.652344 C 294.082031 219.460938 293.84375 220.242188 293.527344 221.003906 C 293.214844 221.761719 292.828125 222.484375 292.371094 223.167969 C 291.914062 223.851562 291.394531 224.484375 290.8125 225.066406 C 290.230469 225.648438 289.601562 226.164062 288.917969 226.621094 C 288.230469 227.078125 287.511719 227.464844 286.75 227.78125 C 285.992188 228.09375 285.207031 228.332031 284.402344 228.492188 C 283.59375 228.652344 282.78125 228.734375 281.957031 228.734375 C 281.136719 228.734375 280.320312 228.652344 279.515625 228.492188 C 278.707031 228.332031 277.925781 228.09375 277.164062 227.78125 C 276.40625 227.464844 275.683594 227.078125 275 226.621094 C 274.316406 226.164062 273.683594 225.648438 273.101562 225.066406 C 272.523438 224.484375 272.003906 223.851562 271.546875 223.167969 C 271.089844 222.484375 270.703125 221.761719 270.386719 221.003906 C 270.074219 220.242188 269.835938 219.460938 269.675781 218.652344 C 269.515625 217.847656 269.433594 217.03125 269.433594 216.210938 C 269.433594 215.386719 269.515625 214.574219 269.675781 213.765625 C 269.835938 212.960938 270.074219 212.175781 270.386719 211.417969 C 270.703125 210.65625 271.089844 209.9375 271.546875 209.253906 C 272.003906 208.570312 272.523438 207.9375 273.101562 207.355469 C 273.683594 206.773438 274.316406 206.253906 275 205.796875 C 275.683594 205.339844 276.40625 204.953125 277.164062 204.640625 C 277.925781 204.324219 278.707031 204.085938 279.515625 203.925781 C 280.320312 203.765625 281.136719 203.6875 281.957031 203.6875 C 282.78125 203.6875 283.59375 203.765625 284.402344 203.925781 C 285.207031 204.085938 285.992188 204.324219 286.75 204.640625 C 287.511719 204.953125 288.230469 205.339844 288.917969 205.796875 C 289.601562 206.253906 290.230469 206.773438 290.8125 207.355469 C 291.394531 207.9375 291.914062 208.570312 292.371094 209.253906 C 292.828125 209.9375 293.214844 210.65625 293.527344 211.417969 C 293.84375 212.175781 294.082031 212.960938 294.242188 213.765625 C 294.402344 214.574219 294.480469 215.386719 294.480469 216.210938 Z M 294.480469 216.210938 " fill-opacity="1" fill-rule="nonzero"/><path fill="#ffffff" d="M 335.183594 228.734375 L 337.0625 219.96875 C 337.6875 217.460938 335.183594 213.078125 331.425781 212.453125 L 323.910156 211.199219 C 323.285156 208.070312 322.660156 204.9375 322.03125 201.808594 C 320.78125 198.050781 318.902344 194.292969 316.398438 191.164062 L 321.40625 184.902344 C 323.910156 181.769531 323.910156 178.015625 321.40625 175.507812 L 314.519531 169.875 C 311.386719 167.367188 307.003906 167.367188 304.5 170.5 L 298.863281 177.386719 C 292.601562 174.882812 285.714844 173.628906 278.828125 174.257812 L 275.695312 166.117188 C 274.445312 162.359375 271.3125 160.480469 267.558594 161.734375 L 259.417969 164.863281 C 255.660156 166.117188 253.78125 170.5 255.035156 174.257812 L 258.164062 182.398438 C 252.527344 186.78125 248.144531 191.789062 245.015625 198.050781 L 236.25 196.171875 C 232.492188 195.546875 228.734375 197.425781 228.109375 201.183594 L 226.230469 209.949219 C 225.605469 213.707031 228.109375 218.089844 231.867188 218.714844 L 240.003906 219.96875 C 240.003906 223.722656 241.257812 226.855469 242.511719 230.613281 C 243.761719 233.742188 245.015625 236.875 247.519531 240.003906 L 242.511719 245.640625 C 240.003906 248.769531 240.003906 252.527344 242.511719 255.03125 L 249.398438 260.667969 C 252.527344 263.171875 256.910156 263.171875 259.417969 260.042969 L 264.425781 254.40625 C 271.3125 257.535156 278.203125 258.789062 285.714844 258.164062 L 288.21875 264.425781 C 289.472656 268.183594 292.601562 270.058594 296.359375 268.808594 L 304.5 265.675781 C 308.257812 264.425781 310.136719 260.042969 308.882812 256.285156 L 306.378906 249.398438 C 312.640625 245.011719 317.023438 238.753906 320.15625 232.492188 L 327.042969 233.742188 C 330.800781 234.367188 334.554688 232.492188 335.183594 228.734375 Z M 291.976562 243.761719 C 276.949219 249.398438 260.042969 241.257812 254.40625 225.601562 C 248.773438 210.574219 256.910156 193.667969 272.566406 188.03125 C 287.59375 182.398438 304.5 190.539062 310.136719 206.191406 C 315.769531 221.84375 307.632812 238.125 291.976562 243.761719 Z M 291.976562 243.761719 " fill-opacity="1" fill-rule="nonzero"/></svg>