<svg xmlns="http://www.w3.org/2000/svg" xmlns:xlink="http://www.w3.org/1999/xlink" width="1080" zoomAndPan="magnify" viewBox="0 0 810 809.999993" height="1080" preserveAspectRatio="xMidYMid meet" version="1.0"><defs><clipPath id="2ab4be762b"><path d="M 0 198.082031 L 810 198.082031 L 810 612 L 0 612 Z M 0 198.082031 " clip-rule="nonzero"/></clipPath></defs><rect x="-81" width="972" fill="#ffffff" y="-80.999999" height="971.999992" fill-opacity="1"/><rect x="-81" width="972" fill="#ffffff" y="-80.999999" height="971.999992" fill-opacity="1"/><g clip-path="url(#2ab4be762b)"><path fill="#ffffff" d="M 806.601562 400.242188 C 778.0625 360.152344 647.59375 198.421875 405 198.421875 C 162.40625 198.421875 32.617188 359.472656 3.398438 400.242188 C 2.039062 402.28125 1.359375 403.640625 0 405 C 0.679688 406.359375 2.039062 407.71875 3.398438 409.757812 C 31.9375 449.847656 162.40625 611.578125 405 611.578125 C 646.914062 611.578125 777.382812 450.527344 806.601562 409.757812 C 807.960938 407.71875 808.640625 406.359375 810 405 C 808.640625 403.640625 807.960938 401.601562 806.601562 400.242188 Z M 269.773438 300.351562 C 271.8125 296.953125 279.285156 288.121094 279.964844 286.761719 C 282.003906 284.042969 285.402344 284.042969 288.121094 283.363281 C 290.839844 282.683594 294.238281 284.042969 294.238281 286.082031 C 294.917969 288.121094 293.558594 295.59375 292.199219 296.953125 C 288.800781 300.351562 279.285156 305.789062 274.53125 305.109375 C 271.132812 304.429688 269.09375 301.710938 269.773438 300.351562 Z M 261.617188 317.339844 C 262.296875 316.660156 262.296875 316.660156 262.296875 315.980469 C 265.015625 312.582031 271.132812 311.902344 275.890625 311.222656 C 279.964844 310.546875 285.402344 312.582031 286.082031 315.300781 C 286.761719 318.019531 275.890625 323.457031 273.171875 324.816406 C 267.054688 330.25 258.222656 341.125 252.785156 342.484375 C 250.746094 343.164062 249.386719 342.484375 248.707031 341.804688 C 252.105469 334.328125 256.863281 325.496094 261.617188 317.339844 Z M 351.996094 503.53125 C 348.597656 516.441406 345.203125 521.199219 341.804688 525.277344 C 338.40625 529.355469 326.175781 534.789062 318.699219 534.109375 C 311.226562 533.429688 309.867188 513.046875 309.867188 502.851562 C 309.867188 499.453125 304.429688 510.328125 301.710938 487.902344 C 299.671875 473.632812 290.839844 489.261719 290.160156 479.75 C 289.480469 470.234375 284.722656 472.273438 279.964844 466.15625 C 275.210938 460.042969 269.09375 466.835938 262.976562 469.554688 C 256.183594 472.273438 258.902344 474.3125 250.066406 470.914062 L 249.386719 470.914062 C 240.554688 450.527344 235.796875 428.785156 235.796875 405 C 235.796875 399.5625 235.796875 393.449219 236.476562 388.011719 C 236.476562 387.332031 237.15625 386.652344 237.835938 386.652344 C 246.667969 375.78125 246.667969 373.742188 246.667969 373.742188 L 256.863281 370.34375 C 256.863281 370.34375 272.492188 373.0625 284.722656 377.140625 C 294.238281 380.535156 309.867188 389.371094 318.699219 385.292969 C 325.496094 382.574219 330.25 379.175781 329.570312 373.742188 C 328.890625 366.945312 323.457031 365.585938 317.339844 369.664062 C 314.621094 371.023438 309.867188 359.472656 305.789062 360.152344 C 301.710938 360.832031 310.546875 374.421875 307.148438 374.421875 C 303.75 375.101562 296.953125 360.152344 295.59375 358.113281 C 294.238281 356.074219 289.480469 349.957031 284.722656 354.714844 C 274.53125 364.226562 258.902344 363.546875 255.503906 366.265625 C 245.308594 373.742188 243.273438 363.546875 243.273438 358.113281 C 243.953125 356.753906 243.953125 355.394531 244.628906 354.035156 C 248.027344 350.636719 259.582031 349.277344 263.65625 351.996094 C 267.734375 354.714844 271.132812 351.316406 273.171875 349.277344 C 275.210938 347.238281 274.53125 344.523438 273.171875 342.484375 C 271.8125 340.445312 275.210938 338.40625 277.929688 337.726562 C 279.964844 337.046875 287.441406 331.609375 290.839844 330.25 C 293.558594 328.210938 309.1875 326.855469 316.660156 330.25 C 323.457031 333.648438 330.25 330.929688 333.648438 326.855469 C 337.726562 321.417969 343.164062 318.019531 345.878906 316.660156 C 348.597656 315.300781 339.765625 307.828125 332.96875 315.980469 C 326.175781 324.816406 322.777344 325.496094 319.378906 325.496094 C 315.980469 325.496094 296.953125 320.738281 294.238281 314.621094 C 292.199219 308.507812 300.351562 303.75 307.828125 300.351562 C 315.300781 296.953125 335.007812 296.953125 339.765625 295.59375 C 349.957031 293.558594 362.867188 288.121094 369.664062 292.878906 C 376.460938 296.953125 342.484375 305.109375 353.355469 311.222656 C 357.433594 313.261719 375.101562 301.03125 381.214844 297.632812 C 395.488281 290.160156 366.945312 287.441406 371.023438 272.492188 C 375.101562 255.503906 335.6875 261.617188 316.660156 263.65625 C 343.164062 246.667969 373.742188 237.15625 407.71875 237.15625 C 487.222656 237.15625 553.816406 292.199219 571.484375 366.265625 C 571.484375 369.664062 570.804688 372.382812 570.804688 373.742188 C 569.445312 379.855469 557.894531 385.292969 551.097656 375.101562 C 549.058594 372.382812 542.265625 365.585938 542.265625 377.820312 C 542.265625 389.371094 553.816406 390.730469 542.945312 397.523438 C 532.070312 404.320312 530.035156 402.960938 525.277344 404.320312 C 520.519531 406.359375 515.761719 417.910156 516.441406 424.707031 C 517.800781 430.820312 532.75 448.488281 521.878906 447.808594 C 519.160156 447.808594 498.773438 433.539062 495.378906 424.707031 C 491.980469 415.191406 487.902344 406.359375 485.183594 398.882812 C 482.464844 392.089844 474.992188 390.050781 469.554688 394.128906 C 463.441406 398.203125 470.914062 402.28125 466.835938 411.117188 C 462.761719 419.949219 459.363281 427.425781 453.246094 420.628906 C 436.9375 401.601562 413.152344 411.117188 409.078125 390.050781 C 407.039062 378.5 397.523438 379.855469 389.371094 373.0625 C 381.214844 366.945312 376.460938 362.867188 375.101562 367.625 C 373.742188 371.703125 400.921875 393.449219 402.960938 398.882812 C 405.679688 407.039062 394.808594 414.511719 386.652344 415.871094 C 378.5 417.910156 375.101562 411.117188 366.945312 402.960938 C 358.792969 394.808594 355.394531 388.691406 355.394531 395.488281 C 354.714844 405 362.867188 418.589844 371.023438 423.347656 C 377.820312 427.425781 385.292969 429.464844 383.253906 436.9375 C 381.214844 443.734375 383.253906 439.65625 375.78125 447.808594 C 368.304688 455.285156 366.945312 458.003906 366.945312 468.195312 C 367.625 479.070312 364.90625 479.070312 362.867188 487.902344 C 359.472656 498.09375 355.394531 490.621094 351.996094 503.53125 Z M 533.429688 436.257812 C 538.867188 435.578125 547.703125 443.734375 544.304688 446.449219 C 540.90625 449.167969 532.75 448.488281 527.996094 445.09375 C 523.917969 441.695312 530.714844 436.257812 533.429688 436.257812 Z M 525.957031 430.820312 C 523.917969 430.140625 522.558594 428.105469 521.199219 424.027344 C 519.839844 419.949219 523.238281 417.230469 526.636719 419.269531 C 530.035156 421.308594 534.789062 426.066406 534.789062 428.785156 C 534.789062 432.179688 527.996094 432.179688 525.957031 430.820312 Z M 451.207031 430.820312 C 447.808594 433.539062 439.65625 432.859375 434.898438 429.460938 C 430.820312 426.066406 437.617188 420.628906 440.335938 420.628906 C 446.453125 419.949219 454.605469 428.105469 451.207031 430.820312 Z M 382.574219 464.117188 C 380.535156 468.195312 373.742188 496.058594 369.664062 492.660156 C 365.585938 489.261719 371.703125 460.042969 372.382812 457.324219 C 379.179688 445.773438 393.449219 446.449219 382.574219 464.117188 Z M 405.679688 574.203125 C 389.371094 574.203125 373.0625 571.484375 358.113281 567.40625 C 356.074219 565.367188 354.714844 562.652344 356.074219 559.253906 C 361.511719 545.664062 377.140625 540.226562 389.371094 538.867188 C 416.550781 536.148438 452.566406 556.535156 458.683594 553.136719 C 464.117188 549.738281 475.671875 534.789062 492.660156 535.46875 C 504.210938 536.148438 504.210938 538.1875 508.289062 539.546875 C 479.75 561.292969 443.734375 574.203125 405.679688 574.203125 Z M 524.597656 525.277344 C 523.238281 524.597656 521.199219 523.917969 519.160156 523.238281 C 509.648438 518.480469 511.007812 525.957031 506.25 524.597656 C 501.492188 523.238281 511.6875 512.367188 497.417969 521.199219 C 483.824219 530.035156 487.222656 519.839844 481.785156 504.890625 C 475.671875 489.941406 488.582031 472.953125 499.453125 468.875 C 514.402344 463.4375 523.238281 462.761719 530.035156 460.722656 C 550.417969 455.964844 554.496094 443.734375 558.574219 451.207031 L 560.613281 455.285156 C 561.972656 457.324219 563.332031 462.082031 563.332031 466.15625 C 554.496094 488.582031 541.585938 508.289062 524.597656 525.277344 Z M 574.882812 405 C 574.203125 417.230469 572.84375 428.785156 570.804688 440.335938 C 566.046875 438.976562 547.023438 413.152344 562.652344 395.484375 C 565.371094 392.769531 557.894531 384.613281 559.933594 383.933594 C 568.085938 383.253906 572.164062 388.691406 574.882812 395.484375 Z M 574.882812 405 " fill-opacity="1" fill-rule="nonzero"/></g></svg>