<svg xmlns="http://www.w3.org/2000/svg" xmlns:xlink="http://www.w3.org/1999/xlink" width="1080" zoomAndPan="magnify" viewBox="0 0 810 809.999993" height="1080" preserveAspectRatio="xMidYMid meet" version="1.0"><defs><clipPath id="f9f2b37f0e"><path d="M 5 374 L 167 374 L 167 544.558594 L 5 544.558594 Z M 5 374 " clip-rule="nonzero"/></clipPath></defs><rect x="-81" width="972" fill="#ffffff" y="-80.999999" height="971.999992" fill-opacity="1"/><rect x="-81" width="972" fill="#ffffff" y="-80.999999" height="971.999992" fill-opacity="1"/><path fill="#b5c224" d="M 24.097656 533.730469 L 25.28125 533.738281 C 30.027344 532.898438 34.152344 530.175781 37.660156 525.5625 C 75.921875 472.199219 107.074219 432.917969 131.113281 407.722656 C 145.238281 392.210938 166.839844 374.382812 195.914062 354.238281 C 243.167969 320.664062 306.949219 299.726562 387.265625 291.414062 C 441.714844 286.113281 502.453125 296.558594 569.476562 322.757812 C 607.878906 337.898438 644.820312 357.035156 680.296875 380.164062 C 698.6875 390.972656 731.351562 417.011719 778.285156 458.28125 C 781.703125 460.050781 784.628906 460.75 787.0625 460.390625 C 789.328125 460.578125 795.195312 458.019531 804.660156 452.707031 C 806.558594 452.320312 808.339844 452.996094 810.007812 454.726562 C 771.148438 408.902344 709.070312 364.410156 623.777344 321.246094 C 553.976562 287.347656 486.265625 269.425781 420.640625 267.476562 C 383 266.148438 341.050781 271.820312 294.789062 284.488281 C 244.066406 300.132812 203.40625 319.171875 172.8125 341.601562 C 133.601562 367.550781 93.730469 406.078125 53.199219 457.183594 C 17.738281 503.9375 8.039062 529.453125 24.097656 533.730469 " fill-opacity="1" fill-rule="nonzero"/><g clip-path="url(#f9f2b37f0e)"><path fill="#b5c224" d="M 22.113281 543.910156 L 22.777344 543.957031 C 25.363281 544.328125 29.113281 543.476562 34.035156 541.402344 C 78.328125 520.144531 105.921875 507.363281 116.816406 503.058594 C 123.664062 500.546875 136.710938 496.671875 155.960938 491.429688 C 159.171875 490.425781 161.234375 489.707031 162.144531 489.265625 C 165.027344 487.96875 166.359375 486.609375 166.132812 485.1875 C 166.503906 483.472656 166.644531 481.386719 166.550781 478.925781 L 164.738281 457.816406 C 164.769531 456.296875 165.074219 455.464844 165.65625 455.324219 C 162.683594 454.734375 157.984375 454.773438 151.550781 455.445312 C 137.949219 457.011719 122.96875 460.886719 106.613281 467.074219 C 100.65625 469.128906 80.929688 479.4375 47.425781 498 L 75.941406 425.910156 C 79.945312 415.023438 83.675781 403.660156 87.136719 391.8125 C 87.5 390.511719 87.417969 389.207031 86.890625 387.902344 C 87.007812 387.191406 85.503906 385.328125 82.386719 382.304688 C 78.417969 378.761719 72.566406 376.238281 64.828125 374.738281 C 61.957031 374.597656 60.234375 375.089844 59.667969 376.214844 C 51.53125 390.035156 45.421875 402.066406 41.339844 412.300781 C 33.253906 431.277344 21.769531 465.125 6.886719 513.84375 C 4.550781 521.195312 4.707031 527.765625 7.355469 533.558594 C 12.660156 540.664062 17.578125 544.117188 22.113281 543.910156 " fill-opacity="1" fill-rule="nonzero"/></g></svg>