<svg xmlns="http://www.w3.org/2000/svg" xmlns:xlink="http://www.w3.org/1999/xlink" width="1080" zoomAndPan="magnify" viewBox="0 0 810 809.999993" height="1080" preserveAspectRatio="xMidYMid meet" version="1.0"><defs><clipPath id="740c08e74b"><path d="M 56.953125 0 L 753.046875 0 L 753.046875 810 L 56.953125 810 Z M 56.953125 0 " clip-rule="nonzero"/></clipPath><clipPath id="8f526abea2"><path d="M 405 0 L 753.046875 202.5 L 753.046875 607.5 L 405 810 L 56.953125 607.5 L 56.953125 202.5 Z M 405 0 " clip-rule="nonzero"/></clipPath><clipPath id="3048e05050"><path d="M 236 200 L 573.976562 200 L 573.976562 610.777344 L 236 610.777344 Z M 236 200 " clip-rule="nonzero"/></clipPath></defs><g clip-path="url(#740c08e74b)"><g clip-path="url(#8f526abea2)"><path fill="#b5c224" d="M 56.953125 0 L 753.046875 0 L 753.046875 810.296875 L 56.953125 810.296875 Z M 56.953125 0 " fill-opacity="1" fill-rule="nonzero"/></g></g><g clip-path="url(#3048e05050)"><path fill="#5b1880" d="M 279.851562 327.414062 C 279.265625 328.550781 278.484375 329.527344 277.507812 330.351562 C 276.527344 331.171875 275.429688 331.773438 274.210938 332.152344 C 273.417969 332.382812 272.609375 332.492188 271.78125 332.492188 C 270.332031 332.503906 268.976562 332.148438 267.71875 331.417969 C 258.070312 326.171875 249.328125 321.09375 240.917969 315.902344 C 239.324219 314.78125 238.214844 313.292969 237.589844 311.445312 C 237.5 311.226562 237.386719 311.019531 237.25 310.824219 L 236.855469 310.089844 L 236.855469 309.300781 C 236.84375 308.386719 236.949219 307.488281 237.171875 306.601562 C 237.394531 305.714844 237.722656 304.871094 238.164062 304.070312 C 238.605469 303.269531 239.136719 302.539062 239.769531 301.875 C 240.398438 301.210938 241.101562 300.640625 241.878906 300.160156 C 242.515625 299.789062 243.191406 299.507812 243.902344 299.3125 C 244.613281 299.121094 245.335938 299.019531 246.074219 299.015625 C 246.8125 299.011719 247.539062 299.101562 248.25 299.285156 C 248.964844 299.46875 249.644531 299.742188 250.285156 300.105469 C 259.652344 305.183594 268.90625 310.65625 276.804688 315.339844 C 277.289062 315.644531 277.742188 315.996094 278.160156 316.386719 C 278.582031 316.78125 278.960938 317.207031 279.296875 317.671875 C 279.632812 318.136719 279.925781 318.632812 280.167969 319.152344 C 280.410156 319.671875 280.601562 320.210938 280.742188 320.765625 C 280.882812 321.324219 280.96875 321.890625 281.003906 322.460938 C 281.035156 323.035156 281.015625 323.605469 280.9375 324.175781 C 280.859375 324.746094 280.730469 325.300781 280.550781 325.847656 C 280.367188 326.390625 280.132812 326.914062 279.851562 327.414062 Z M 410.585938 248.082031 L 410.8125 248.082031 C 411.992188 248.113281 413.136719 247.917969 414.238281 247.5 C 415.34375 247.078125 416.324219 246.464844 417.1875 245.65625 C 418.160156 244.652344 418.898438 243.5 419.410156 242.199219 C 419.917969 240.898438 420.15625 239.546875 420.121094 238.152344 C 420.175781 234.878906 420.175781 231.605469 420.175781 228.332031 L 420.121094 221.957031 L 420.121094 219.8125 C 420.121094 216.539062 420.175781 213.269531 420.121094 209.996094 C 420.15625 209.359375 420.128906 208.726562 420.035156 208.097656 C 419.941406 207.46875 419.789062 206.855469 419.570312 206.257812 C 419.351562 205.664062 419.074219 205.09375 418.738281 204.550781 C 418.402344 204.011719 418.019531 203.511719 417.582031 203.046875 C 417.144531 202.585938 416.664062 202.175781 416.140625 201.808594 C 415.621094 201.445312 415.066406 201.140625 414.480469 200.890625 C 413.898438 200.640625 413.292969 200.449219 412.671875 200.324219 C 412.046875 200.195312 411.417969 200.132812 410.78125 200.136719 C 410.144531 200.136719 409.515625 200.203125 408.894531 200.335938 C 408.269531 200.464844 407.667969 200.65625 407.085938 200.910156 C 406.503906 201.164062 405.949219 201.476562 405.429688 201.84375 C 404.910156 202.210938 404.433594 202.625 404 203.089844 C 403.566406 203.554688 403.183594 204.058594 402.851562 204.601562 C 402.519531 205.144531 402.246094 205.714844 402.03125 206.3125 C 401.816406 206.910156 401.664062 207.527344 401.574219 208.15625 C 401.484375 208.785156 401.460938 209.417969 401.5 210.050781 C 401.445312 219.417969 401.386719 228.726562 401.445312 238.09375 C 401.386719 238.730469 401.390625 239.363281 401.464844 239.996094 C 401.539062 240.632812 401.675781 241.25 401.878906 241.855469 C 402.082031 242.460938 402.34375 243.035156 402.667969 243.585938 C 402.992188 244.136719 403.367188 244.644531 403.800781 245.117188 C 404.230469 245.585938 404.703125 246.007812 405.222656 246.378906 C 405.742188 246.75 406.292969 247.0625 406.878906 247.316406 C 407.460938 247.574219 408.066406 247.765625 408.691406 247.894531 C 409.316406 248.023438 409.949219 248.085938 410.585938 248.082031 Z M 271.613281 448.328125 L 270.597656 448.441406 C 269.679688 448.496094 268.8125 448.742188 268.003906 449.175781 L 263.375 451.828125 C 255.757812 456.171875 248.140625 460.515625 240.636719 465.03125 C 240.175781 465.347656 239.75 465.703125 239.359375 466.101562 C 238.964844 466.5 238.613281 466.929688 238.304688 467.394531 C 237.992188 467.855469 237.726562 468.347656 237.511719 468.859375 C 237.292969 469.375 237.125 469.902344 237.007812 470.449219 C 236.890625 470.996094 236.828125 471.546875 236.8125 472.105469 C 236.800781 472.664062 236.84375 473.21875 236.9375 473.769531 C 237.03125 474.320312 237.175781 474.855469 237.371094 475.378906 C 237.566406 475.902344 237.808594 476.402344 238.097656 476.878906 C 238.476562 477.609375 238.949219 478.277344 239.507812 478.878906 C 240.070312 479.480469 240.699219 480 241.398438 480.429688 C 242.101562 480.863281 242.84375 481.195312 243.636719 481.425781 C 244.425781 481.65625 245.230469 481.777344 246.054688 481.789062 C 247.433594 481.808594 248.734375 481.488281 249.945312 480.828125 C 258.578125 476.089844 267.4375 471.011719 277.085938 465.199219 C 277.507812 464.9375 277.898438 464.640625 278.265625 464.308594 C 278.632812 463.976562 278.96875 463.613281 279.269531 463.222656 C 279.574219 462.832031 279.84375 462.417969 280.074219 461.980469 C 280.304688 461.542969 280.496094 461.089844 280.644531 460.617188 C 280.796875 460.144531 280.90625 459.664062 280.972656 459.175781 C 281.039062 458.683594 281.0625 458.191406 281.042969 457.699219 C 281.023438 457.203125 280.960938 456.714844 280.855469 456.230469 C 280.75 455.746094 280.605469 455.277344 280.414062 454.820312 C 280.136719 453.871094 279.714844 452.992188 279.148438 452.183594 C 278.585938 451.375 277.902344 450.675781 277.109375 450.089844 C 276.3125 449.503906 275.445312 449.058594 274.503906 448.757812 C 273.566406 448.457031 272.601562 448.316406 271.613281 448.328125 Z M 574.046875 308.566406 C 573.972656 307.695312 573.792969 306.84375 573.507812 306.019531 C 573.222656 305.191406 572.835938 304.414062 572.351562 303.683594 C 571.871094 302.953125 571.304688 302.292969 570.652344 301.707031 C 570.003906 301.121094 569.292969 300.625 568.515625 300.21875 C 567.757812 299.847656 566.96875 299.574219 566.140625 299.402344 C 565.316406 299.230469 564.484375 299.160156 563.640625 299.195312 C 562.800781 299.230469 561.972656 299.367188 561.167969 299.605469 C 560.359375 299.847656 559.59375 300.179688 558.867188 300.613281 C 550.628906 305.238281 542.390625 310.035156 534.210938 314.886719 C 533.667969 315.183594 533.164062 315.53125 532.691406 315.925781 C 532.21875 316.324219 531.789062 316.765625 531.40625 317.246094 C 531.019531 317.726562 530.6875 318.242188 530.402344 318.789062 C 530.121094 319.335938 529.894531 319.90625 529.722656 320.5 C 529.550781 321.09375 529.441406 321.695312 529.390625 322.3125 C 529.339844 322.925781 529.347656 323.539062 529.417969 324.152344 C 529.488281 324.765625 529.621094 325.363281 529.808594 325.949219 C 529.996094 326.539062 530.242188 327.101562 530.542969 327.640625 C 530.933594 328.363281 531.414062 329.019531 531.980469 329.613281 C 532.546875 330.207031 533.183594 330.714844 533.890625 331.136719 C 534.59375 331.558594 535.34375 331.878906 536.136719 332.101562 C 536.925781 332.320312 537.734375 332.433594 538.554688 332.433594 C 540.292969 332.417969 541.910156 331.964844 543.40625 331.082031 C 551.589844 326.511719 560.277344 321.546875 568.683594 316.410156 C 570.265625 315.289062 571.527344 313.878906 572.464844 312.179688 C 572.804688 311.613281 573.144531 311.105469 573.480469 310.597656 L 574.214844 309.695312 Z M 568.683594 464.242188 C 560.503906 459.5 552.304688 454.78125 544.085938 450.078125 C 542.875 449.316406 541.566406 448.820312 540.15625 448.59375 C 538.742188 448.371094 537.34375 448.433594 535.960938 448.78125 C 534.796875 449.105469 533.746094 449.640625 532.804688 450.398438 C 531.863281 451.152344 531.109375 452.0625 530.542969 453.125 C 530.238281 453.695312 529.996094 454.289062 529.8125 454.910156 C 529.628906 455.527344 529.507812 456.160156 529.453125 456.800781 C 529.394531 457.445312 529.402344 458.085938 529.476562 458.730469 C 529.550781 459.371094 529.6875 460 529.886719 460.613281 C 530.089844 461.226562 530.347656 461.8125 530.667969 462.375 C 530.984375 462.9375 531.359375 463.460938 531.78125 463.945312 C 532.207031 464.433594 532.675781 464.871094 533.1875 465.261719 C 533.703125 465.65625 534.25 465.992188 534.832031 466.273438 C 542.671875 470.84375 550.574219 475.414062 558.527344 479.984375 C 559.578125 480.535156 560.667969 480.988281 561.800781 481.335938 L 563.097656 481.789062 L 563.71875 481.789062 C 564.242188 481.808594 564.765625 481.78125 565.285156 481.710938 C 565.804688 481.644531 566.3125 481.53125 566.8125 481.375 C 567.3125 481.21875 567.796875 481.019531 568.265625 480.78125 C 568.730469 480.542969 569.175781 480.269531 569.59375 479.957031 C 570.015625 479.644531 570.40625 479.296875 570.765625 478.917969 C 571.128906 478.539062 571.457031 478.128906 571.75 477.695312 C 572.039062 477.261719 572.292969 476.804688 572.507812 476.328125 C 572.726562 475.847656 572.898438 475.355469 573.03125 474.847656 C 573.183594 474.351562 573.292969 473.847656 573.359375 473.332031 C 573.421875 472.820312 573.445312 472.300781 573.421875 471.785156 C 573.398438 471.265625 573.332031 470.753906 573.21875 470.246094 C 573.109375 469.742188 572.953125 469.246094 572.757812 468.765625 C 572.558594 468.289062 572.324219 467.828125 572.046875 467.386719 C 571.773438 466.949219 571.460938 466.535156 571.113281 466.152344 C 570.765625 465.765625 570.390625 465.410156 569.980469 465.089844 C 569.574219 464.769531 569.140625 464.488281 568.683594 464.242188 Z M 447.542969 562.136719 L 414.195312 562.136719 C 413.707031 562.136719 413.222656 562.183594 412.742188 562.277344 C 412.261719 562.375 411.796875 562.515625 411.34375 562.703125 C 410.894531 562.890625 410.464844 563.117188 410.058594 563.390625 C 409.652344 563.660156 409.273438 563.96875 408.929688 564.316406 C 408.582031 564.664062 408.273438 565.039062 408.003906 565.445312 C 407.730469 565.851562 407.5 566.28125 407.3125 566.734375 C 407.128906 567.1875 406.984375 567.652344 406.890625 568.132812 C 406.796875 568.609375 406.75 569.09375 406.75 569.585938 L 406.75 603.214844 C 406.75 603.703125 406.796875 604.1875 406.890625 604.667969 C 406.984375 605.144531 407.128906 605.613281 407.3125 606.0625 C 407.5 606.515625 407.730469 606.945312 408.003906 607.351562 C 408.273438 607.757812 408.582031 608.136719 408.929688 608.480469 C 409.273438 608.828125 409.652344 609.136719 410.058594 609.40625 C 410.464844 609.679688 410.894531 609.910156 411.34375 610.097656 C 411.796875 610.28125 412.261719 610.421875 412.742188 610.519531 C 413.222656 610.613281 413.707031 610.660156 414.195312 610.660156 L 447.542969 610.660156 C 448.03125 610.660156 448.511719 610.609375 448.988281 610.511719 C 449.464844 610.414062 449.929688 610.269531 450.378906 610.082031 C 450.828125 609.894531 451.253906 609.664062 451.65625 609.390625 C 452.0625 609.121094 452.433594 608.808594 452.777344 608.464844 C 453.121094 608.117188 453.425781 607.742188 453.695312 607.335938 C 453.964844 606.933594 454.191406 606.503906 454.378906 606.054688 C 454.5625 605.601562 454.703125 605.136719 454.796875 604.660156 C 454.890625 604.183594 454.9375 603.699219 454.933594 603.214844 L 454.933594 569.585938 C 454.9375 569.097656 454.890625 568.613281 454.796875 568.136719 C 454.703125 567.660156 454.5625 567.195312 454.378906 566.746094 C 454.191406 566.292969 453.964844 565.867188 453.695312 565.460938 C 453.425781 565.054688 453.121094 564.679688 452.777344 564.332031 C 452.433594 563.988281 452.0625 563.679688 451.65625 563.40625 C 451.253906 563.132812 450.828125 562.902344 450.378906 562.714844 C 449.929688 562.527344 449.464844 562.382812 448.988281 562.285156 C 448.511719 562.1875 448.03125 562.140625 447.542969 562.136719 Z M 503.0625 415.152344 C 501.117188 420.257812 498.652344 425.105469 495.675781 429.6875 C 492.699219 434.269531 489.273438 438.492188 485.402344 442.347656 C 481.464844 446.167969 477.839844 450.261719 474.527344 454.636719 C 471.21875 459.011719 468.261719 463.613281 465.65625 468.441406 C 463.054688 473.273438 460.835938 478.273438 459 483.441406 C 457.164062 488.609375 455.734375 493.890625 454.710938 499.28125 C 452.28125 510.566406 451.324219 522.132812 449.742188 533.585938 C 449.460938 535.449219 449.460938 537.253906 449.292969 539.230469 L 410.699219 539.230469 C 410.585938 536.914062 410.472656 534.601562 410.359375 532.457031 C 410.359375 532.289062 410.246094 532.121094 410.246094 531.949219 C 410.246094 531.78125 410.304688 531.667969 410.304688 531.5 C 409.511719 516.488281 408.949219 505.261719 408.949219 499.507812 C 409.003906 498.199219 408.859375 496.914062 408.511719 495.652344 C 408.167969 494.390625 407.636719 493.210938 406.917969 492.113281 C 405.980469 490.945312 404.875 489.960938 403.609375 489.160156 C 402.34375 488.359375 400.984375 487.78125 399.527344 487.429688 C 391.207031 484.679688 383.214844 481.179688 375.546875 476.9375 C 367.140625 472.480469 365.671875 472.253906 358.621094 478.742188 C 355.289062 481.789062 351.847656 484.667969 348.800781 487.261719 C 347.730469 488.164062 346.65625 489.066406 345.699219 489.914062 L 332.324219 478.234375 C 333.738281 476.542969 335.148438 474.90625 336.5 473.324219 C 340.054688 469.148438 343.441406 465.199219 346.996094 461.363281 C 347.382812 460.949219 347.730469 460.507812 348.046875 460.039062 C 348.359375 459.566406 348.628906 459.074219 348.859375 458.554688 C 349.09375 458.039062 349.277344 457.507812 349.421875 456.960938 C 349.566406 456.414062 349.660156 455.859375 349.710938 455.292969 C 349.761719 454.730469 349.765625 454.167969 349.722656 453.601562 C 349.683594 453.039062 349.59375 452.484375 349.457031 451.933594 C 349.324219 451.382812 349.144531 450.851562 348.917969 450.332031 C 348.695312 449.8125 348.429688 449.3125 348.125 448.835938 C 344.457031 440.65625 340.957031 431.910156 337.460938 422.09375 C 337.34375 421.5625 337.183594 421.046875 336.984375 420.542969 C 336.78125 420.042969 336.539062 419.558594 336.253906 419.097656 C 335.972656 418.636719 335.652344 418.199219 335.292969 417.792969 C 334.9375 417.382812 334.550781 417.007812 334.128906 416.664062 C 333.710938 416.320312 333.265625 416.015625 332.796875 415.746094 C 332.324219 415.476562 331.835938 415.25 331.324219 415.066406 C 330.816406 414.878906 330.296875 414.734375 329.761719 414.636719 C 329.230469 414.539062 328.691406 414.484375 328.148438 414.476562 C 320.984375 414.023438 314.945312 413.574219 308.910156 412.78125 C 307.441406 412.613281 305.242188 411.035156 305.1875 410.355469 C 304.863281 406.488281 304.769531 402.613281 304.902344 398.734375 C 304.960938 397.492188 304.960938 396.25 304.960938 395.007812 L 311.898438 394.332031 C 317.597656 393.710938 323.015625 393.203125 328.375 392.808594 C 328.914062 392.792969 329.445312 392.734375 329.972656 392.628906 C 330.503906 392.527344 331.019531 392.378906 331.519531 392.1875 C 332.023438 391.996094 332.507812 391.765625 332.972656 391.492188 C 333.433594 391.222656 333.875 390.914062 334.285156 390.566406 C 334.695312 390.222656 335.078125 389.84375 335.425781 389.433594 C 335.773438 389.023438 336.085938 388.585938 336.359375 388.125 C 336.636719 387.664062 336.871094 387.179688 337.066406 386.679688 C 337.257812 386.175781 337.410156 385.664062 337.515625 385.136719 C 341.015625 375.316406 344.402344 366.742188 347.957031 358.953125 C 348.253906 358.476562 348.515625 357.976562 348.730469 357.453125 C 348.949219 356.933594 349.125 356.398438 349.253906 355.847656 C 349.386719 355.300781 349.46875 354.742188 349.507812 354.179688 C 349.546875 353.617188 349.542969 353.054688 349.488281 352.492188 C 349.433594 351.929688 349.335938 351.375 349.191406 350.828125 C 349.046875 350.28125 348.859375 349.75 348.628906 349.234375 C 348.398438 348.71875 348.125 348.226562 347.816406 347.753906 C 347.503906 347.285156 347.15625 346.84375 346.769531 346.429688 C 343.214844 342.367188 339.773438 338.132812 336.5 334.070312 C 335.203125 332.546875 333.960938 331.023438 332.722656 329.558594 L 345.132812 317.089844 C 346.601562 318.273438 348.125 319.515625 349.589844 320.753906 C 353.484375 323.914062 357.433594 327.1875 361.269531 330.574219 C 361.695312 330.988281 362.15625 331.359375 362.648438 331.695312 C 363.140625 332.027344 363.65625 332.3125 364.199219 332.554688 C 364.742188 332.796875 365.300781 332.988281 365.878906 333.128906 C 366.453125 333.273438 367.039062 333.363281 367.632812 333.402344 C 368.226562 333.441406 368.816406 333.425781 369.40625 333.359375 C 369.996094 333.292969 370.574219 333.175781 371.144531 333.007812 C 371.714844 332.835938 372.265625 332.621094 372.796875 332.351562 C 373.328125 332.085938 373.828125 331.773438 374.304688 331.417969 C 382.804688 326.960938 391.550781 323.046875 400.542969 319.683594 C 401.121094 319.554688 401.6875 319.378906 402.234375 319.160156 C 402.785156 318.9375 403.3125 318.667969 403.816406 318.355469 C 404.320312 318.046875 404.796875 317.695312 405.242188 317.304688 C 405.6875 316.910156 406.097656 316.484375 406.472656 316.023438 C 406.847656 315.566406 407.179688 315.078125 407.472656 314.558594 C 407.761719 314.042969 408.007812 313.507812 408.210938 312.949219 C 408.410156 312.390625 408.566406 311.820312 408.667969 311.234375 C 408.773438 310.652344 408.832031 310.0625 408.835938 309.472656 C 409.0625 304.730469 409.570312 299.933594 410.019531 295.253906 L 410.527344 289.667969 L 410.585938 289.609375 C 472.371094 291.246094 527.382812 355.851562 503.0625 415.152344 Z M 410.132812 451.773438 C 410.023438 451.15625 409.964844 450.535156 409.964844 449.910156 L 409.964844 355.851562 C 409.277344 355.679688 408.621094 355.4375 407.988281 355.117188 C 406.609375 355.417969 405.246094 355.777344 403.894531 356.199219 C 402.546875 356.617188 401.21875 357.089844 399.910156 357.621094 C 398.601562 358.15625 397.316406 358.742188 396.058594 359.382812 C 394.800781 360.023438 393.570312 360.71875 392.371094 361.464844 C 391.171875 362.210938 390.007812 363.007812 388.875 363.855469 C 387.746094 364.699219 386.652344 365.59375 385.597656 366.53125 C 384.542969 367.472656 383.527344 368.457031 382.558594 369.480469 C 381.585938 370.507812 380.660156 371.574219 379.78125 372.679688 C 378.902344 373.785156 378.070312 374.925781 377.289062 376.101562 C 376.507812 377.277344 375.777344 378.484375 375.097656 379.722656 C 374.417969 380.960938 373.792969 382.226562 373.222656 383.519531 C 372.652344 384.8125 372.136719 386.125 371.679688 387.460938 C 371.21875 388.796875 370.820312 390.152344 370.476562 391.523438 C 370.132812 392.890625 369.847656 394.273438 369.625 395.667969 C 369.398438 397.0625 369.234375 398.464844 369.128906 399.875 C 369.023438 401.285156 368.980469 402.695312 368.996094 404.105469 C 369.011719 405.519531 369.085938 406.929688 369.222656 408.335938 C 369.359375 409.742188 369.554688 411.136719 369.808594 412.527344 C 370.066406 413.917969 370.378906 415.292969 370.753906 416.65625 C 371.125 418.019531 371.558594 419.363281 372.042969 420.6875 C 372.53125 422.011719 373.078125 423.316406 373.675781 424.59375 C 374.273438 425.875 374.929688 427.125 375.632812 428.347656 C 376.339844 429.574219 377.097656 430.765625 377.90625 431.921875 C 378.714844 433.082031 379.570312 434.203125 380.472656 435.289062 C 381.378906 436.375 382.324219 437.417969 383.320312 438.425781 C 384.3125 439.429688 385.347656 440.390625 386.421875 441.304688 C 387.496094 442.222656 388.609375 443.089844 389.757812 443.910156 C 390.910156 444.730469 392.089844 445.503906 393.308594 446.222656 C 394.523438 446.941406 395.765625 447.609375 397.039062 448.222656 C 398.3125 448.835938 399.609375 449.394531 400.925781 449.898438 C 402.246094 450.398438 403.585938 450.84375 404.945312 451.234375 C 406.304688 451.621094 407.675781 451.953125 409.0625 452.222656 C 409.289062 452.167969 409.457031 451.996094 409.683594 451.941406 C 409.835938 451.894531 409.988281 451.835938 410.132812 451.773438 Z M 410.132812 451.773438 " fill-opacity="1" fill-rule="nonzero"/></g></svg>