<svg xmlns="http://www.w3.org/2000/svg" xmlns:xlink="http://www.w3.org/1999/xlink" width="1080" zoomAndPan="magnify" viewBox="0 0 810 809.999993" height="1080" preserveAspectRatio="xMidYMid meet" version="1.0"><defs><clipPath id="f26aee91e0"><path d="M 60.261719 7.703125 L 749.738281 7.703125 L 749.738281 810 L 60.261719 810 Z M 60.261719 7.703125 " clip-rule="nonzero"/></clipPath><clipPath id="cc4eb799cd"><path d="M 405 7.703125 L 749.738281 208.277344 L 749.738281 609.425781 L 405 810 L 60.261719 609.425781 L 60.261719 208.277344 Z M 405 7.703125 " clip-rule="nonzero"/></clipPath></defs><g clip-path="url(#f26aee91e0)"><g clip-path="url(#cc4eb799cd)"><path fill="#b5c224" d="M 60.261719 7.703125 L 749.738281 7.703125 L 749.738281 810.292969 L 60.261719 810.292969 Z M 60.261719 7.703125 " fill-opacity="1" fill-rule="nonzero"/></g></g><path fill="#5b1880" d="M 564.902344 611.128906 C 563.035156 605.355469 560.390625 599.957031 556.972656 594.9375 C 553.554688 589.917969 549.5 585.480469 544.808594 581.625 C 538.160156 576.460938 533.914062 578.582031 517.074219 570.09375 C 513.960938 568.535156 511.484375 567.121094 509.855469 566.199219 C 503.914062 555.515625 498.179688 545.257812 492.589844 535.210938 C 494.976562 533.722656 497.324219 532.179688 499.632812 530.582031 C 501.945312 528.984375 504.214844 527.335938 506.449219 525.628906 C 508.679688 523.921875 510.871094 522.164062 513.019531 520.355469 C 515.167969 518.542969 517.269531 516.683594 519.332031 514.773438 C 521.390625 512.863281 523.402344 510.90625 525.371094 508.898438 C 527.335938 506.894531 529.253906 504.839844 531.121094 502.742188 C 532.992188 500.648438 534.808594 498.503906 536.578125 496.320312 C 538.34375 494.136719 540.058594 491.914062 541.71875 489.648438 C 543.378906 487.382812 544.984375 485.078125 546.535156 482.734375 C 548.085938 480.394531 549.582031 478.015625 551.019531 475.601562 C 552.457031 473.1875 553.835938 470.742188 555.160156 468.265625 C 556.480469 465.785156 557.742188 463.277344 558.945312 460.738281 C 560.148438 458.199219 561.289062 455.632812 562.367188 453.039062 C 563.449219 450.445312 564.464844 447.828125 565.421875 445.183594 C 566.375 442.542969 567.265625 439.878906 568.09375 437.195312 C 568.921875 434.511719 569.6875 431.808594 570.386719 429.089844 C 571.085938 426.367188 571.722656 423.632812 572.292969 420.882812 C 572.859375 418.128906 573.363281 415.367188 573.800781 412.59375 C 574.238281 409.816406 574.613281 407.035156 574.917969 404.242188 C 575.222656 401.449219 575.460938 398.648438 575.632812 395.847656 C 575.804688 393.042969 575.910156 390.234375 575.949219 387.425781 C 575.988281 384.617188 575.957031 381.808594 575.863281 379.003906 C 575.769531 376.195312 575.605469 373.390625 575.378906 370.589844 C 575.148438 367.789062 574.851562 364.996094 574.492188 362.210938 C 574.128906 359.425781 573.703125 356.652344 573.207031 353.886719 C 572.714844 351.121094 572.15625 348.367188 571.53125 345.628906 C 570.90625 342.890625 570.214844 340.167969 569.460938 337.460938 C 568.707031 334.753906 567.886719 332.070312 567.003906 329.402344 C 566.121094 326.734375 565.175781 324.089844 564.167969 321.46875 C 563.160156 318.847656 562.089844 316.25 560.957031 313.679688 C 559.824219 311.109375 558.632812 308.566406 557.378906 306.050781 C 556.125 303.535156 554.8125 301.054688 553.441406 298.601562 C 504.882812 209.378906 394.382812 179.394531 304.996094 230.394531 C 302.433594 231.882812 299.914062 233.433594 297.429688 235.046875 C 294.945312 236.660156 292.5 238.335938 290.101562 240.070312 C 287.699219 241.808594 285.34375 243.601562 283.035156 245.457031 C 280.722656 247.308594 278.460938 249.222656 276.246094 251.1875 C 274.03125 253.15625 271.867188 255.175781 269.753906 257.253906 C 267.640625 259.328125 265.578125 261.457031 263.570312 263.632812 C 261.5625 265.8125 259.613281 268.042969 257.71875 270.316406 C 255.820312 272.59375 253.984375 274.917969 252.203125 277.285156 C 250.425781 279.652344 248.707031 282.066406 247.046875 284.519531 C 245.386719 286.972656 243.792969 289.46875 242.257812 292.003906 C 240.722656 294.539062 239.253906 297.109375 237.851562 299.71875 C 236.445312 302.324219 235.105469 304.96875 233.832031 307.640625 C 232.558594 310.316406 231.355469 313.023438 230.21875 315.757812 C 229.082031 318.492188 228.011719 321.253906 227.011719 324.042969 C 226.011719 326.832031 225.085938 329.644531 224.226562 332.480469 C 223.367188 335.316406 222.582031 338.171875 221.867188 341.046875 C 221.152344 343.921875 220.507812 346.8125 219.9375 349.71875 C 219.367188 352.625 218.867188 355.546875 218.445312 358.476562 C 218.019531 361.410156 217.667969 364.351562 217.390625 367.300781 C 217.113281 370.25 216.910156 373.203125 216.78125 376.164062 C 216.652344 379.125 216.597656 382.085938 216.617188 385.046875 C 216.632812 388.007812 216.726562 390.96875 216.894531 393.925781 C 217.0625 396.882812 217.300781 399.835938 217.617188 402.78125 C 217.929688 405.726562 218.320312 408.664062 218.78125 411.589844 C 219.242188 414.515625 219.777344 417.429688 220.386719 420.328125 C 220.992188 423.226562 221.671875 426.109375 222.425781 428.976562 C 223.175781 431.839844 224 434.6875 224.894531 437.511719 C 225.789062 440.335938 226.753906 443.136719 227.789062 445.910156 C 228.824219 448.6875 229.925781 451.4375 231.097656 454.15625 C 232.269531 456.878906 233.507812 459.566406 234.816406 462.226562 C 236.121094 464.882812 237.496094 467.507812 238.933594 470.097656 C 240.371094 472.6875 241.875 475.242188 243.441406 477.753906 C 294.949219 562.378906 399.953125 582.542969 469.859375 546.953125 C 470.132812 546.730469 470.367188 546.46875 470.566406 546.175781 C 476.15625 556.789062 481.675781 567.332031 487.191406 577.945312 C 487.40625 579.140625 487.453125 580.34375 487.335938 581.554688 C 487.140625 583.699219 486.597656 585.75 485.707031 587.710938 C 482.578125 595.835938 480.125 604.160156 478.347656 612.6875 C 477.921875 614.542969 477.792969 616.421875 477.960938 618.320312 C 478.128906 620.21875 478.589844 622.042969 479.339844 623.796875 C 485.847656 636.742188 492.640625 649.550781 500.355469 661.792969 C 503.042969 666.105469 509.199219 671.769531 512.664062 671.132812 C 516.839844 670.351562 520.945312 663.914062 523.136719 659.03125 C 526.164062 651.121094 528.6875 643.054688 530.707031 634.832031 C 542.59375 637.734375 552.710938 640.777344 563.042969 642.476562 C 572.808594 644.101562 577.546875 637.59375 573.65625 628.605469 C 571.109375 622.59375 567.078125 617.214844 564.902344 611.128906 Z M 450.773438 392.28125 C 449.765625 397.460938 448.144531 402.4375 445.902344 407.214844 C 443.664062 411.992188 440.878906 416.425781 437.542969 420.515625 C 435.980469 422.765625 434.28125 424.914062 432.449219 426.953125 C 427.992188 418.886719 424.3125 412.164062 421.410156 406.859375 C 433.085938 391.433594 432.875 373.957031 421.554688 361.859375 C 420.882812 361.109375 420.183594 360.394531 419.449219 359.710938 C 418.71875 359.023438 417.957031 358.375 417.167969 357.757812 C 416.375 357.140625 415.558594 356.558594 414.71875 356.011719 C 413.875 355.46875 413.011719 354.960938 412.125 354.492188 C 411.238281 354.027344 410.332031 353.597656 409.40625 353.210938 C 408.480469 352.824219 407.542969 352.476562 406.585938 352.171875 C 405.628906 351.867188 404.664062 351.605469 403.683594 351.386719 C 402.707031 351.167969 401.71875 350.996094 400.726562 350.863281 C 399.730469 350.734375 398.734375 350.648438 397.730469 350.605469 C 396.730469 350.5625 395.726562 350.5625 394.726562 350.609375 C 393.722656 350.65625 392.726562 350.75 391.730469 350.882812 C 390.738281 351.019531 389.753906 351.199219 388.773438 351.421875 C 387.796875 351.644531 386.832031 351.90625 385.875 352.214844 C 384.921875 352.523438 383.984375 352.875 383.058594 353.265625 C 382.136719 353.660156 381.234375 354.089844 380.347656 354.5625 C 379.464844 355.035156 378.601562 355.542969 377.761719 356.09375 C 376.921875 356.640625 376.109375 357.226562 375.320312 357.847656 C 374.53125 358.464844 373.773438 359.121094 373.042969 359.808594 C 372.316406 360.496094 371.617188 361.214844 370.953125 361.964844 C 370.285156 362.714844 369.652344 363.492188 369.058594 364.300781 C 368.460938 365.105469 367.902344 365.9375 367.378906 366.792969 C 366.855469 367.648438 366.371094 368.523438 365.925781 369.421875 C 365.480469 370.320312 365.074219 371.238281 364.710938 372.171875 C 364.347656 373.109375 364.027344 374.054688 363.746094 375.019531 C 363.464844 375.980469 363.230469 376.957031 363.035156 377.941406 C 362.84375 378.925781 362.695312 379.914062 362.589844 380.910156 C 362.484375 381.910156 362.421875 382.910156 362.40625 383.910156 C 362.390625 384.914062 362.417969 385.917969 362.488281 386.917969 C 362.5625 387.917969 362.679688 388.910156 362.839844 389.902344 C 363 390.890625 363.203125 391.871094 363.453125 392.84375 C 363.699219 393.816406 363.988281 394.773438 364.320312 395.722656 C 364.65625 396.667969 365.027344 397.597656 365.445312 398.507812 C 365.824219 399.359375 366.238281 400.191406 366.691406 401.003906 C 367.140625 401.820312 367.628906 402.609375 368.148438 403.382812 C 368.671875 404.152344 369.226562 404.898438 369.8125 405.621094 C 370.402344 406.34375 371.019531 407.039062 371.667969 407.707031 C 372.316406 408.371094 372.992188 409.011719 373.699219 409.617188 C 374.402344 410.226562 375.132812 410.800781 375.890625 411.34375 C 376.644531 411.890625 377.421875 412.398438 378.222656 412.871094 C 379.023438 413.347656 379.84375 413.785156 380.683594 414.191406 C 381.523438 414.59375 382.378906 414.957031 383.25 415.285156 C 384.121094 415.613281 385.003906 415.902344 385.902344 416.148438 C 386.796875 416.398438 387.703125 416.609375 388.617188 416.777344 C 389.535156 416.949219 390.453125 417.078125 391.382812 417.164062 C 392.308594 417.253906 393.234375 417.300781 394.167969 417.308594 C 395.097656 417.316406 396.027344 417.28125 396.953125 417.207031 C 397.882812 417.128906 398.804688 417.015625 399.722656 416.859375 C 400.640625 416.703125 401.546875 416.503906 402.449219 416.269531 C 402.449219 416.339844 402.519531 416.339844 402.519531 416.410156 L 413.34375 437 C 410.160156 437.285156 406.269531 437.777344 401.457031 438.414062 C 399.636719 438.605469 397.8125 438.703125 395.984375 438.710938 C 394.152344 438.714844 392.328125 438.628906 390.503906 438.449219 C 388.683594 438.269531 386.875 438 385.082031 437.636719 C 383.289062 437.277344 381.515625 436.824219 379.769531 436.285156 C 378.019531 435.742188 376.304688 435.113281 374.617188 434.398438 C 372.933594 433.683594 371.289062 432.886719 369.683594 432.003906 C 368.082031 431.121094 366.527344 430.160156 365.019531 429.121094 C 363.511719 428.085938 362.0625 426.972656 360.667969 425.785156 C 359.273438 424.601562 357.941406 423.347656 356.675781 422.027344 C 355.410156 420.707031 354.210938 419.324219 353.082031 417.882812 C 351.957031 416.441406 350.90625 414.945312 349.929688 413.398438 C 348.953125 411.851562 348.058594 410.257812 347.242188 408.617188 C 346.425781 406.980469 345.695312 405.304688 345.050781 403.589844 C 344.40625 401.878906 343.851562 400.136719 343.378906 398.367188 C 342.910156 396.597656 342.535156 394.808594 342.246094 393.003906 C 341.957031 391.195312 341.761719 389.378906 341.65625 387.550781 C 341.554688 385.722656 341.542969 383.894531 341.625 382.066406 C 341.703125 380.238281 341.878906 378.417969 342.144531 376.609375 C 342.40625 374.796875 342.765625 373.003906 343.210938 371.230469 C 343.65625 369.453125 344.191406 367.707031 344.816406 365.984375 C 345.441406 364.265625 346.148438 362.582031 346.941406 360.929688 C 347.738281 359.28125 348.613281 357.675781 349.570312 356.117188 C 350.527344 354.558594 351.558594 353.050781 352.667969 351.59375 C 353.777344 350.136719 354.957031 348.742188 356.207031 347.40625 C 357.457031 346.070312 358.773438 344.800781 360.152344 343.597656 C 361.53125 342.394531 362.96875 341.261719 364.460938 340.203125 C 365.957031 339.148438 367.5 338.167969 369.089844 337.265625 C 370.683594 336.363281 372.320312 335.546875 373.996094 334.808594 C 375.671875 334.074219 377.378906 333.421875 379.121094 332.859375 C 380.863281 332.296875 382.625 331.824219 384.417969 331.4375 C 386.207031 331.054688 388.011719 330.761719 389.828125 330.558594 C 391.648438 330.355469 393.472656 330.246094 395.300781 330.230469 C 397.894531 330.109375 400.476562 330.179688 403.058594 330.445312 C 405.636719 330.710938 408.183594 331.167969 410.695312 331.8125 C 413.207031 332.457031 415.65625 333.285156 418.042969 334.296875 C 420.429688 335.308594 422.730469 336.492188 424.941406 337.847656 C 427.152344 339.203125 429.25 340.714844 431.238281 342.382812 C 433.222656 344.050781 435.070312 345.855469 436.789062 347.800781 C 438.503906 349.746094 440.0625 351.808594 441.472656 353.984375 C 442.878906 356.164062 444.117188 358.433594 445.183594 360.796875 C 447.609375 365.667969 449.296875 370.78125 450.242188 376.136719 C 451.191406 381.496094 451.359375 386.875 450.753906 392.28125 Z M 466.484375 488.226562 C 462.734375 481.648438 459.195312 475.277344 455.871094 469.265625 C 499.242188 442.378906 513.605469 380.183594 487.566406 334.191406 C 486.742188 332.710938 485.882812 331.253906 484.988281 329.816406 C 484.089844 328.378906 483.160156 326.960938 482.195312 325.570312 C 481.234375 324.175781 480.234375 322.808594 479.203125 321.460938 C 478.171875 320.117188 477.109375 318.800781 476.015625 317.507812 C 474.921875 316.214844 473.796875 314.949219 472.640625 313.710938 C 471.484375 312.472656 470.296875 311.261719 469.082031 310.082031 C 467.867188 308.898438 466.625 307.75 465.355469 306.628906 C 464.085938 305.507812 462.789062 304.417969 461.464844 303.359375 C 460.140625 302.300781 458.792969 301.277344 457.417969 300.285156 C 456.046875 299.292969 454.648438 298.332031 453.230469 297.410156 C 451.8125 296.484375 450.371094 295.59375 448.90625 294.738281 C 447.445312 293.886719 445.960938 293.066406 444.460938 292.285156 C 442.957031 291.5 441.4375 290.753906 439.898438 290.046875 C 438.359375 289.335938 436.804688 288.664062 435.234375 288.03125 C 433.660156 287.398438 432.074219 286.800781 430.476562 286.246094 C 428.875 285.6875 427.261719 285.171875 425.636719 284.691406 C 424.011719 284.214844 422.375 283.773438 420.730469 283.375 C 419.082031 282.976562 417.429688 282.617188 415.765625 282.296875 C 414.101562 281.980469 412.429688 281.703125 410.753906 281.464844 C 409.074219 281.226562 407.394531 281.027344 405.707031 280.871094 C 404.019531 280.714844 402.328125 280.601562 400.636719 280.527344 C 398.945312 280.453125 397.25 280.417969 395.554688 280.425781 C 393.863281 280.433594 392.167969 280.480469 390.476562 280.570312 C 388.785156 280.660156 387.097656 280.792969 385.410156 280.964844 C 383.726562 281.136719 382.046875 281.347656 380.371094 281.601562 C 378.695312 281.855469 377.027344 282.148438 375.367188 282.484375 C 373.707031 282.816406 372.054688 283.191406 370.410156 283.605469 C 368.769531 284.019531 367.136719 284.472656 365.515625 284.96875 C 363.894531 285.460938 362.285156 285.992188 360.691406 286.5625 C 359.097656 287.136719 357.515625 287.746094 355.953125 288.394531 C 354.386719 289.042969 352.835938 289.726562 351.304688 290.449219 C 349.773438 291.171875 348.257812 291.933594 346.765625 292.730469 C 345.277344 293.519531 343.8125 294.347656 342.367188 295.210938 C 340.921875 296.074219 339.5 296.972656 338.097656 297.902344 C 336.695312 298.835938 335.316406 299.800781 333.964844 300.800781 C 332.609375 301.800781 331.28125 302.832031 329.976562 303.894531 C 328.671875 304.960938 327.394531 306.054688 326.144531 307.183594 C 324.890625 308.308594 323.667969 309.464844 322.476562 310.652344 C 321.28125 311.835938 320.117188 313.050781 318.980469 314.292969 C 317.847656 315.539062 316.742188 316.808594 315.667969 318.105469 C 314.59375 319.402344 313.554688 320.722656 312.546875 322.070312 C 311.535156 323.417969 310.5625 324.789062 309.621094 326.183594 C 308.679688 327.578125 307.769531 328.996094 306.898438 330.4375 C 306.023438 331.875 305.1875 333.335938 304.386719 334.816406 C 303.585938 336.296875 302.820312 337.792969 302.089844 339.3125 C 301.363281 340.828125 300.671875 342.363281 300.019531 343.914062 C 299.363281 345.464844 298.75 347.03125 298.171875 348.613281 C 297.59375 350.195312 297.054688 351.789062 296.554688 353.394531 C 296.054688 355.003906 295.597656 356.621094 295.175781 358.253906 C 294.753906 359.882812 294.375 361.519531 294.035156 363.167969 C 293.691406 364.816406 293.394531 366.472656 293.132812 368.136719 C 292.871094 369.800781 292.652344 371.46875 292.476562 373.140625 C 292.296875 374.816406 292.160156 376.492188 292.0625 378.171875 C 291.964844 379.855469 291.910156 381.535156 291.894531 383.21875 C 291.878906 384.902344 291.90625 386.585938 291.972656 388.265625 C 292.039062 389.949219 292.148438 391.628906 292.296875 393.304688 C 292.445312 394.980469 292.636719 396.652344 292.867188 398.320312 C 293.097656 399.988281 293.367188 401.648438 293.679688 403.304688 C 293.992188 404.957031 294.34375 406.601562 294.734375 408.238281 C 295.128906 409.878906 295.558594 411.503906 296.03125 413.121094 C 296.5 414.734375 297.011719 416.339844 297.5625 417.929688 C 298.109375 419.519531 298.699219 421.097656 299.324219 422.660156 C 299.953125 424.222656 300.617188 425.769531 301.316406 427.300781 C 302.019531 428.828125 302.757812 430.339844 303.53125 431.835938 C 327.871094 479.101562 388.792969 502.09375 435.847656 479.949219 C 439.453125 486.882812 443.132812 493.746094 446.742188 500.679688 C 446.035156 500.609375 445.328125 500.539062 444.621094 500.539062 C 369.902344 527.78125 303.109375 487.945312 279.898438 430.207031 C 279.222656 428.46875 278.582031 426.710938 277.980469 424.941406 C 277.382812 423.171875 276.820312 421.390625 276.300781 419.59375 C 275.78125 417.800781 275.300781 415.996094 274.863281 414.179688 C 274.421875 412.363281 274.023438 410.539062 273.667969 408.703125 C 273.308594 406.871094 272.992188 405.027344 272.71875 403.179688 C 272.445312 401.332031 272.210938 399.476562 272.019531 397.621094 C 271.828125 395.761719 271.675781 393.898438 271.570312 392.035156 C 271.460938 390.167969 271.394531 388.300781 271.371094 386.433594 C 271.34375 384.5625 271.363281 382.695312 271.421875 380.828125 C 271.480469 378.960938 271.582031 377.09375 271.726562 375.230469 C 271.867188 373.371094 272.054688 371.511719 272.28125 369.65625 C 272.503906 367.800781 272.773438 365.953125 273.082031 364.109375 C 273.390625 362.265625 273.742188 360.429688 274.132812 358.605469 C 274.527344 356.777344 274.957031 354.960938 275.429688 353.152344 C 275.902344 351.34375 276.417969 349.546875 276.972656 347.761719 C 277.523438 345.976562 278.117188 344.207031 278.75 342.449219 C 279.382812 340.691406 280.054688 338.949219 280.765625 337.21875 C 281.480469 335.492188 282.226562 333.78125 283.015625 332.085938 C 283.804688 330.390625 284.628906 328.714844 285.492188 327.058594 C 286.355469 325.402344 287.253906 323.765625 288.191406 322.148438 C 289.128906 320.53125 290.101562 318.933594 291.109375 317.363281 C 292.117188 315.789062 293.160156 314.238281 294.238281 312.710938 C 295.316406 311.1875 296.425781 309.683594 297.570312 308.207031 C 298.714844 306.730469 299.894531 305.28125 301.105469 303.855469 C 302.3125 302.433594 303.554688 301.035156 304.828125 299.667969 C 306.101562 298.300781 307.402344 296.960938 308.734375 295.652344 C 310.066406 294.339844 311.429688 293.0625 312.820312 291.8125 C 314.210938 290.5625 315.625 289.347656 317.070312 288.160156 C 318.515625 286.976562 319.984375 285.824219 321.484375 284.703125 C 322.980469 283.585938 324.5 282.5 326.042969 281.449219 C 327.589844 280.398438 329.15625 279.382812 330.746094 278.402344 C 332.339844 277.421875 333.949219 276.476562 335.582031 275.566406 C 337.214844 274.660156 338.867188 273.789062 340.539062 272.953125 C 342.210938 272.117188 343.902344 271.320312 345.609375 270.5625 C 347.316406 269.804688 349.039062 269.085938 350.78125 268.402344 C 352.519531 267.722656 354.273438 267.082031 356.042969 266.476562 C 357.8125 265.875 359.59375 265.3125 361.386719 264.789062 C 363.183594 264.265625 364.988281 263.785156 366.800781 263.34375 C 368.617188 262.902344 370.441406 262.5 372.277344 262.140625 C 374.109375 261.78125 375.949219 261.460938 377.796875 261.183594 C 379.644531 260.90625 381.5 260.671875 383.359375 260.476562 C 385.214844 260.28125 387.078125 260.128906 388.941406 260.019531 C 390.808594 259.90625 392.675781 259.839844 394.542969 259.8125 C 396.414062 259.785156 398.28125 259.800781 400.148438 259.855469 C 402.015625 259.914062 403.882812 260.011719 405.746094 260.152344 C 407.609375 260.292969 409.46875 260.472656 411.324219 260.699219 C 413.175781 260.921875 415.027344 261.1875 416.871094 261.492188 C 418.714844 261.800781 420.546875 262.148438 422.375 262.535156 C 424.203125 262.925781 426.023438 263.355469 427.832031 263.828125 C 429.640625 264.296875 431.4375 264.808594 433.222656 265.359375 C 435.007812 265.910156 436.777344 266.5 438.539062 267.132812 C 440.296875 267.761719 442.039062 268.429688 443.769531 269.140625 C 445.5 269.847656 447.210938 270.597656 448.90625 271.382812 C 450.601562 272.167969 452.277344 272.992188 453.9375 273.851562 C 455.597656 274.710938 457.234375 275.609375 458.851562 276.542969 C 460.472656 277.476562 462.066406 278.449219 463.640625 279.453125 C 465.214844 280.460938 466.769531 281.5 468.296875 282.574219 C 469.824219 283.652344 471.328125 284.761719 472.804688 285.902344 C 474.285156 287.046875 475.734375 288.222656 477.160156 289.429688 C 478.585938 290.636719 479.984375 291.878906 481.355469 293.148438 C 482.726562 294.417969 484.066406 295.71875 485.378906 297.050781 C 486.691406 298.378906 487.972656 299.738281 489.222656 301.128906 C 490.472656 302.515625 491.691406 303.933594 492.878906 305.375 C 494.066406 306.816406 495.21875 308.285156 496.34375 309.78125 C 498.636719 312.757812 500.785156 315.835938 502.789062 319.015625 C 504.796875 322.191406 506.648438 325.457031 508.347656 328.808594 C 510.050781 332.160156 511.589844 335.585938 512.96875 339.078125 C 514.351562 342.574219 515.5625 346.128906 516.613281 349.738281 C 517.660156 353.347656 518.539062 356.996094 519.242188 360.6875 C 519.949219 364.378906 520.484375 368.09375 520.84375 371.835938 C 521.203125 375.574219 521.386719 379.324219 521.394531 383.082031 C 521.402344 386.84375 521.234375 390.59375 520.894531 394.335938 C 520.578125 399.011719 519.996094 403.660156 519.148438 408.269531 C 518.300781 412.882812 517.191406 417.429688 515.820312 421.914062 C 514.453125 426.398438 512.832031 430.792969 510.957031 435.089844 C 509.085938 439.390625 506.972656 443.566406 504.621094 447.625 C 502.269531 451.679688 499.691406 455.589844 496.890625 459.351562 C 494.09375 463.113281 491.085938 466.703125 487.875 470.121094 C 484.664062 473.539062 481.269531 476.757812 477.6875 479.789062 C 474.105469 482.816406 470.363281 485.628906 466.460938 488.226562 Z M 466.484375 488.226562 " fill-opacity="1" fill-rule="nonzero"/></svg>