<svg xmlns="http://www.w3.org/2000/svg" xmlns:xlink="http://www.w3.org/1999/xlink" width="1080" zoomAndPan="magnify" viewBox="0 0 810 809.999993" height="1080" preserveAspectRatio="xMidYMid meet" version="1.0"><defs><clipPath id="a07fee5302"><path d="M 56.953125 0 L 753.046875 0 L 753.046875 810 L 56.953125 810 Z M 56.953125 0 " clip-rule="nonzero"/></clipPath><clipPath id="face83b81e"><path d="M 405 0 L 753.046875 202.5 L 753.046875 607.5 L 405 810 L 56.953125 607.5 L 56.953125 202.5 Z M 405 0 " clip-rule="nonzero"/></clipPath><clipPath id="2d0233da4c"><path d="M 200.023438 226.855469 L 610 226.855469 L 610 583.105469 L 200.023438 583.105469 Z M 200.023438 226.855469 " clip-rule="nonzero"/></clipPath></defs><g clip-path="url(#a07fee5302)"><g clip-path="url(#face83b81e)"><path fill="#b5c224" d="M 56.953125 0 L 753.046875 0 L 753.046875 810.296875 L 56.953125 810.296875 Z M 56.953125 0 " fill-opacity="1" fill-rule="nonzero"/></g></g><g clip-path="url(#2d0233da4c)"><path fill="#5b1880" d="M 609.410156 237.578125 C 609.476562 237.539062 609.535156 237.492188 609.601562 237.453125 L 409.871094 580.066406 C 408.734375 582.015625 406.660156 583.171875 404.46875 583.171875 C 404.074219 583.171875 403.675781 583.136719 403.277344 583.058594 C 400.667969 582.554688 398.664062 580.457031 398.277344 577.828125 L 368.921875 378.457031 Z M 207.125 226.855469 C 204.472656 226.855469 202.109375 228.527344 201.226562 231.027344 C 200.34375 233.527344 201.128906 236.3125 203.191406 237.976562 L 363.144531 367.339844 L 602.957031 226.855469 Z M 207.125 226.855469 " fill-opacity="1" fill-rule="nonzero"/></g></svg>