<svg xmlns="http://www.w3.org/2000/svg" xmlns:xlink="http://www.w3.org/1999/xlink" width="1080" zoomAndPan="magnify" viewBox="0 0 810 809.999993" height="1080" preserveAspectRatio="xMidYMid meet" version="1.0"><defs><clipPath id="2e56ce4d71"><path d="M 1 53.019531 L 810 53.019531 L 810 757.269531 L 1 757.269531 Z M 1 53.019531 " clip-rule="nonzero"/></clipPath></defs><rect x="-81" width="972" fill="#ffffff" y="-80.999999" height="971.999992" fill-opacity="1"/><rect x="-81" width="972" fill="#ffffff" y="-80.999999" height="971.999992" fill-opacity="1"/><g clip-path="url(#2e56ce4d71)"><path fill="#5b1880" d="M 808.890625 74.199219 C 809.019531 74.121094 809.136719 74.035156 809.261719 73.953125 L 414.628906 750.898438 C 412.386719 754.746094 408.289062 757.035156 403.953125 757.035156 C 403.175781 757.035156 402.390625 756.964844 401.605469 756.8125 C 396.449219 755.816406 392.484375 751.671875 391.722656 746.476562 L 333.722656 352.550781 Z M 14.042969 53.019531 C 8.804688 53.019531 4.132812 56.320312 2.386719 61.257812 C 0.640625 66.195312 2.195312 71.699219 6.269531 74.992188 L 322.308594 330.582031 L 796.132812 53.019531 Z M 14.042969 53.019531 " fill-opacity="1" fill-rule="nonzero"/></g></svg>