<svg xmlns="http://www.w3.org/2000/svg" xmlns:xlink="http://www.w3.org/1999/xlink" width="1080" zoomAndPan="magnify" viewBox="0 0 810 809.999993" height="1080" preserveAspectRatio="xMidYMid meet" version="1.0"><rect x="-81" width="972" fill="#ffffff" y="-80.999999" height="971.999992" fill-opacity="1"/><rect x="-81" width="972" fill="#ffffff" y="-80.999999" height="971.999992" fill-opacity="1"/><path fill="#5b1880" d="M 666.421875 708.277344 C 664.898438 703.578125 663.050781 699.011719 660.878906 694.578125 C 658.707031 690.144531 656.230469 685.886719 653.453125 681.804688 C 650.671875 677.722656 647.617188 673.859375 644.285156 670.214844 C 640.957031 666.566406 637.382812 663.175781 633.570312 660.039062 C 622.695312 651.59375 615.753906 655.066406 588.226562 641.183594 C 583.136719 638.640625 579.085938 636.328125 576.425781 634.824219 C 566.710938 617.355469 557.339844 600.582031 548.203125 584.15625 C 552.097656 581.726562 555.9375 579.207031 559.714844 576.59375 C 563.492188 573.984375 567.207031 571.28125 570.855469 568.496094 C 574.503906 565.707031 578.085938 562.832031 581.597656 559.871094 C 585.109375 556.914062 588.546875 553.871094 591.914062 550.75 C 595.28125 547.625 598.574219 544.425781 601.789062 541.144531 C 605.003906 537.863281 608.140625 534.511719 611.195312 531.082031 C 614.25 527.652344 617.222656 524.152344 620.109375 520.582031 C 623 517.011719 625.800781 513.375 628.515625 509.671875 C 631.230469 505.964844 633.855469 502.199219 636.394531 498.371094 C 638.929688 494.542969 641.371094 490.65625 643.722656 486.707031 C 646.074219 482.761719 648.328125 478.765625 650.488281 474.710938 C 652.652344 470.660156 654.714844 466.558594 656.679688 462.40625 C 658.644531 458.253906 660.507812 454.058594 662.273438 449.820312 C 664.039062 445.578125 665.703125 441.300781 667.265625 436.980469 C 668.828125 432.664062 670.285156 428.308594 671.636719 423.921875 C 672.992188 419.53125 674.242188 415.113281 675.386719 410.664062 C 676.53125 406.21875 677.566406 401.746094 678.5 397.246094 C 679.429688 392.75 680.253906 388.234375 680.96875 383.695312 C 681.683594 379.160156 682.292969 374.609375 682.789062 370.042969 C 683.289062 365.480469 683.679688 360.902344 683.960938 356.320312 C 684.242188 351.734375 684.414062 347.148438 684.476562 342.554688 C 684.539062 337.964844 684.492188 333.371094 684.339844 328.78125 C 684.183594 324.191406 683.917969 319.609375 683.542969 315.03125 C 683.167969 310.453125 682.6875 305.886719 682.09375 301.332031 C 681.503906 296.777344 680.804688 292.242188 679.996094 287.71875 C 679.1875 283.199219 678.273438 278.699219 677.253906 274.222656 C 676.230469 269.746094 675.101562 265.292969 673.871094 260.871094 C 672.636719 256.445312 671.296875 252.054688 669.855469 247.695312 C 668.410156 243.332031 666.867188 239.011719 665.21875 234.722656 C 663.570312 230.4375 661.820312 226.191406 659.96875 221.988281 C 658.117188 217.785156 656.167969 213.628906 654.117188 209.519531 C 652.070312 205.410156 649.925781 201.347656 647.683594 197.339844 C 568.292969 51.476562 387.644531 2.453125 241.511719 85.832031 C 237.324219 88.261719 233.199219 90.796875 229.136719 93.4375 C 225.078125 96.074219 221.085938 98.8125 217.160156 101.652344 C 213.234375 104.488281 209.382812 107.425781 205.605469 110.453125 C 201.828125 113.484375 198.128906 116.609375 194.507812 119.824219 C 190.886719 123.042969 187.351562 126.347656 183.894531 129.742188 C 180.4375 133.132812 177.070312 136.613281 173.789062 140.175781 C 170.507812 143.734375 167.316406 147.378906 164.21875 151.101562 C 161.117188 154.820312 158.113281 158.617188 155.203125 162.492188 C 152.296875 166.363281 149.484375 170.304688 146.773438 174.316406 C 144.0625 178.332031 141.453125 182.410156 138.945312 186.554688 C 136.4375 190.695312 134.035156 194.898438 131.738281 199.164062 C 129.441406 203.429688 127.25 207.746094 125.171875 212.121094 C 123.089844 216.492188 121.121094 220.914062 119.261719 225.386719 C 117.402344 229.859375 115.652344 234.375 114.019531 238.933594 C 112.386719 243.496094 110.867188 248.09375 109.464844 252.726562 C 108.0625 257.363281 106.777344 262.03125 105.605469 266.730469 C 104.4375 271.429688 103.386719 276.15625 102.453125 280.910156 C 101.519531 285.660156 100.707031 290.433594 100.011719 295.226562 C 99.316406 300.019531 98.742188 304.828125 98.289062 309.652344 C 97.835938 314.472656 97.503906 319.300781 97.292969 324.140625 C 97.082031 328.980469 96.992188 333.820312 97.023438 338.664062 C 97.054688 343.507812 97.203125 348.347656 97.476562 353.183594 C 97.75 358.015625 98.144531 362.84375 98.660156 367.660156 C 99.175781 372.472656 99.808594 377.273438 100.5625 382.058594 C 101.320312 386.84375 102.191406 391.605469 103.1875 396.34375 C 104.179688 401.085938 105.292969 405.796875 106.519531 410.480469 C 107.75 415.167969 109.09375 419.816406 110.558594 424.433594 C 112.019531 429.050781 113.597656 433.628906 115.289062 438.167969 C 116.980469 442.707031 118.78125 447.199219 120.699219 451.648438 C 122.617188 456.097656 124.640625 460.492188 126.777344 464.839844 C 128.914062 469.1875 131.160156 473.476562 133.507812 477.710938 C 135.859375 481.945312 138.316406 486.117188 140.875 490.230469 C 225.085938 628.574219 396.75 661.542969 511.035156 603.359375 C 511.480469 602.988281 511.867188 602.566406 512.191406 602.085938 C 521.332031 619.4375 530.351562 636.671875 539.375 654.023438 C 539.722656 655.980469 539.800781 657.945312 539.605469 659.925781 C 539.289062 663.429688 538.402344 666.785156 536.945312 669.988281 C 531.828125 683.273438 527.820312 696.882812 524.917969 710.820312 C 524.21875 713.855469 524.003906 716.925781 524.28125 720.03125 C 524.558594 723.132812 525.308594 726.117188 526.535156 728.980469 C 537.179688 750.148438 548.28125 771.085938 560.890625 791.097656 C 565.285156 798.15625 575.351562 807.410156 581.019531 806.367188 C 587.84375 805.09375 594.550781 794.570312 598.136719 786.585938 C 603.085938 773.65625 607.210938 760.46875 610.515625 747.027344 C 629.949219 751.769531 646.492188 756.742188 663.378906 759.519531 C 679.34375 762.179688 687.09375 751.539062 680.730469 736.847656 C 676.566406 727.015625 669.972656 718.222656 666.421875 708.277344 Z M 479.835938 350.492188 C 478.1875 358.960938 475.535156 367.097656 471.875 374.90625 C 468.214844 382.71875 463.65625 389.964844 458.207031 396.648438 C 455.648438 400.332031 452.875 403.839844 449.878906 407.175781 C 442.589844 393.988281 436.574219 383 431.832031 374.324219 C 450.917969 349.105469 450.570312 320.535156 432.0625 300.753906 C 430.96875 299.53125 429.824219 298.363281 428.628906 297.242188 C 427.429688 296.121094 426.183594 295.058594 424.890625 294.050781 C 423.601562 293.039062 422.265625 292.089844 420.890625 291.199219 C 419.511719 290.308594 418.101562 289.480469 416.648438 288.714844 C 415.199219 287.949219 413.71875 287.25 412.207031 286.617188 C 410.695312 285.984375 409.15625 285.417969 407.597656 284.917969 C 406.035156 284.421875 404.453125 283.996094 402.851562 283.636719 C 401.253906 283.28125 399.640625 282.996094 398.015625 282.78125 C 396.386719 282.566406 394.757812 282.425781 393.117188 282.355469 C 391.480469 282.285156 389.84375 282.289062 388.203125 282.367188 C 386.566406 282.441406 384.9375 282.589844 383.3125 282.8125 C 381.6875 283.03125 380.074219 283.324219 378.476562 283.691406 C 376.878906 284.054688 375.300781 284.488281 373.738281 284.992188 C 372.179688 285.496094 370.644531 286.066406 369.136719 286.707031 C 367.625 287.347656 366.148438 288.054688 364.699219 288.828125 C 363.253906 289.597656 361.84375 290.433594 360.472656 291.328125 C 359.097656 292.226562 357.769531 293.179688 356.480469 294.195312 C 355.195312 295.210938 353.953125 296.28125 352.761719 297.40625 C 351.566406 298.527344 350.425781 299.703125 349.339844 300.929688 C 348.25 302.15625 347.21875 303.429688 346.242188 304.746094 C 345.265625 306.0625 344.351562 307.421875 343.496094 308.820312 C 342.640625 310.21875 341.847656 311.652344 341.121094 313.121094 C 340.394531 314.589844 339.730469 316.089844 339.136719 317.617188 C 338.542969 319.144531 338.015625 320.695312 337.558594 322.269531 C 337.101562 323.84375 336.714844 325.4375 336.398438 327.046875 C 336.082031 328.65625 335.839844 330.273438 335.667969 331.90625 C 335.496094 333.535156 335.394531 335.167969 335.367188 336.808594 C 335.339844 338.449219 335.386719 340.085938 335.503906 341.722656 C 335.621094 343.355469 335.8125 344.984375 336.074219 346.601562 C 336.339844 348.21875 336.671875 349.824219 337.078125 351.410156 C 337.480469 353 337.957031 354.566406 338.5 356.113281 C 339.042969 357.660156 339.65625 359.179688 340.335938 360.671875 C 340.953125 362.0625 341.632812 363.421875 342.371094 364.753906 C 343.109375 366.085938 343.90625 367.378906 344.757812 368.640625 C 345.613281 369.898438 346.519531 371.121094 347.480469 372.300781 C 348.4375 373.480469 349.449219 374.617188 350.511719 375.707031 C 351.570312 376.796875 352.675781 377.839844 353.828125 378.835938 C 354.980469 379.828125 356.175781 380.769531 357.410156 381.660156 C 358.644531 382.546875 359.917969 383.378906 361.226562 384.15625 C 362.535156 384.933594 363.875 385.648438 365.246094 386.308594 C 366.621094 386.964844 368.019531 387.5625 369.441406 388.097656 C 370.867188 388.632812 372.3125 389.105469 373.777344 389.511719 C 375.242188 389.921875 376.726562 390.261719 378.222656 390.539062 C 379.71875 390.816406 381.222656 391.03125 382.738281 391.175781 C 384.253906 391.320312 385.769531 391.398438 387.292969 391.40625 C 388.8125 391.417969 390.332031 391.363281 391.847656 391.238281 C 393.367188 391.117188 394.875 390.925781 396.375 390.671875 C 397.875 390.414062 399.359375 390.09375 400.832031 389.707031 C 400.832031 389.824219 400.949219 389.824219 400.949219 389.9375 L 418.644531 423.601562 C 413.441406 424.0625 407.078125 424.871094 399.210938 425.914062 C 397.726562 426.070312 396.234375 426.1875 394.742188 426.269531 C 393.25 426.347656 391.753906 426.390625 390.261719 426.394531 C 388.765625 426.398438 387.269531 426.367188 385.777344 426.296875 C 384.285156 426.226562 382.792969 426.117188 381.304688 425.96875 C 379.816406 425.824219 378.335938 425.640625 376.855469 425.417969 C 375.378906 425.199219 373.90625 424.9375 372.4375 424.644531 C 370.972656 424.347656 369.515625 424.015625 368.066406 423.644531 C 366.617188 423.277344 365.179688 422.871094 363.753906 422.429688 C 362.324219 421.984375 360.90625 421.507812 359.503906 420.996094 C 358.101562 420.480469 356.710938 419.929688 355.332031 419.347656 C 353.957031 418.761719 352.597656 418.144531 351.25 417.492188 C 349.90625 416.839844 348.578125 416.152344 347.269531 415.433594 C 345.957031 414.710938 344.667969 413.957031 343.394531 413.171875 C 342.121094 412.386719 340.871094 411.570312 339.640625 410.722656 C 338.410156 409.875 337.199219 408.992188 336.015625 408.085938 C 334.828125 407.175781 333.664062 406.234375 332.527344 405.265625 C 331.386719 404.296875 330.273438 403.300781 329.1875 402.277344 C 328.097656 401.25 327.035156 400.199219 326 399.121094 C 324.964844 398.042969 323.957031 396.9375 322.976562 395.808594 C 322 394.679688 321.046875 393.523438 320.128906 392.347656 C 319.207031 391.167969 318.316406 389.96875 317.457031 388.746094 C 316.59375 387.523438 315.765625 386.277344 314.96875 385.015625 C 314.171875 383.75 313.40625 382.464844 312.675781 381.160156 C 311.941406 379.859375 311.242188 378.539062 310.578125 377.199219 C 309.910156 375.859375 309.28125 374.503906 308.683594 373.132812 C 308.085938 371.765625 307.523438 370.378906 306.996094 368.980469 C 306.46875 367.582031 305.976562 366.167969 305.523438 364.746094 C 305.066406 363.320312 304.648438 361.886719 304.265625 360.441406 C 303.882812 358.996094 303.535156 357.542969 303.226562 356.078125 C 302.914062 354.617188 302.644531 353.148438 302.410156 351.671875 C 302.171875 350.195312 301.976562 348.710938 301.816406 347.226562 C 301.65625 345.738281 301.53125 344.25 301.449219 342.757812 C 301.363281 341.265625 301.316406 339.769531 301.304688 338.277344 C 301.296875 336.78125 301.324219 335.285156 301.390625 333.792969 C 301.457031 332.296875 301.5625 330.808594 301.703125 329.320312 C 301.84375 327.832031 302.023438 326.347656 302.242188 324.867188 C 302.457031 323.386719 302.710938 321.914062 303.003906 320.449219 C 303.292969 318.984375 303.621094 317.523438 303.988281 316.074219 C 304.351562 314.625 304.753906 313.183594 305.191406 311.753906 C 305.628906 310.324219 306.101562 308.90625 306.613281 307.503906 C 307.121094 306.097656 307.664062 304.703125 308.246094 303.328125 C 308.824219 301.949219 309.441406 300.585938 310.089844 299.238281 C 310.738281 297.890625 311.417969 296.5625 312.136719 295.25 C 312.851562 293.9375 313.601562 292.644531 314.382812 291.367188 C 315.164062 290.09375 315.976562 288.839844 316.820312 287.605469 C 317.667969 286.375 318.542969 285.160156 319.449219 283.972656 C 320.355469 282.785156 321.289062 281.617188 322.253906 280.476562 C 323.21875 279.335938 324.214844 278.21875 325.234375 277.125 C 326.257812 276.035156 327.304688 274.96875 328.382812 273.929688 C 329.457031 272.890625 330.558594 271.882812 331.683594 270.898438 C 332.8125 269.914062 333.960938 268.960938 335.136719 268.039062 C 336.3125 267.113281 337.507812 266.21875 338.730469 265.355469 C 339.949219 264.488281 341.191406 263.65625 342.453125 262.855469 C 343.714844 262.054688 344.996094 261.285156 346.296875 260.550781 C 347.597656 259.8125 348.917969 259.109375 350.253906 258.441406 C 351.589844 257.769531 352.945312 257.132812 354.3125 256.53125 C 355.683594 255.929688 357.066406 255.363281 358.460938 254.832031 C 359.859375 254.300781 361.269531 253.804688 362.691406 253.347656 C 364.113281 252.886719 365.546875 252.460938 366.992188 252.074219 C 368.4375 251.6875 369.890625 251.335938 371.351562 251.023438 C 372.8125 250.707031 374.28125 250.429688 375.757812 250.191406 C 377.234375 249.953125 378.714844 249.75 380.199219 249.585938 C 381.6875 249.417969 383.175781 249.292969 384.667969 249.203125 C 386.160156 249.113281 387.652344 249.0625 389.148438 249.046875 C 391.261719 248.949219 393.378906 248.929688 395.496094 248.988281 C 397.609375 249.046875 399.722656 249.183594 401.828125 249.402344 C 403.933594 249.617188 406.027344 249.910156 408.109375 250.285156 C 410.195312 250.65625 412.261719 251.105469 414.3125 251.632812 C 416.363281 252.160156 418.390625 252.761719 420.394531 253.441406 C 422.402344 254.117188 424.378906 254.871094 426.328125 255.695312 C 428.277344 256.523438 430.191406 257.417969 432.074219 258.386719 C 433.957031 259.355469 435.800781 260.394531 437.605469 261.5 C 439.410156 262.605469 441.171875 263.777344 442.886719 265.015625 C 444.605469 266.25 446.273438 267.550781 447.894531 268.914062 C 449.515625 270.273438 451.082031 271.695312 452.597656 273.171875 C 454.113281 274.652344 455.570312 276.1875 456.96875 277.773438 C 458.371094 279.359375 459.710938 280.996094 460.988281 282.683594 C 462.265625 284.371094 463.480469 286.105469 464.628906 287.882812 C 465.777344 289.660156 466.859375 291.480469 467.871094 293.335938 C 468.886719 295.195312 469.828125 297.089844 470.699219 299.019531 C 472.671875 302.980469 474.347656 307.058594 475.734375 311.261719 C 477.121094 315.464844 478.195312 319.742188 478.96875 324.097656 C 479.738281 328.457031 480.191406 332.84375 480.332031 337.265625 C 480.472656 341.6875 480.296875 346.097656 479.804688 350.492188 Z M 505.519531 507.347656 C 499.386719 496.589844 493.601562 486.179688 488.167969 476.347656 C 559.074219 432.390625 582.558594 330.714844 539.988281 255.523438 C 538.640625 253.105469 537.234375 250.722656 535.769531 248.371094 C 534.304688 246.019531 532.785156 243.703125 531.207031 241.425781 C 529.632812 239.148438 528 236.914062 526.316406 234.714844 C 524.628906 232.515625 522.890625 230.359375 521.101562 228.246094 C 519.3125 226.132812 517.472656 224.0625 515.582031 222.039062 C 513.691406 220.015625 511.753906 218.035156 509.769531 216.105469 C 507.785156 214.175781 505.75 212.292969 503.675781 210.460938 C 501.597656 208.628906 499.476562 206.847656 497.3125 205.117188 C 495.148438 203.390625 492.945312 201.714844 490.699219 200.089844 C 488.457031 198.46875 486.171875 196.902344 483.851562 195.390625 C 481.53125 193.878906 479.175781 192.425781 476.785156 191.027344 C 474.390625 189.628906 471.96875 188.289062 469.511719 187.011719 C 467.054688 185.730469 464.570312 184.511719 462.054688 183.351562 C 459.539062 182.191406 456.996094 181.09375 454.429688 180.058594 C 451.859375 179.023438 449.265625 178.050781 446.652344 177.140625 C 444.035156 176.230469 441.398438 175.382812 438.742188 174.601562 C 436.085938 173.820312 433.410156 173.101562 430.71875 172.449219 C 428.027344 171.796875 425.320312 171.207031 422.601562 170.6875 C 419.878906 170.164062 417.148438 169.710938 414.40625 169.320312 C 411.664062 168.933594 408.914062 168.609375 406.15625 168.355469 C 403.398438 168.097656 400.636719 167.910156 397.867188 167.789062 C 395.101562 167.667969 392.332031 167.613281 389.5625 167.625 C 386.792969 167.636719 384.027344 167.71875 381.261719 167.863281 C 378.496094 168.011719 375.734375 168.226562 372.980469 168.503906 C 370.222656 168.785156 367.476562 169.132812 364.738281 169.546875 C 362 169.960938 359.273438 170.441406 356.554688 170.988281 C 353.839844 171.535156 351.140625 172.144531 348.453125 172.824219 C 345.769531 173.5 343.101562 174.242188 340.453125 175.050781 C 337.800781 175.855469 335.171875 176.726562 332.566406 177.660156 C 329.957031 178.59375 327.375 179.589844 324.816406 180.652344 C 322.257812 181.710938 319.726562 182.832031 317.21875 184.011719 C 314.714844 185.195312 312.242188 186.4375 309.796875 187.738281 C 307.367188 189.035156 304.972656 190.386719 302.609375 191.796875 C 300.246094 193.207031 297.917969 194.675781 295.628906 196.199219 C 293.335938 197.722656 291.082031 199.300781 288.867188 200.933594 C 286.652344 202.570312 284.480469 204.253906 282.347656 205.996094 C 280.214844 207.734375 278.128906 209.527344 276.082031 211.367188 C 274.039062 213.210938 272.039062 215.101562 270.085938 217.039062 C 268.136719 218.976562 266.230469 220.964844 264.375 222.996094 C 262.519531 225.027344 260.714844 227.105469 258.960938 229.222656 C 257.203125 231.34375 255.503906 233.503906 253.855469 235.707031 C 252.203125 237.910156 250.609375 240.152344 249.070312 242.433594 C 247.53125 244.714844 246.046875 247.03125 244.621094 249.382812 C 243.195312 251.738281 241.824219 254.125 240.515625 256.542969 C 239.203125 258.964844 237.953125 261.414062 236.761719 263.894531 C 235.570312 266.375 234.441406 268.882812 233.371094 271.421875 C 232.304688 273.957031 231.296875 276.515625 230.355469 279.101562 C 229.410156 281.6875 228.53125 284.292969 227.714844 286.921875 C 226.898438 289.546875 226.144531 292.195312 225.457031 294.859375 C 224.769531 297.523438 224.148438 300.203125 223.589844 302.898438 C 223.03125 305.59375 222.542969 308.300781 222.117188 311.019531 C 221.691406 313.738281 221.332031 316.464844 221.042969 319.203125 C 220.75 321.9375 220.523438 324.679688 220.367188 327.429688 C 220.207031 330.175781 220.117188 332.925781 220.09375 335.675781 C 220.066406 338.429688 220.109375 341.179688 220.21875 343.929688 C 220.332031 346.679688 220.507812 349.425781 220.75 352.164062 C 220.996094 354.90625 221.304688 357.640625 221.683594 360.367188 C 222.058594 363.089844 222.503906 365.804688 223.011719 368.511719 C 223.523438 371.214844 224.097656 373.90625 224.738281 376.582031 C 225.378906 379.257812 226.082031 381.917969 226.855469 384.558594 C 227.625 387.199219 228.457031 389.824219 229.355469 392.421875 C 230.253906 395.023438 231.214844 397.601562 232.238281 400.15625 C 233.265625 402.710938 234.347656 405.238281 235.496094 407.742188 C 236.644531 410.242188 237.851562 412.714844 239.117188 415.15625 C 278.910156 492.425781 378.507812 530.019531 455.429688 493.816406 C 461.328125 505.152344 467.34375 516.371094 473.246094 527.707031 C 472.085938 527.59375 470.929688 527.476562 469.773438 527.476562 C 347.621094 572.011719 238.425781 506.886719 200.484375 412.496094 C 199.375 409.648438 198.328125 406.78125 197.347656 403.886719 C 196.367188 400.992188 195.449219 398.082031 194.597656 395.144531 C 193.75 392.210938 192.964844 389.261719 192.246094 386.292969 C 191.527344 383.320312 190.878906 380.339844 190.292969 377.339844 C 189.707031 374.339844 189.191406 371.332031 188.742188 368.308594 C 188.292969 365.289062 187.910156 362.257812 187.597656 359.21875 C 187.285156 356.179688 187.039062 353.136719 186.863281 350.085938 C 186.6875 347.035156 186.578125 343.984375 186.539062 340.929688 C 186.496094 337.875 186.527344 334.820312 186.625 331.769531 C 186.71875 328.714844 186.886719 325.664062 187.121094 322.617188 C 187.351562 319.574219 187.65625 316.535156 188.023438 313.5 C 188.394531 310.46875 188.832031 307.445312 189.339844 304.433594 C 189.84375 301.421875 190.417969 298.421875 191.058594 295.433594 C 191.695312 292.449219 192.402344 289.476562 193.175781 286.519531 C 193.949219 283.566406 194.789062 280.628906 195.695312 277.710938 C 196.601562 274.792969 197.570312 271.898438 198.605469 269.023438 C 199.640625 266.148438 200.738281 263.300781 201.902344 260.476562 C 203.0625 257.648438 204.289062 254.851562 205.578125 252.082031 C 206.867188 249.3125 208.214844 246.574219 209.625 243.863281 C 211.039062 241.152344 212.507812 238.476562 214.039062 235.832031 C 215.570312 233.191406 217.160156 230.582031 218.808594 228.011719 C 220.457031 225.4375 222.160156 222.902344 223.921875 220.410156 C 225.683594 217.914062 227.5 215.457031 229.375 213.042969 C 231.246094 210.628906 233.167969 208.257812 235.148438 205.929688 C 237.125 203.601562 239.15625 201.320312 241.234375 199.082031 C 243.316406 196.847656 245.445312 194.65625 247.625 192.515625 C 249.804688 190.375 252.027344 188.28125 254.300781 186.242188 C 256.574219 184.199219 258.890625 182.210938 261.253906 180.273438 C 263.613281 178.335938 266.019531 176.449219 268.464844 174.621094 C 270.910156 172.789062 273.394531 171.015625 275.921875 169.296875 C 278.449219 167.578125 281.011719 165.917969 283.609375 164.316406 C 286.210938 162.710938 288.847656 161.167969 291.515625 159.683594 C 294.183594 158.195312 296.886719 156.773438 299.621094 155.410156 C 302.351562 154.042969 305.117188 152.742188 307.90625 151.5 C 310.699219 150.261719 313.515625 149.085938 316.363281 147.972656 C 319.207031 146.855469 322.074219 145.808594 324.964844 144.820312 C 327.859375 143.835938 330.769531 142.917969 333.703125 142.0625 C 336.636719 141.207031 339.585938 140.417969 342.554688 139.695312 C 345.523438 138.976562 348.507812 138.320312 351.503906 137.730469 C 354.5 137.140625 357.511719 136.621094 360.53125 136.167969 C 363.550781 135.714844 366.582031 135.328125 369.621094 135.011719 C 372.660156 134.691406 375.703125 134.445312 378.753906 134.261719 C 381.800781 134.082031 384.855469 133.96875 387.910156 133.925781 C 390.964844 133.878906 394.015625 133.90625 397.070312 133.996094 C 400.125 134.089844 403.171875 134.25 406.21875 134.480469 C 409.265625 134.710938 412.304688 135.007812 415.339844 135.375 C 418.371094 135.738281 421.394531 136.171875 424.40625 136.671875 C 427.421875 137.175781 430.421875 137.742188 433.410156 138.378906 C 436.398438 139.015625 439.371094 139.71875 442.328125 140.488281 C 445.28125 141.257812 448.222656 142.089844 451.140625 142.992188 C 454.058594 143.894531 456.957031 144.859375 459.832031 145.890625 C 462.707031 146.921875 465.558594 148.015625 468.386719 149.175781 C 471.210938 150.332031 474.011719 151.554688 476.78125 152.839844 C 479.554688 154.125 482.296875 155.46875 485.007812 156.875 C 487.71875 158.285156 490.398438 159.75 493.042969 161.277344 C 495.6875 162.804688 498.296875 164.390625 500.875 166.035156 C 503.449219 167.679688 505.984375 169.382812 508.480469 171.140625 C 510.980469 172.898438 513.4375 174.710938 515.855469 176.582031 C 518.273438 178.449219 520.644531 180.371094 522.976562 182.34375 C 525.308594 184.320312 527.59375 186.347656 529.832031 188.421875 C 532.070312 190.5 534.265625 192.628906 536.410156 194.804688 C 538.554688 196.976562 540.648438 199.199219 542.691406 201.46875 C 544.738281 203.742188 546.730469 206.054688 548.671875 208.414062 C 550.613281 210.773438 552.5 213.171875 554.332031 215.617188 C 558.082031 220.484375 561.597656 225.515625 564.875 230.710938 C 568.152344 235.90625 571.183594 241.246094 573.960938 246.726562 C 576.742188 252.203125 579.261719 257.800781 581.515625 263.515625 C 583.773438 269.230469 585.757812 275.039062 587.472656 280.9375 C 589.183594 286.839844 590.617188 292.804688 591.773438 298.839844 C 592.929688 304.875 593.800781 310.949219 594.386719 317.066406 C 594.976562 323.179688 595.277344 329.3125 595.289062 335.453125 C 595.304688 341.597656 595.03125 347.730469 594.472656 353.847656 C 594.214844 357.667969 593.847656 361.480469 593.371094 365.28125 C 592.894531 369.082031 592.308594 372.863281 591.617188 376.632812 C 590.925781 380.398438 590.125 384.140625 589.21875 387.863281 C 588.308594 391.582031 587.296875 395.277344 586.179688 398.9375 C 585.058594 402.601562 583.835938 406.230469 582.511719 409.824219 C 581.183594 413.414062 579.757812 416.96875 578.226562 420.480469 C 576.695312 423.988281 575.066406 427.453125 573.339844 430.871094 C 571.613281 434.289062 569.785156 437.65625 567.867188 440.96875 C 565.945312 444.28125 563.929688 447.539062 561.824219 450.738281 C 559.714844 453.933594 557.519531 457.070312 555.234375 460.140625 C 552.945312 463.214844 550.574219 466.21875 548.113281 469.15625 C 545.65625 472.089844 543.113281 474.957031 540.492188 477.746094 C 537.867188 480.535156 535.167969 483.25 532.390625 485.886719 C 529.613281 488.523438 526.761719 491.078125 523.835938 493.550781 C 520.910156 496.023438 517.917969 498.410156 514.855469 500.710938 C 511.796875 503.015625 508.671875 505.226562 505.484375 507.347656 Z M 505.519531 507.347656 " fill-opacity="1" fill-rule="nonzero"/></svg>